<?xml version="1.0" encoding="UTF-8"?>
<svg xmlns="http://www.w3.org/2000/svg" xmlns:xlink="http://www.w3.org/1999/xlink" viewBox="0 0 2000 2000">
  <defs>
    <style>
      .cls-1 {
        fill: #f2cf66;
      }

      .cls-1, .cls-2 {
        font-family: Karate, Karate;
        font-size: 250px;
      }

      .cls-3 {
        fill: url(#Dégradé_sans_nom_89-2);
      }

      .cls-3, .cls-4, .cls-5, .cls-6, .cls-7, .cls-8, .cls-9, .cls-10, .cls-11, .cls-12, .cls-13, .cls-14, .cls-15, .cls-16, .cls-17, .cls-18, .cls-19, .cls-20 {
        stroke-width: 0px;
      }

      .cls-2 {
        fill: #d9a84e;
      }

      .cls-4 {
        fill: #75736f;
      }

      .cls-5 {
        fill: #f7f4eb;
      }

      .cls-6 {
        fill: url(#Dégradé_sans_nom_89-3);
      }

      .cls-7 {
        fill: url(#Dégradé_sans_nom_89);
      }

      .cls-8 {
        fill: url(#Dégradé_sans_nom_89-4);
      }

      .cls-9 {
        fill: none;
      }

      .cls-10 {
        fill: url(#Dégradé_sans_nom_70-4);
      }

      .cls-11 {
        fill: #f4ddab;
      }

      .cls-12 {
        fill: url(#Dégradé_sans_nom_70-3);
      }

      .cls-13 {
        fill: url(#Dégradé_sans_nom_89-5);
      }

      .cls-14 {
        fill: #4abcf4;
      }

      .cls-15 {
        fill: url(#Dégradé_sans_nom_70-6);
      }

      .cls-16 {
        fill: url(#Dégradé_sans_nom_70-2);
      }

      .cls-17 {
        fill: url(#Dégradé_sans_nom_70);
      }

      .cls-18 {
        fill: #fff6bf;
      }

      .cls-19 {
        fill: url(#Dégradé_sans_nom_89-6);
      }

      .cls-20 {
        fill: url(#Dégradé_sans_nom_70-5);
      }
    </style>
    <linearGradient id="Dégradé_sans_nom_89" data-name="Dégradé sans nom 89" x1="370.61" y1="1659.98" x2="1963.67" y2="1659.98" gradientUnits="userSpaceOnUse">
      <stop offset=".17" stop-color="#8c5e26"/>
      <stop offset=".32" stop-color="#f2cf66"/>
      <stop offset=".48" stop-color="#8c5e26"/>
      <stop offset=".66" stop-color="#8c5e26"/>
      <stop offset=".79" stop-color="#f2cf66"/>
      <stop offset=".88" stop-color="#8c5e26"/>
    </linearGradient>
    <linearGradient id="Dégradé_sans_nom_70" data-name="Dégradé sans nom 70" x1="370.6" y1="1578.28" x2="1962.98" y2="1578.28" gradientUnits="userSpaceOnUse">
      <stop offset="0" stop-color="#d9a84e"/>
      <stop offset=".52" stop-color="#f2cf66"/>
      <stop offset=".88" stop-color="#d9a84e"/>
    </linearGradient>
    <linearGradient id="Dégradé_sans_nom_89-2" data-name="Dégradé sans nom 89" x1="485.01" y1="1577.29" x2="1849.27" y2="1577.29" xlink:href="#Dégradé_sans_nom_89"/>
    <linearGradient id="Dégradé_sans_nom_70-2" data-name="Dégradé sans nom 70" x1="485" y1="1507.33" x2="1848.67" y2="1507.33" xlink:href="#Dégradé_sans_nom_70"/>
    <linearGradient id="Dégradé_sans_nom_89-3" data-name="Dégradé sans nom 89" x1="581.04" y1="1496.88" x2="1753.22" y2="1496.88" xlink:href="#Dégradé_sans_nom_89"/>
    <linearGradient id="Dégradé_sans_nom_70-3" data-name="Dégradé sans nom 70" x1="581.03" y1="1436.77" x2="1752.71" y2="1436.77" xlink:href="#Dégradé_sans_nom_70"/>
    <linearGradient id="Dégradé_sans_nom_89-4" data-name="Dégradé sans nom 89" x1="606.76" y1="1330.84" x2="1455.98" y2="1330.84" xlink:href="#Dégradé_sans_nom_89"/>
    <linearGradient id="Dégradé_sans_nom_70-4" data-name="Dégradé sans nom 70" x1="606.75" y1="1287.29" x2="1455.62" y2="1287.29" xlink:href="#Dégradé_sans_nom_70"/>
    <linearGradient id="Dégradé_sans_nom_89-5" data-name="Dégradé sans nom 89" x1="667.74" y1="1286.77" x2="1395" y2="1286.77" xlink:href="#Dégradé_sans_nom_89"/>
    <linearGradient id="Dégradé_sans_nom_70-5" data-name="Dégradé sans nom 70" x1="667.73" y1="1249.47" x2="1394.68" y2="1249.47" xlink:href="#Dégradé_sans_nom_70"/>
    <linearGradient id="Dégradé_sans_nom_89-6" data-name="Dégradé sans nom 89" x1="718.93" y1="1243.9" x2="1343.8" y2="1243.9" xlink:href="#Dégradé_sans_nom_89"/>
    <linearGradient id="Dégradé_sans_nom_70-6" data-name="Dégradé sans nom 70" x1="718.93" y1="1211.86" x2="1343.53" y2="1211.86" xlink:href="#Dégradé_sans_nom_70"/>
  </defs>
  <g id="Calque_1" data-name="Calque 1">
    <rect class="cls-18" x="-164.93" y="610.47" width="2308.09" height="1438.72"/>
    <polygon class="cls-11" points="-69.95 810.39 -69.95 882.02 428.43 1555.29 1947.07 1587.58 -69.95 810.39"/>
    <g>
      <g>
        <path class="cls-7" d="M1963.67,1644.87c0,53.46-356.46,96.81-796.18,96.81s-796.2-43.35-796.2-96.81l-.68-65.97c.6,11.52,17.74,22.56,48.67,32.78,111.89,37.01,404.34,63.4,747.51,63.4s636.81-26.5,748.19-63.62c31.06-10.35,48-21.53,48-33.19l.68,65.97v.63Z"/>
        <path class="cls-17" d="M1962.98,1578.27c0,11.66-16.93,22.84-48,33.19-111.37,37.12-404.33,63.62-748.19,63.62s-635.62-26.4-747.51-63.4c-30.93-10.22-48.07-21.26-48.67-32.78v-.63c-.01-53.45,356.45-96.8,796.18-96.8s796.18,43.35,796.18,96.8Z"/>
      </g>
      <g>
        <path class="cls-3" d="M1849.27,1564.35c0,45.79-305.27,82.91-681.83,82.91s-681.84-37.12-681.84-82.91l-.58-56.49c.52,9.86,15.19,19.32,41.68,28.07,95.82,31.69,346.27,54.3,640.15,54.3s545.35-22.7,640.73-54.48c26.6-8.86,41.1-18.44,41.1-28.42l.58,56.49v.54Z"/>
        <path class="cls-16" d="M1848.67,1507.32c0,9.98-14.5,19.56-41.1,28.42-95.38,31.79-346.26,54.48-640.73,54.48s-544.33-22.61-640.15-54.3c-26.49-8.75-41.17-18.21-41.68-28.07v-.54c-.01-45.78,305.26-82.9,681.83-82.9s681.83,37.12,681.83,82.9Z"/>
      </g>
      <g>
        <path class="cls-6" d="M1753.22,1485.76c0,39.34-262.29,71.23-585.84,71.23s-585.85-31.89-585.85-71.23l-.5-48.54c.44,8.47,13.05,16.6,35.81,24.12,82.33,27.23,297.52,46.65,550.02,46.65s468.57-19.5,550.52-46.81c22.86-7.62,35.32-15.84,35.32-24.42l.5,48.54v.46Z"/>
        <path class="cls-12" d="M1752.71,1436.76c0,8.58-12.46,16.8-35.32,24.42-81.95,27.31-297.51,46.81-550.52,46.81s-467.69-19.42-550.02-46.65c-22.76-7.52-35.37-15.65-35.81-24.12v-.46c0-39.33,262.28-71.22,585.84-71.22s585.84,31.89,585.84,71.22Z"/>
      </g>
    </g>
    <rect class="cls-14" x="-99.57" y="-49.2" width="2128.34" height="680.17"/>
    <line class="cls-9" x1="562.74" y1="1494.44" x2="562.73" y2="1493.95"/>
    <text class="cls-2" transform="translate(429.43 426.83)"><tspan x="0" y="0">YOU WIN !</tspan></text>
    <text class="cls-1" transform="translate(428.43 405.84)"><tspan x="0" y="0">YOU WIN !</tspan></text>
  </g>
  <g id="Calque_2" data-name="Calque 2">
    <rect class="cls-18" x="-75.77" y="596.83" width="2308.09" height="1438.72"/>
    <polygon class="cls-11" points="-6.32 1308.06 2197.74 1324.55 2181.26 2067.89 -125.81 2046.45 -135 1313.12 -6.32 1308.06"/>
    <g>
      <g>
        <path class="cls-8" d="M1455.98,1322.79c0,28.5-190.02,51.61-424.43,51.61s-424.44-23.11-424.44-51.61l-.36-35.17c.32,6.14,9.46,12.02,25.95,17.47,59.64,19.73,215.55,33.8,398.48,33.8s339.47-14.13,398.84-33.92c16.56-5.52,25.59-11.48,25.59-17.69l.36,35.17v.33Z"/>
        <path class="cls-10" d="M1455.62,1287.29c0,6.21-9.03,12.17-25.59,17.69-59.37,19.79-215.54,33.92-398.84,33.92s-338.84-14.07-398.48-33.8c-16.49-5.45-25.63-11.33-25.95-17.47v-.33c0-28.49,190.02-51.6,424.43-51.6s424.43,23.11,424.43,51.6Z"/>
      </g>
      <g>
        <path class="cls-13" d="M1395,1279.87c0,24.41-162.73,44.2-363.47,44.2s-363.48-19.79-363.48-44.2l-.31-30.11c.27,5.26,8.1,10.3,22.22,14.96,51.08,16.89,184.59,28.95,341.25,28.95s290.72-12.1,341.56-29.04c14.18-4.72,21.91-9.83,21.91-15.15l.31,30.11v.29Z"/>
        <path class="cls-20" d="M1394.68,1249.47c0,5.32-7.73,10.43-21.91,15.15-50.84,16.95-184.58,29.04-341.56,29.04s-290.17-12.05-341.25-28.95c-14.12-4.67-21.95-9.71-22.22-14.96v-.29c0-24.4,162.72-44.19,363.47-44.19s363.47,19.79,363.47,44.19Z"/>
      </g>
      <g>
        <path class="cls-19" d="M1343.8,1237.97c0,20.97-139.82,37.97-312.3,37.97s-312.3-17-312.3-37.97l-.27-25.87c.24,4.52,6.96,8.85,19.09,12.86,43.89,14.52,158.6,24.87,293.2,24.87s249.78-10.4,293.47-24.96c12.18-4.06,18.83-8.45,18.83-13.02l.27,25.87v.25Z"/>
        <path class="cls-15" d="M1343.53,1211.85c0,4.57-6.64,8.96-18.83,13.02-43.69,14.56-158.59,24.96-293.47,24.96s-249.32-10.35-293.2-24.87c-12.13-4.01-18.86-8.34-19.09-12.86v-.25c0-20.97,139.81-37.97,312.3-37.97s312.3,17,312.3,37.97Z"/>
      </g>
    </g>
    <rect class="cls-14" x="-10.4" y="-62.83" width="2128.34" height="680.17"/>
    <line class="cls-9" x1="651.9" y1="1480.8" x2="651.89" y2="1480.31"/>
    <g>
      <path class="cls-4" d="M641.84,243.6c.57-.73,1.06-1.34,1.46-1.83.41-.49.65-.81.73-.98-.08,0-.24,1.02-.49,3.05,17.33,2.36,34.38,6.71,51.15,13.06,16.76,6.35,31.19,16.3,43.27,29.85,12.08,13.55,18.13,30.9,18.13,52.06,0,22.54-7,40.85-21,54.93-14,14.08-30.4,24.33-49.19,30.76-18.8,6.43-35.24,10.48-49.32,12.15-14.08,1.67-24.25,2.54-30.52,2.62,3.09-.9,8.14-2.77,15.14-5.62,7-2.85,14.85-7.12,23.56-12.82l-54.69,16.48c-.49-2.44-1.22-6.71-2.2-12.82s-1.95-14.1-2.93-23.99-1.46-19.71-1.46-29.48c0-13.67,1.18-25.59,3.54-35.77,3.34-13.35,9.6-27.34,18.8-41.99,9.2-14.65,19-28.64,29.42-41.99-2.93-1.71-5.31-3.03-7.14-3.97-1.83-.93-3.89-1.95-6.17-3.05-2.28-1.1-3.91-1.83-4.88-2.2s-1.67-.63-2.08-.79c7.16,0,16.11.77,26.86,2.32ZM649.78,417.31c29.87-20.83,44.8-47.49,44.8-79.96-.08-12.53-2.83-24.11-8.24-34.73s-12.02-19.75-19.84-27.41c-7.81-7.65-16.24-14.36-25.27-20.14-3.99,24.5-5.98,45.74-5.98,63.72,0,12.37.93,22.87,2.81,31.49,1.06,5.21,2.54,13.23,4.46,24.05,1.91,10.82,3.46,19.84,4.64,27.04,1.18,7.2,2.05,12.51,2.62,15.93Z"/>
      <path class="cls-4" d="M828.73,248.12c11.64,1.14,22.68,3.05,33.14,5.74,10.46,2.69,20.12,6.51,28.99,11.47,8.87,4.96,16.03,11.54,21.48,19.71,5.45,8.18,8.18,17.92,8.18,29.24,0,17.99-15.83,34.34-47.49,49.07,20.26,5.62,34.59,11.68,42.97,18.19,10.42,8.22,18.78,16.52,25.08,24.9,6.31,8.38,10.52,14.53,12.63,18.43l-59.69,15.5c-.24-1.06-.85-3.01-1.83-5.86s-2.93-7.12-5.86-12.82c-2.93-5.7-6.71-12-11.35-18.92-7.65-11.07-16.64-20.87-26.98-29.42-12.53,4.07-24.37,7.49-35.52,10.25-4.96,8.38-10.4,16.62-16.3,24.72-5.9,8.1-10.76,14.49-14.59,19.17-3.83,4.68-6.55,7.96-8.18,9.83.73-3.5,1.83-9.42,3.3-17.76,1.46-8.34,2.81-18.09,4.03-29.24-4.39.73-7.26,1.2-8.61,1.4-1.34.2-2.38.39-3.11.55.08,0,4.07-1.59,11.96-4.76.81-9.93,1.22-19.33,1.22-28.2,0-12.29-.9-22.79-2.69-31.49-1.95-9.77-5.47-20.73-10.56-32.9-5.09-12.17-9.09-21.22-12.02-27.16l39.79-15.14c-4.07-1.71-7.45-3.03-10.13-3.97-2.69-.93-4.56-1.57-5.62-1.89,1.06-.08,2.99-.18,5.8-.3,2.81-.12,6.29-.18,10.44-.18,3.09,0,5.74.02,7.93.06,2.2.04,4.64.1,7.32.18l15.01-5.74c.08,0,.49,2.44,1.22,7.32ZM829.71,360.05c-1.95-.98-3.38-1.71-4.27-2.2-.41.98-1.55,3.54-3.42,7.69,3.25-2.03,5.82-3.86,7.69-5.49ZM836.55,354.81c15.71-13.43,23.68-26.94,23.93-40.53,0-15.62-9.56-29.95-28.69-42.97.73,6.59,1.28,12.78,1.65,18.55.37,5.78.55,11.52.55,17.21,0,14.16-1.18,26.08-3.54,35.77-.65,2.77-1.63,6.19-2.93,10.25,4.96.9,7.97,1.46,9.03,1.71Z"/>
      <path class="cls-4" d="M1030.76,383.61c0,4.56-.02,8.36-.06,11.41s-.1,6.41-.18,10.07c0,5.45.16,11.74.49,18.86.32,7.12.57,11.98.73,14.59l-60.79-12.45c.32-3.01,1.1-8.1,2.32-15.26,1.22-7.16,2.89-15.18,5-24.05-5.78-.65-11.05-1.42-15.81-2.32-4.76-.89-8.08-1.54-9.95-1.95l14.77-48.46c1.95.81,5.49,2.16,10.62,4.03,5.13,1.87,10.66,3.62,16.6,5.25,3.01-5.29,5.86-9.72,8.55-13.31,8.38-10.74,24.29-24.29,47.73-40.65-3.91-3.25-7.55-6.14-10.92-8.67-3.38-2.52-5.76-4.23-7.14-5.13l64.58-33.45c1.38,1.87,3.58,5,6.59,9.4,3.01,4.39,6.78,10.7,11.29,18.92,4.52,8.22,8.73,17.33,12.63,27.34s6.3,19.53,7.2,28.56c.32,3.58.49,6.31.49,8.18,0,12.78-2.18,26.57-6.53,41.38-4.36,14.81-8.71,27.33-13.06,37.54-4.35,10.21-7.59,17.44-9.71,21.67.16,0,.24-2.85.24-8.54,0-7-.26-14.99-.79-23.99-.53-8.99-1.59-18.43-3.17-28.32-1.59-9.89-3.68-18.86-6.29-26.92-5.37,4.15-11.43,8.44-18.19,12.88-6.76,4.44-14.2,8.71-22.34,12.82-8.14,4.11-16.44,7.63-24.9,10.56ZM1091.79,335.52c-1.46-3.42-3.34-6.92-5.62-10.5-4.15-6.92-11.39-14.89-21.73-23.93-11.07,18.8-19.12,34.22-24.17,46.26,14.65-1.87,31.82-5.82,51.51-11.84Z"/>
      <path class="cls-4" d="M1198.24,388.86c-.33-7-.49-12.41-.49-16.24,0-10.17.73-19.78,2.2-28.81,2.77-15.71,7.28-30.09,13.55-43.15,6.27-13.06,12.86-23.99,19.78-32.78,6.92-8.79,12.59-15.22,17.03-19.29,4.44-4.07,7.67-6.84,9.71-8.3-1.14,3.74-2.81,10.17-5,19.29-2.2,9.12-4.42,20.65-6.65,34.61-2.24,13.96-3.36,26.92-3.36,38.88,0,6.92.49,13.51,1.46,19.78,1.54,8.54,4.8,18.11,9.77,28.69v-7.45c0-10.42.77-20.02,2.32-28.81,2.69-15.62,7.16-29.99,13.43-43.09,6.27-13.1,12.86-24.05,19.78-32.84,6.92-8.79,12.59-15.22,17.03-19.29,4.44-4.07,7.67-6.84,9.71-8.3-2.2,8.3-4.99,21.4-8.36,39.31-3.38,17.9-5.06,35.24-5.06,52,0,7.65.49,14.73,1.46,21.24,1.14,7.08,3.54,15.01,7.2,23.8s7.24,16.4,10.74,22.83c3.5,6.43,6.02,10.91,7.57,13.43l-68.97,25.39c-.33-1.46-.78-3.8-1.34-7.02-.57-3.21-1.3-8.12-2.2-14.71l-55.05,20.26c-.41,0-1.55-7.16-3.42-21.48l-57.98,21.48c-1.14-5.45-2.56-14.34-4.27-26.67s-2.56-25.33-2.56-39c0-10.42.77-20.02,2.32-28.81,2.69-15.62,7.16-29.99,13.43-43.09,6.27-13.1,12.86-24.05,19.78-32.84,6.92-8.79,12.59-15.22,17.03-19.29,4.44-4.07,7.67-6.84,9.71-8.3-1.14,3.74-2.81,10.17-5,19.29-2.2,9.12-4.42,20.65-6.65,34.61-2.24,13.96-3.36,26.92-3.36,38.88,0,7.16.53,13.75,1.59,19.78,1.46,9.6,5.86,21.61,13.18,36.01Z"/>
      <path class="cls-4" d="M1408.93,390.08c1.71-8.54,3.4-19.33,5.07-32.35,1.67-13.02,2.5-25.84,2.5-38.45s-1.02-22.95-3.05-31.98c-2.04-9.85-5.76-20.83-11.17-32.96-5.41-12.12-9.71-21.12-12.88-26.98l75.07-27.1c.32,3.5.73,9.48,1.22,17.94.49,8.46.73,17.99.73,28.56,0,20.1-1.14,36.62-3.42,49.56-2.04,11.88-5.03,22.95-8.97,33.2s-8.22,19.23-12.82,26.92c-4.6,7.69-9.08,14.24-13.43,19.65-4.36,5.41-8.65,10.15-12.88,14.22l37.6,1.95-4.52,49.56-43.58-4.52-11.96-47.97,16.48.73Z"/>
    </g>
    <g>
      <path class="cls-5" d="M640.84,222.61c.57-.73,1.06-1.34,1.46-1.83.41-.49.65-.81.73-.98-.08,0-.24,1.02-.49,3.05,17.33,2.36,34.38,6.71,51.15,13.06,16.76,6.35,31.19,16.3,43.27,29.85,12.08,13.55,18.13,30.91,18.13,52.06,0,22.54-7,40.85-21,54.93-14,14.08-30.4,24.33-49.19,30.76-18.8,6.43-35.24,10.48-49.32,12.15-14.08,1.67-24.25,2.54-30.52,2.62,3.09-.9,8.14-2.77,15.14-5.62,7-2.85,14.85-7.12,23.56-12.82l-54.69,16.48c-.49-2.44-1.22-6.71-2.2-12.82s-1.95-14.1-2.93-23.99-1.46-19.71-1.46-29.48c0-13.67,1.18-25.59,3.54-35.77,3.34-13.35,9.6-27.34,18.8-41.99,9.2-14.65,19-28.64,29.42-41.99-2.93-1.71-5.31-3.03-7.14-3.97-1.83-.93-3.89-1.95-6.17-3.05-2.28-1.1-3.91-1.83-4.88-2.2s-1.67-.63-2.08-.79c7.16,0,16.11.77,26.86,2.32ZM648.78,396.31c29.87-20.83,44.8-47.49,44.8-79.96-.08-12.53-2.83-24.11-8.24-34.73s-12.02-19.75-19.84-27.4c-7.81-7.65-16.24-14.36-25.27-20.14-3.99,24.5-5.98,45.74-5.98,63.72,0,12.37.93,22.87,2.81,31.49,1.06,5.21,2.54,13.23,4.46,24.05,1.91,10.82,3.46,19.84,4.64,27.04,1.18,7.2,2.05,12.51,2.62,15.93Z"/>
      <path class="cls-5" d="M827.73,227.12c11.64,1.14,22.68,3.05,33.14,5.74,10.46,2.69,20.12,6.51,28.99,11.47,8.87,4.96,16.03,11.54,21.48,19.71,5.45,8.18,8.18,17.93,8.18,29.24,0,17.99-15.83,34.34-47.49,49.07,20.26,5.62,34.59,11.68,42.97,18.19,10.42,8.22,18.78,16.52,25.08,24.9,6.31,8.38,10.52,14.53,12.63,18.43l-59.69,15.5c-.24-1.06-.85-3.01-1.83-5.86s-2.93-7.12-5.86-12.82c-2.93-5.7-6.71-12-11.35-18.92-7.65-11.07-16.64-20.87-26.98-29.42-12.53,4.07-24.37,7.49-35.52,10.25-4.96,8.38-10.4,16.62-16.3,24.72-5.9,8.1-10.76,14.49-14.59,19.17-3.83,4.68-6.55,7.96-8.18,9.83.73-3.5,1.83-9.42,3.3-17.76,1.46-8.34,2.81-18.08,4.03-29.24-4.39.73-7.26,1.2-8.61,1.4-1.34.2-2.38.39-3.11.55.08,0,4.07-1.59,11.96-4.76.81-9.93,1.22-19.33,1.22-28.2,0-12.29-.9-22.79-2.69-31.49-1.95-9.77-5.47-20.73-10.56-32.9-5.09-12.17-9.09-21.22-12.02-27.16l39.79-15.14c-4.07-1.71-7.45-3.03-10.13-3.97-2.69-.93-4.56-1.57-5.62-1.89,1.06-.08,2.99-.18,5.8-.31,2.81-.12,6.29-.18,10.44-.18,3.09,0,5.74.02,7.93.06,2.2.04,4.64.1,7.32.18l15.01-5.74c.08,0,.49,2.44,1.22,7.32ZM828.71,339.06c-1.95-.98-3.38-1.71-4.27-2.2-.41.98-1.55,3.54-3.42,7.69,3.25-2.03,5.82-3.86,7.69-5.49ZM835.55,333.81c15.71-13.43,23.68-26.94,23.93-40.53,0-15.62-9.56-29.95-28.69-42.97.73,6.59,1.28,12.78,1.65,18.55.37,5.78.55,11.52.55,17.21,0,14.16-1.18,26.08-3.54,35.77-.65,2.77-1.63,6.19-2.93,10.25,4.96.9,7.97,1.46,9.03,1.71Z"/>
      <path class="cls-5" d="M1029.76,362.62c0,4.56-.02,8.36-.06,11.41s-.1,6.41-.18,10.07c0,5.45.16,11.74.49,18.86.32,7.12.57,11.98.73,14.59l-60.79-12.45c.32-3.01,1.1-8.1,2.32-15.26,1.22-7.16,2.89-15.18,5-24.05-5.78-.65-11.05-1.42-15.81-2.32-4.76-.89-8.08-1.54-9.95-1.95l14.77-48.46c1.95.81,5.49,2.16,10.62,4.03,5.13,1.87,10.66,3.62,16.6,5.25,3.01-5.29,5.86-9.72,8.54-13.31,8.38-10.74,24.29-24.29,47.73-40.65-3.91-3.25-7.55-6.14-10.92-8.67-3.38-2.52-5.76-4.23-7.14-5.13l64.58-33.45c1.38,1.87,3.58,5,6.59,9.4,3.01,4.39,6.78,10.7,11.29,18.92,4.52,8.22,8.73,17.33,12.63,27.34s6.31,19.53,7.2,28.56c.32,3.58.49,6.31.49,8.18,0,12.78-2.18,26.57-6.53,41.38-4.35,14.81-8.71,27.32-13.06,37.54-4.35,10.21-7.59,17.44-9.7,21.67.16,0,.24-2.85.24-8.54,0-7-.26-14.99-.79-23.99-.53-8.99-1.59-18.43-3.17-28.32-1.59-9.89-3.68-18.86-6.29-26.92-5.37,4.15-11.43,8.44-18.19,12.88-6.76,4.44-14.2,8.71-22.34,12.82-8.14,4.11-16.44,7.63-24.9,10.56ZM1090.79,314.53c-1.46-3.42-3.34-6.92-5.62-10.5-4.15-6.92-11.39-14.89-21.73-23.93-11.07,18.8-19.12,34.22-24.17,46.26,14.65-1.87,31.82-5.82,51.51-11.84Z"/>
      <path class="cls-5" d="M1197.24,367.87c-.33-7-.49-12.41-.49-16.24,0-10.17.73-19.78,2.2-28.81,2.77-15.71,7.28-30.09,13.55-43.15,6.27-13.06,12.86-23.99,19.78-32.78,6.92-8.79,12.59-15.22,17.03-19.29,4.44-4.07,7.67-6.84,9.71-8.3-1.14,3.74-2.81,10.17-5,19.29-2.2,9.12-4.42,20.65-6.65,34.61-2.24,13.96-3.36,26.92-3.36,38.88,0,6.92.49,13.51,1.46,19.78,1.54,8.54,4.8,18.11,9.77,28.69v-7.45c0-10.42.77-20.02,2.32-28.81,2.69-15.62,7.16-29.99,13.43-43.09,6.27-13.1,12.86-24.05,19.78-32.84,6.92-8.79,12.59-15.22,17.03-19.29,4.43-4.07,7.67-6.84,9.7-8.3-2.2,8.3-4.99,21.4-8.36,39.31-3.38,17.9-5.07,35.24-5.07,52,0,7.65.49,14.73,1.46,21.24,1.14,7.08,3.54,15.01,7.2,23.8s7.24,16.4,10.74,22.83c3.5,6.43,6.02,10.91,7.57,13.43l-68.97,25.39c-.33-1.46-.77-3.8-1.34-7.02-.57-3.21-1.3-8.12-2.2-14.71l-55.05,20.26c-.41,0-1.55-7.16-3.42-21.48l-57.98,21.48c-1.14-5.45-2.56-14.34-4.27-26.67s-2.56-25.33-2.56-39c0-10.42.77-20.02,2.32-28.81,2.69-15.62,7.16-29.99,13.43-43.09,6.27-13.1,12.86-24.05,19.78-32.84,6.92-8.79,12.59-15.22,17.03-19.29,4.44-4.07,7.67-6.84,9.71-8.3-1.14,3.74-2.81,10.17-5,19.29-2.2,9.12-4.42,20.65-6.65,34.61-2.24,13.96-3.36,26.92-3.36,38.88,0,7.16.53,13.75,1.59,19.78,1.46,9.6,5.86,21.61,13.18,36.01Z"/>
      <path class="cls-5" d="M1407.93,369.09c1.71-8.54,3.4-19.33,5.07-32.35,1.67-13.02,2.5-25.84,2.5-38.45s-1.02-22.95-3.05-31.98c-2.04-9.85-5.76-20.83-11.17-32.96-5.41-12.12-9.7-21.12-12.88-26.98l75.07-27.1c.32,3.5.73,9.48,1.22,17.94.49,8.46.73,17.99.73,28.56,0,20.1-1.14,36.62-3.42,49.56-2.04,11.88-5.03,22.95-8.97,33.2s-8.22,19.23-12.82,26.92c-4.6,7.69-9.08,14.24-13.43,19.65-4.35,5.41-8.65,10.15-12.88,14.22l37.6,1.95-4.52,49.56-43.58-4.52-11.96-47.97,16.48.73Z"/>
    </g>
  </g>
</svg>