<?xml version="1.0" encoding="UTF-8"?>
<svg id="Calque_1" data-name="Calque 1" xmlns="http://www.w3.org/2000/svg" viewBox="0 0 2000 2000">
  <defs>
    <style>
      .cls-1 {
        fill: #000;
      }

      .cls-1, .cls-2, .cls-3, .cls-4, .cls-5, .cls-6, .cls-7 {
        stroke-width: 0px;
      }

      .cls-2 {
        fill: #c4c1bf;
      }

      .cls-3 {
        fill: #684f3a;
      }

      .cls-4 {
        fill: #998675;
      }

      .cls-5 {
        fill: #efdbce;
      }

      .cls-8 {
        opacity: .36;
      }

      .cls-6 {
        fill: #fff6bf;
      }

      .cls-7 {
        fill: #75665a;
      }
    </style>
  </defs>
  <rect class="cls-6" x="-.9" y="-1.14" width="2001.7" height="2001.7"/>
  <g id="Score">
    <g class="cls-8">
      <polygon class="cls-1" points="364.25 210.84 351.73 207.16 350.53 202.81 364.25 210.84"/>
      <polygon class="cls-1" points="1647.61 235.27 1632.25 307.7 1643.95 387.64 1576.67 368.35 1545.75 365.19 1511.31 358.21 1544.69 376.19 1646.45 402.82 1642.82 433.63 1648.38 542.42 1648.58 546.55 1639.79 582 1611.22 584.83 921.73 578 359.76 546.43 301.55 552.19 310.81 477.53 317.53 437 358.04 433 316.16 422.61 313.15 379.85 307.76 271.43 321.6 228.04 364.25 210.84 350.53 202.81 320.8 185.45 334.11 145.53 365.18 142.45 366.03 141.15 1632.23 163.66 1645.42 182.57 1648.98 219.02 1647.61 235.27"/>
    </g>
    <polygon class="cls-7" points="1698.35 530.06 1689.52 567.57 1660.36 570.45 956.77 560.61 383.19 525.08 323.81 530.96 332.97 451.94 339.67 409.03 381.01 404.94 338.22 393.79 335 348.5 329.08 233.68 343.05 187.78 386.51 169.73 342.06 142.69 355.5 100.45 395.4 96.5 1698.35 530.06"/>
    <polygon class="cls-4" points="1680.23 124.56 388.06 95.95 375.14 116.54 369.26 133.98 370.03 152.23 373.72 165.78 405.15 175.49 370.83 180.72 357.3 248.75 354.17 273.59 365.23 310.6 360.16 389.5 410.36 426.67 357.1 413.99 357.05 438.05 359.66 474.92 355.56 512.31 428 505.72 1669.75 554.87 1698.35 530.06 1698.12 525.69 1692.05 410.46 1695.62 377.84 1591.69 349.27 1557.56 330.12 1592.74 337.63 1624.3 341.1 1693.03 361.77 1680.78 277.08 1696.18 200.44 1697.53 183.22 1693.75 144.62 1680.23 124.56"/>
    <rect class="cls-5" x="785.61" y="317.41" width="169.52" height="169.52" rx="23.76" ry="23.76"/>
    <rect class="cls-5" x="1103.89" y="325.41" width="169.52" height="169.52" rx="23.76" ry="23.76"/>
    <g>
      <path class="cls-3" d="M517.54,157.17c4.56-1.63,7.51-2.67,8.84-3.1,6.82-2.5,12.45-5.97,16.89-10.41,4.44-4.43,7.45-7.88,9.03-10.34l25.31,26.62c-3.55,1.86-9.26,4.32-17.13,7.39-7.87,3.07-15.89,5.12-24.05,6.17-3.82.43-7.74.6-11.76.52-2.49-.05-4.35-.14-5.56-.27.23,3.72.3,7.41.23,11.07-.06,2.75-.15,4.73-.28,5.95l47.94-8.54c-.4,1.98-.91,4.6-1.54,7.87-.63,3.27-1.41,7.65-2.33,13.15-.93,5.5-1.4,8.78-1.43,9.85,0-.2-4.53-1.06-13.6-2.57-9.07-1.51-19.65-3.16-31.71-4.93-2.21,8.55-5.23,16.21-9.06,22.97-3.83,6.76-7.68,12.21-11.56,16.35-3.88,4.14-7.03,7.1-9.46,8.88-2.43,1.78-4.18,2.96-5.26,3.55.44-1.82,1.13-5,2.07-9.53.93-4.53,1.89-10.38,2.88-17.53.99-7.15,1.56-14.24,1.7-21.25.04-1.73.05-3.13.05-4.2,0-1.07-.02-2.21-.04-3.43-3.09-.52-5.69-.95-7.79-1.27-2.1-.32-3.84-.58-5.21-.76s-2.28-.3-2.74-.36l15.39-2.66c-.17-1.83-.52-4.28-1.07-7.35-.78-4.14-2.88-10.79-6.3-19.97-1.67-.29-3.03-.52-4.07-.7-1.04-.17-1.78-.29-2.21-.35-.43-.06-.75-.12-.95-.17.51.01,2.6-.38,6.28-1.17-1.45-3.59-2.83-6.79-4.15-9.59-1.31-2.8-2.27-4.76-2.85-5.9l41.65-17.83c.37,1.74.97,4.9,1.79,9.5.82,4.59,1.51,9.37,2.07,14.31Z"/>
      <path class="cls-3" d="M593.13,191.25c-1.19-6.38-3.39-13.35-6.58-20.89-3.2-7.54-5.75-13.19-7.66-16.95l47.18-15.88c.08.97.2,3.04.37,6.22.16,3.18.28,6.79.35,10.81.07,4.02.06,8.04-.02,12.05-.26,12.61-1.22,22.92-2.86,30.92-2.45,12.67-6.34,23.59-11.67,32.76-5.33,9.17-10.2,15.99-14.62,20.45-4.42,4.46-7.66,7.41-9.72,8.84.44-1.82,1.13-5,2.07-9.53.93-4.53,1.9-10.38,2.88-17.53.99-7.15,1.56-14.24,1.7-21.25.16-7.88-.31-14.55-1.41-20.02Z"/>
      <path class="cls-3" d="M699.31,221.93c-4.74-9.3-9.37-16.45-13.9-21.42-3.43-3.73-6.98-7.04-10.63-9.91-.13,1.27-.42,3.2-.88,5.78-1.88,9.63-4.88,18.52-8.99,26.67-4.11,8.16-8.3,14.85-12.55,20.07-4.26,5.23-7.87,9.17-10.85,11.83-2.98,2.66-5.12,4.43-6.41,5.32.76-2.32,1.89-6.32,3.38-11.99,1.49-5.67,3.03-12.84,4.61-21.53,1.58-8.69,2.45-16.77,2.6-24.25.08-3.92-.16-8.04-.73-12.38-.53-3.67-1.56-7.61-3.07-11.81-1.52-4.2-3.23-8.18-5.13-11.93-2.21-1.16-4.05-2.05-5.51-2.67-1.46-.62-2.47-1.03-3.03-1.25.41-.04.98-.07,1.72-.08.74,0,2.3,0,4.69.06-1.08-2.06-2.19-4.09-3.34-6.1-1.15-2.01-1.95-3.35-2.4-4.02l43.42-15.04c.18.97.49,2.77.92,5.4.43,2.63.86,6.15,1.31,10.56s.74,8.85.9,13.33c11.14,2.27,19.95,5.73,26.41,10.39,2.49-7.22,5.73-13.81,9.72-19.75,3.99-5.95,7.49-10.49,10.51-13.63,3.02-3.14,5.2-5.26,6.54-6.35-1.04,3.54-2.37,9.34-3.99,17.39-1.62,8.05-2.52,16.58-2.71,25.58-.19,9.36.78,17.39,2.93,24.09,4.63,7.37,8.32,14.26,11.09,20.68,3.06,4.44,5.74,8.14,8.05,11.12,2.3,2.97,4,5.11,5.09,6.4l-34.7,21.1c-1.76-3.44-4.24-9.08-7.43-16.9-3.19-7.82-5.74-16.08-7.65-24.77Z"/>
      <path class="cls-3" d="M797.1,230.38c-.06,2.85-.12,5.22-.19,7.13-.07,1.91-.15,4-.25,6.29-.07,3.41-.05,7.34.06,11.79.11,4.45.2,7.49.27,9.12l-37.82-8.57c.24-1.88.79-5.04,1.65-9.5.86-4.46,2-9.45,3.44-14.96-3.6-.48-6.88-1.03-9.85-1.65-2.96-.62-5.03-1.07-6.19-1.35l9.86-30.09c1.21.53,3.4,1.42,6.58,2.65,3.18,1.24,6.61,2.4,10.3,3.5,1.95-3.27,3.79-6,5.51-8.2,5.38-6.6,15.49-14.86,30.35-24.78-2.4-2.08-4.64-3.94-6.71-5.56-2.08-1.62-3.54-2.72-4.4-3.3l40.78-20.06c.84,1.19,2.17,3.17,4,5.96,1.82,2.79,4.09,6.78,6.81,11.97,2.71,5.19,5.23,10.94,7.54,17.25,2.31,6.3,3.69,12.28,4.13,17.94.16,2.24.22,3.95.2,5.12-.17,7.98-1.71,16.57-4.62,25.77-2.91,9.2-5.8,16.96-8.65,23.28-2.85,6.33-4.97,10.8-6.35,13.41.1,0,.19-1.77.26-5.33.09-4.37.03-9.37-.18-15-.21-5.62-.75-11.54-1.61-17.74-.86-6.2-2.06-11.83-3.58-16.9-3.41,2.52-7.25,5.13-11.53,7.81-4.28,2.68-8.99,5.26-14.12,7.72-5.14,2.46-10.37,4.55-15.7,6.27ZM835.86,201.12c-.87-2.15-2-4.36-3.37-6.63-2.5-4.38-6.93-9.45-13.26-15.23-7.16,11.6-12.4,21.13-15.7,28.59,9.18-.98,19.96-3.22,32.34-6.73Z"/>
      <path class="cls-3" d="M896.66,238.55c4.52-1.94,8.7-3.53,12.54-4.77,4.92-1.68,11.83-2.42,20.72-2.24,5.08.11,9.81.42,14.17.94,4.36.52,7.48.96,9.36,1.3l-8.79,33.85c-3.42-2.11-8.31-4.75-14.67-7.94-6.37-3.18-11.61-4.92-15.72-5.21-1.32-.13-3.5-.23-6.56-.29-7.47-.16-15.13-.04-22.97.36-3.28,3.59-6.06,6.35-8.34,8.26-2.28,1.91-3.91,3.21-4.89,3.9.27-.76.75-2.35,1.44-4.78.69-2.43,1.28-4.7,1.78-6.83-3.01.19-4.89.31-5.65.34-.76.04-1.6.08-2.52.14-.92.06-1.53.08-1.83.08.72-.49,2.26-1.49,4.6-2.99,2.34-1.5,4.7-2.92,7.07-4.24,3.58-15.69,5.48-28.83,5.7-39.41.09-4.32-.13-8.45-.66-12.38-.88-6.48-3.22-13.5-7-21.05-3.78-7.56-6.83-13.16-9.15-16.82l43.5-15.04c.64,3.42,1.4,8.99,2.28,16.72.88,7.72,1.23,15.88,1.05,24.48-.13,6.36-.71,12.35-1.75,17.97-2.45,12.31-7.02,24.19-13.71,35.65Z"/>
      <path class="cls-3" d="M1041.1,161.68c.25.11.47.21.64.32.18.11.46.26.87.48,6.15,2.88,13.77,4.41,22.87,4.6,8.29.17,16.15-.46,23.58-1.91s12.79-2.67,16.06-3.67c-1.77,2-5.15,5.01-10.14,9.01-4.99,4-12.26,7.98-21.8,11.94-9.54,3.96-20.27,5.81-32.16,5.56-4.02-.19-8.96-.8-14.84-1.84,1.12,5.03,4.2,9.5,9.26,13.4,7.04-1.02,14.25-1.46,21.62-1.3,6.1.13,11.8.7,17.09,1.73,5.29,1.03,10.15,2.71,14.58,5.07,4.43,2.35,7.96,5.63,10.59,9.82,2.63,4.2,3.89,9.34,3.76,15.43-.05,2.24-.5,4.36-1.35,6.37l7.04,6.39c-1.87,1.95-5.11,4.92-9.72,8.9-4.61,3.98-10.47,7.99-17.57,12.02-7.1,4.03-13.99,6.16-20.66,6.38-1.32.07-3.31.08-5.95.03-15-.31-28.11-3.02-39.32-8.13-11.21-5.11-19.05-9.32-23.5-12.63,1.02.12,3.24.28,6.67.48,3.43.2,6.11.32,8.04.36,9,.19,17.81-.2,26.42-1.16,8.62-.96,16.03-2.85,22.25-5.67,3.85-1.75,8.18-4.25,12.97-7.5,1.12-2.36,1.7-4.86,1.76-7.5.14-6.65-2.82-12.37-8.88-17.17-7.42-.36-14.73-1.02-21.93-1.98-7.2-.96-14.43-2.58-21.68-4.84-7.25-2.26-13.23-5.34-17.93-9.22-4.7-3.89-6.99-8.65-6.87-14.3.1-4.63.97-8.66,2.62-12.12,1.65-3.45,3.89-6.26,6.74-8.44l9.19-16.37c-.2,0,4.01,2.73,12.65,8.2,4.59-.62,9.45-.87,14.59-.76,6.41.13,12.27.63,17.6,1.47,5.32.85,9.12,1.55,11.4,2.11-2.44.1-6.21.61-11.29,1.52-5.08.91-10.16,2.56-15.25,4.95ZM1039.26,202.08c5.28,3.06,11.53,5.46,18.77,7.18-4.67-2.79-10.93-5.19-18.77-7.18Z"/>
      <path class="cls-3" d="M1147.43,210.9c-.05,9.51,2.18,18.06,6.67,25.66s9.77,13.91,15.82,18.95c6.05,5.04,11.38,8.82,15.98,11.36s7.91,4.23,9.93,5.09c-3.66-.08-9.57-.67-17.74-1.78-8.17-1.11-17.74-3.69-28.72-7.73-10.98-4.04-20.52-10.45-28.63-19.21-8.11-8.76-12.02-20.11-11.73-34.05.38-18.25,7.59-31.91,21.65-40.98,14.05-9.07,28.08-14.66,42.09-16.79,14.01-2.12,24.44-3.14,31.31-3.05-2.3.61-6.08,1.99-11.34,4.11-5.26,2.13-11.4,5.6-18.42,10.41-7.02,4.81-13.19,11.25-18.52,19.3s-8.11,17.62-8.34,28.71Z"/>
      <path class="cls-3" d="M1244.75,153.87c-1.81-1.21-3.26-2.14-4.37-2.8-1.11-.66-1.88-1.12-2.34-1.38,1.58.03,3.71.19,6.4.48,2.69.29,5.66.77,8.9,1.44,5.06-1.22,9.67-1.97,13.82-2.27,4.15-.29,7.8-.41,10.96-.34-.87.24-2.5.85-4.88,1.84s-4.87,2.3-7.45,3.93c7.68,2.45,14.68,5.9,21,10.36,6.32,4.46,11.49,10.55,15.53,18.29,4.03,7.74,5.94,17,5.72,27.78-.38,18.3-6.21,32.06-17.49,41.26-11.28,9.2-22.53,14.97-33.74,17.3-11.21,2.33-19.57,3.52-25.06,3.56,1.23-.43,3.23-1.33,6.01-2.7,2.78-1.37,5.95-3.39,9.51-6.06-5.15-1.74-10.08-3.91-14.78-6.53-4.7-2.62-9.28-6.18-13.74-10.7-4.46-4.52-8.08-10.13-10.87-16.82-2.79-6.7-4.16-14.39-4.13-23.09.21-10.27,2.28-19.04,6.19-26.31,3.92-7.27,8.88-13.04,14.9-17.32,6.01-4.27,12.66-7.58,19.93-9.92ZM1255.02,162.86c-3.42,3.18-6.57,6.98-9.43,11.4-2.87,4.42-5.21,9.54-7.04,15.38-1.83,5.84-2.81,12.29-2.96,19.36-.09,11.8,1.5,21.89,4.79,30.28,3.28,8.38,7.28,15.45,12,21.19,6.42-5.56,11.78-12.5,16.08-20.8,4.29-8.3,6.56-18.02,6.79-29.16.06-10.12-1.84-19.16-5.69-27.13-3.85-7.96-8.7-14.8-14.53-20.52Z"/>
      <path class="cls-3" d="M1354.63,157.3c7.25.86,14.13,2.2,20.63,4.02,6.5,1.81,12.49,4.33,17.96,7.55,5.48,3.22,9.87,7.42,13.17,12.6,3.3,5.18,4.88,11.31,4.73,18.37-.23,11.24-10.34,21.25-30.31,30.04,12.59,3.77,21.46,7.75,26.61,11.92,6.4,5.27,11.52,10.57,15.35,15.89,3.83,5.32,6.38,9.21,7.65,11.68l-37.5,8.91c-.14-.67-.49-1.89-1.07-3.68-.57-1.79-1.74-4.49-3.49-8.09-1.76-3.6-4.04-7.59-6.85-11.97-4.64-7.01-10.13-13.26-16.47-18.73-7.88,2.38-15.33,4.36-22.33,5.94-3.21,5.17-6.71,10.25-10.5,15.23-3.79,4.98-6.91,8.91-9.37,11.79-2.45,2.87-4.2,4.88-5.24,6.03.5-2.18,1.27-5.86,2.29-11.05,1.02-5.19,1.99-11.26,2.9-18.21-2.76.4-4.55.66-5.39.76-.84.11-1.49.21-1.95.3.05,0,2.56-.94,7.54-2.82.64-6.19,1.01-12.06,1.13-17.6.16-7.68-.26-14.25-1.27-19.71-1.09-6.13-3.15-13.02-6.17-20.69-3.02-7.67-5.41-13.38-7.16-17.12l25.06-8.94c-2.52-1.12-4.61-1.99-6.28-2.61-1.67-.62-2.83-1.04-3.48-1.26.66-.04,1.87-.08,3.63-.12s3.93-.03,6.52.02c1.93.04,3.58.09,4.96.14,1.37.05,2.9.12,4.57.21l9.46-3.39s.27,1.53.67,4.59ZM1353.78,227.25c-1.21-.64-2.09-1.11-2.64-1.43-.27.61-1.01,2.19-2.24,4.76,2.06-1.23,3.68-2.34,4.88-3.33ZM1358.12,224.06c9.99-8.18,15.15-16.52,15.48-25.01.2-9.76-5.58-18.83-17.36-27.22.37,4.13.63,8,.79,11.61.15,3.62.19,7.2.12,10.76-.18,8.85-1.08,16.28-2.68,22.3-.44,1.72-1.1,3.84-1.96,6.37,3.09.62,4.96,1.02,5.62,1.19Z"/>
      <path class="cls-3" d="M1479.35,210.34l47.95-8.99c-.29,1.82-.77,4.7-1.44,8.63-.67,3.93-1.31,7.9-1.93,11.9-.62,4.01-.94,6.82-.98,8.45,0-.15-2.51-.59-7.53-1.3-5.02-.71-10.15-1.39-15.37-2.04-5.23-.64-12.91-1.58-23.06-2.81-2.66,10.68-6.6,20.24-11.81,28.67,10.88-4.61,19.4-7.17,25.57-7.71,4.33-.42,9.75-.56,16.26-.42,5.44.11,10.19.33,14.26.64,4.06.31,7.56.64,10.51.98,2.94.34,4.95.57,6.01.7l-20.22,32.85c-.59-.73-1.83-1.89-3.7-3.51-1.87-1.61-4.72-3.43-8.55-5.44-3.82-2.01-8.29-3.53-13.41-4.55-3.39-.73-6.55-1.24-9.47-1.53-2.92-.29-6.26-.47-10.02-.55-4.22-.09-9.64.1-16.26.58-3.23,3.49-6.22,6.29-8.99,8.4-2.77,2.11-4.71,3.48-5.85,4.11.22-.71.57-2.12,1.04-4.25.48-2.13.89-4.28,1.24-6.46-3.06.44-5.41.85-7.04,1.23-1.64.37-2.79.66-3.45.84-.15,0,3.58-2.06,11.19-6.18,2.22-11.3,3.44-22.46,3.67-33.49.04-1.83,0-4.58-.13-8.24-2.94-.32-5.59-.61-7.95-.89-2.36-.28-4.11-.48-5.25-.61-1.14-.12-1.94-.22-2.4-.28l15.39-2.81c-.17-1.53-.53-3.93-1.07-7.19-.78-4.14-2.88-10.79-6.3-19.97-1.67-.29-3.03-.52-4.07-.7-1.04-.17-1.77-.29-2.21-.35-.43-.06-.75-.12-.95-.17.51,0,2.6-.38,6.28-1.17-1.45-3.59-2.83-6.79-4.15-9.59-1.31-2.8-2.27-4.76-2.85-5.9l41.61-16c.37,1.58.93,4.32,1.66,8.2.73,3.88,1.43,8.47,2.08,13.78,2.51-.71,5.5-1.74,8.99-3.09,6.82-2.5,12.45-5.97,16.89-10.41,4.44-4.43,7.45-7.88,9.03-10.34l25.31,26.62c-3.55,1.86-9.26,4.32-17.13,7.39-7.87,3.07-15.89,5.12-24.05,6.17-3.82.43-7.74.6-11.76.52-2.49-.05-4.35-.14-5.56-.27.23,3.72.3,7.48.22,11.3-.05,2.39-.14,4.14-.26,5.26Z"/>
    </g>
    <g>
      <path class="cls-2" d="M422.75,125.4c.46,3.46-2.51,6.5-6.64,6.79-4.13.29-7.85-2.28-8.31-5.73s2.51-6.5,6.64-6.79,7.85,2.28,8.31,5.73Z"/>
      <path class="cls-2" d="M401.21,480.11c.46,3.46-2.51,6.5-6.64,6.79-4.13.29-7.85-2.28-8.31-5.73-.46-3.46,2.51-6.5,6.64-6.79,4.13-.29,7.85,2.28,8.31,5.73Z"/>
      <path class="cls-2" d="M1663.99,151.73c.46,3.46-2.51,6.5-6.64,6.79-4.13.29-7.85-2.28-8.31-5.73s2.51-6.5,6.64-6.79,7.85,2.28,8.31,5.73Z"/>
      <path class="cls-2" d="M1667.68,531.07c.46,3.46-2.51,6.5-6.64,6.79-4.13.29-7.85-2.28-8.31-5.73-.46-3.46,2.51-6.5,6.64-6.79,4.13-.29,7.85,2.28,8.31,5.73Z"/>
    </g>
    <path class="cls-3" d="M1005.01,389.55c2.16,1.37,5.47,3.14,9.92,5.32,4.46,2.18,8.74,3.41,12.86,3.7,6.56.14,12.81-.39,18.77-1.59,5.95-1.2,10.26-2.2,12.92-3.01-3.62,2.97-9.11,6.88-16.46,11.75-7.35,4.87-13.94,7.97-19.77,9.32-1.69.37-3.78.53-6.27.48-4.37-.09-8.79-.71-13.24-1.87-4.45-1.16-7.71-2.11-9.78-2.86l11.05-21.23Z"/>
    <g>
      <path class="cls-3" d="M505.02,395.84c-2.64-1.76-4.97-3.56-7.01-5.41-2.03-1.85-3.93-3.98-5.69-6.4-5.28-7.47-8.79-14.73-10.55-21.78s-2.71-12.17-2.86-15.35c.84,1.25,2.43,3.42,4.75,6.51,2.33,3.09,5.41,6.74,9.24,10.93,3.83,4.19,7.98,8.08,12.45,11.67,3.55,2.86,7.64,4.96,12.26,6.32,3.44-4.43,6.72-8.97,9.81-13.62,3.1-4.65,5.58-8.53,7.45-11.64s3.17-5.31,3.9-6.59c-.18,1.17-.58,3.3-1.18,6.4-.6,3.09-1.54,7.14-2.8,12.14-1.26,5-2.78,9.97-4.53,14.91,2.05-.07,3.85-.26,5.39-.55,1.54-.29,2.58-.53,3.13-.71l-12.81,22.52c-.4,0-1.98-.49-4.73-1.48-2.05,3.59-4.31,6.81-6.76,9.67-3.08,3.66-6.87,7.23-11.38,10.71s-8.4,6.23-11.68,8.24c-3.28,2.01-5.65,3.42-7.12,4.23l-15.5-25.65c3.52-.58,8.79-2,15.83-4.26,7.04-2.25,13.54-5.63,19.51-10.13.44-.29.73-.51.88-.66Z"/>
      <path class="cls-3" d="M568.05,350.14c-1.32-.84-2.38-1.49-3.19-1.95-.81-.46-1.37-.78-1.7-.96,1.13,0,2.67.08,4.61.25,1.94.17,4.08.47,6.43.91,3.62-.95,6.93-1.57,9.91-1.84,2.98-.27,5.61-.41,7.88-.41-.62.18-1.79.65-3.49,1.4-1.7.75-3.47,1.73-5.3,2.94,5.57,1.65,10.66,4.03,15.27,7.14,4.61,3.11,8.43,7.42,11.45,12.94,3.02,5.51,4.53,12.15,4.53,19.91,0,13.18-3.99,23.17-11.97,29.96-7.98,6.79-15.99,11.11-24.03,12.96-8.04,1.85-14.03,2.83-17.99,2.94.88-.33,2.31-1.01,4.28-2.03,1.98-1.02,4.23-2.53,6.76-4.5-3.73-1.17-7.31-2.66-10.74-4.48-3.42-1.81-6.77-4.31-10.05-7.5-3.28-3.19-5.97-7.17-8.07-11.95-2.11-4.78-3.21-10.3-3.32-16.56,0-7.4,1.35-13.74,4.06-19.03,2.71-5.29,6.2-9.52,10.46-12.69,4.27-3.17,9-5.65,14.2-7.44ZM575.57,356.46c-2.42,2.34-4.62,5.13-6.62,8.35-2,3.22-3.61,6.95-4.83,11.18-1.23,4.23-1.84,8.89-1.84,13.98.11,8.5,1.41,15.74,3.9,21.72,2.49,5.99,5.47,11.01,8.95,15.08,4.54-4.1,8.29-9.17,11.26-15.21s4.45-13.07,4.45-21.09c-.11-7.29-1.61-13.77-4.5-19.44s-6.48-10.53-10.77-14.56Z"/>
      <path class="cls-3" d="M645.85,420.12c7.46-9.37,12.53-17.43,15.2-24.17.95-2.64,1.71-6.27,2.28-10.9.57-4.63.98-9.51,1.24-14.64.26-5.13.41-9.15.47-12.08.05-2.93.08-5.09.08-6.48l32.6,5.6c-.51,2.49-1.48,6.5-2.91,12.03-1.43,5.53-3.48,11.81-6.17,18.84-2.69,7.03-5.7,12.54-9.03,16.53-4.5,5.46-9.54,10.28-15.12,14.47s-10.74,7.52-15.48,10c-4.74,2.47-8.65,4.29-11.75,5.46-3.09,1.17-5.24,1.94-6.45,2.31.18,0,2.73-2.69,7.63-8.07l-20.53,7.52c-.51-2.45-1.15-6.45-1.92-12-.77-5.55-1.15-11.4-1.15-17.55,0-4.69.35-9.01,1.04-12.96,1.21-7.03,3.22-13.49,6.04-19.39,2.82-5.9,5.78-10.82,8.89-14.78,3.11-3.95,5.66-6.85,7.66-8.68,1.99-1.83,3.45-3.08,4.36-3.74-.51,1.68-1.26,4.58-2.25,8.68-.99,4.1-1.99,9.29-2.99,15.57-1.01,6.28-1.51,12.11-1.51,17.49,0,3.22.24,6.19.71,8.9.84,5.53,3.86,12.87,9.06,22.02Z"/>
    </g>
    <g>
      <path class="cls-3" d="M1364.06,398.53c-.95-4.58-2.64-9.56-5.05-14.94-2.42-5.38-4.34-9.41-5.77-12.08l33.72-12.14c.07.7.19,2.19.36,4.48.17,2.29.3,4.88.41,7.77s.17,5.79.17,8.68c0,9.08-.53,16.51-1.59,22.3-1.57,9.15-4.21,17.07-7.91,23.75-3.7,6.68-7.11,11.66-10.22,14.94-3.11,3.28-5.4,5.45-6.87,6.51.29-1.32.74-3.62,1.35-6.89.6-3.28,1.21-7.5,1.81-12.66.6-5.16.91-10.27.91-15.32,0-5.68-.44-10.47-1.32-14.39Z"/>
      <path class="cls-3" d="M1423.76,423.63c0,2.05,0,3.76-.03,5.14s-.05,2.88-.08,4.53c0,2.45.07,5.28.22,8.49.15,3.21.26,5.39.33,6.56l-27.35-5.6c.14-1.35.49-3.64,1.04-6.87.55-3.22,1.3-6.83,2.25-10.82-2.6-.29-4.97-.64-7.11-1.04-2.14-.4-3.63-.7-4.48-.88l6.65-21.81c.88.37,2.47.97,4.78,1.81,2.31.84,4.8,1.63,7.47,2.36,1.35-2.38,2.64-4.38,3.85-5.99,3.77-4.83,10.93-10.93,21.47-18.29-1.76-1.46-3.4-2.76-4.92-3.9s-2.59-1.9-3.21-2.31l29.06-15.05c.62.84,1.61,2.25,2.97,4.23,1.35,1.98,3.05,4.82,5.08,8.51,2.03,3.7,3.93,7.8,5.68,12.3s2.84,8.79,3.24,12.85c.15,1.61.22,2.84.22,3.68,0,5.75-.98,11.96-2.94,18.62s-3.92,12.29-5.88,16.89c-1.96,4.6-3.41,7.85-4.37,9.75.07,0,.11-1.28.11-3.84,0-3.15-.12-6.75-.36-10.79-.24-4.05-.71-8.29-1.43-12.74-.71-4.45-1.66-8.49-2.83-12.11-2.42,1.87-5.15,3.8-8.18,5.79-3.04,2-6.39,3.92-10.05,5.77-3.66,1.85-7.4,3.43-11.21,4.75ZM1451.22,401.99c-.66-1.54-1.5-3.11-2.53-4.72-1.87-3.11-5.13-6.7-9.78-10.77-4.98,8.46-8.61,15.4-10.88,20.82,6.59-.84,14.32-2.62,23.18-5.33Z"/>
    </g>
  </g>
</svg>