<?xml version="1.0" encoding="UTF-8"?>
<svg id="Calque_1" data-name="Calque 1" xmlns="http://www.w3.org/2000/svg" viewBox="0 0 1749.49 528.91">
  <defs>
    <style>
      .cls-1 {
        opacity: .28;
      }

      .cls-1, .cls-2 {
        fill: #000;
      }

      .cls-1, .cls-2, .cls-3, .cls-4, .cls-5, .cls-6, .cls-7 {
        stroke-width: 0px;
      }

      .cls-3 {
        fill: #c4c1bf;
      }

      .cls-8 {
        opacity: .52;
      }

      .cls-4 {
        fill: #1a1a1a;
      }

      .cls-5 {
        fill: #7c5135;
      }

      .cls-6 {
        fill: #684f3a;
      }

      .cls-7 {
        fill: #bf895a;
      }

      .cls-9 {
        opacity: .36;
      }
    </style>
  </defs>
  <g id="paper">
    <g class="cls-9">
      <polygon class="cls-2" points="444.76 284.14 438.87 281.72 438.49 279.52 444.76 284.14"/>
      <polygon class="cls-2" points="1064.41 358.65 1053.65 393.55 1055.64 433.46 1023.98 420.69 1009.17 417.63 992.83 412.52 1008.15 422.99 1056.15 441.05 1052.98 456.04 1050.67 509.85 1050.58 511.89 1044.7 528.91 1030.75 528.91 697.55 491.98 427.17 449.08 398.75 449.08 406.66 412.79 411.77 393.17 431.55 393.17 411.77 386.02 412.28 364.83 414.65 311.21 423.34 290.53 444.76 284.14 438.49 279.52 424.91 269.53 433.18 250.53 448.35 250.53 448.82 249.93 1060.26 322.66 1065.77 332.61 1065.82 350.72 1064.41 358.65"/>
    </g>
    <polygon class="cls-5" points="1075.2 491.93 1069.32 508.95 1055.36 508.95 722.17 472.01 451.79 429.12 423.37 429.12 431.27 392.83 436.38 373.2 456.17 373.2 436.38 366.05 436.9 344.86 439.26 291.24 447.96 270.56 469.38 264.17 449.52 249.57 457.8 230.56 476.89 230.56 1075.2 491.93"/>
    <polygon class="cls-7" points="1084.88 302.7 473.44 229.97 466.38 238.94 462.81 246.77 462.35 255.29 463.49 261.75 477.96 267.71 461.45 268.56 451.97 299.54 449.36 310.94 452.94 328.64 446.98 365.07 469.11 384.64 444.43 376.3 443.31 387.48 442.89 404.73 439.26 421.92 473.91 422.19 1060.52 502.14 1075.2 491.93 1075.29 489.89 1077.6 436.07 1080.76 421.08 1032.77 403.03 1017.45 392.56 1033.79 397.67 1048.6 400.73 1080.26 413.5 1078.26 373.58 1089.02 338.69 1090.44 330.75 1090.38 312.64 1084.88 302.7"/>
    <g>
      <path class="cls-6" d="M546.78,283.16l9.34-2.36s.12,1.49.21,4.45c6.85,1.5,13.29,3.41,19.33,5.75,6.04,2.33,11.52,5.29,16.45,8.88,4.93,3.58,8.73,8,11.4,13.26,2.67,5.26,3.61,11.26,2.81,18-.77,6.55-4.75,12.14-11.93,16.77-7.18,4.63-15.77,8.25-25.78,10.86-10.01,2.6-20.45,4.59-31.32,5.96-3.78,4.96-7.62,9.54-11.53,13.72-3.91,4.18-7.22,7.59-9.94,10.22-2.72,2.63-4.63,4.44-5.73,5.45.68-2.03,1.75-5.48,3.21-10.35,1.46-4.87,2.95-10.58,4.46-17.14-2.67.13-4.41.21-5.23.23-.81.03-1.45.06-1.89.11.05,0,2.54-.66,7.46-2,1.18-5.86,2.09-11.43,2.71-16.72.86-7.32,1.07-13.64.62-18.96-.48-5.96-1.8-12.74-3.98-20.34-2.18-7.61-3.93-13.28-5.25-17.03l24.78-6.22c-2.31-1.31-4.22-2.33-5.76-3.08-1.53-.75-2.61-1.25-3.21-1.52.63.03,1.79.1,3.47.23,1.68.12,3.75.33,6.23.62,1.84.22,3.41.42,4.72.59,1.31.18,2.76.39,4.35.62ZM556.54,299.29c-.03,3.98-.14,7.7-.32,11.17-.19,3.47-.48,6.9-.88,10.29-1,8.44-2.54,15.46-4.63,21.06-1.31,3.58-3.47,7.9-6.47,12.95,16.17-8.32,24.94-17.61,26.3-27.87,1.1-9.31-3.57-18.51-14-27.61Z"/>
      <path class="cls-6" d="M647.56,377.89c-.32,2.72-.6,4.98-.84,6.8-.24,1.82-.51,3.81-.82,5.99-.38,3.25-.73,7.01-1.04,11.27-.31,4.27-.51,7.18-.59,8.74l-35.35-11.7c.41-1.77,1.22-4.75,2.46-8.93,1.23-4.18,2.79-8.84,4.67-13.98-3.4-.79-6.48-1.62-9.26-2.49-2.77-.87-4.7-1.49-5.79-1.86l12.21-27.84c1.11.62,3.12,1.67,6.04,3.15,2.92,1.48,6.1,2.91,9.52,4.3,2.17-2.94,4.18-5.38,6.03-7.33,5.75-5.81,16.18-12.76,31.3-20.86-2.1-2.21-4.07-4.19-5.9-5.93-1.84-1.74-3.13-2.93-3.89-3.56l40.83-15.39c.69,1.21,1.78,3.23,3.27,6.06,1.48,2.83,3.28,6.85,5.4,12.07,2.11,5.22,3.98,10.94,5.6,17.18,1.62,6.24,2.38,12.08,2.28,17.53-.06,2.16-.15,3.79-.28,4.91-.9,7.61-3.17,15.68-6.8,24.2-3.64,8.52-7.11,15.67-10.42,21.45-3.31,5.78-5.75,9.86-7.31,12.23.1.01.35-1.68.75-5.07.49-4.17.9-8.95,1.21-14.35.32-5.39.35-11.09.1-17.1-.25-6-.87-11.5-1.85-16.48-3.49,2.1-7.41,4.23-11.74,6.39-4.34,2.17-9.08,4.19-14.21,6.07-5.14,1.88-10.33,3.39-15.58,4.54ZM687.32,353.53c-.63-2.14-1.5-4.36-2.61-6.65-1.99-4.41-5.74-9.68-11.26-15.79-7.92,10.42-13.8,19.05-17.66,25.87,8.86-.08,19.37-1.23,31.53-3.43Z"/>
      <path class="cls-6" d="M753.28,307.55l9.34-2.36s.12,1.49.21,4.45c6.85,1.5,13.29,3.41,19.33,5.75,6.04,2.33,11.52,5.29,16.45,8.88,4.93,3.58,8.73,8,11.4,13.26,2.67,5.26,3.61,11.26,2.81,18-.77,6.55-4.75,12.14-11.93,16.77-7.18,4.63-15.77,8.25-25.78,10.86-10.01,2.61-20.45,4.59-31.32,5.96-3.78,4.96-7.62,9.54-11.53,13.72-3.91,4.19-7.22,7.59-9.94,10.22-2.72,2.63-4.63,4.44-5.73,5.44.68-2.03,1.75-5.48,3.21-10.35,1.46-4.87,2.95-10.58,4.46-17.14-2.67.13-4.41.21-5.23.23-.81.03-1.45.06-1.89.11.05,0,2.54-.66,7.46-2,1.18-5.86,2.09-11.43,2.71-16.72.86-7.32,1.07-13.64.62-18.96-.48-5.96-1.8-12.74-3.98-20.35-2.18-7.61-3.93-13.28-5.25-17.03l24.78-6.22c-2.31-1.3-4.22-2.33-5.76-3.08-1.53-.75-2.61-1.25-3.21-1.52.64.03,1.79.1,3.47.23,1.68.12,3.75.33,6.23.62,1.84.22,3.41.42,4.72.59,1.31.18,2.75.39,4.35.62ZM763.04,323.68c-.03,3.98-.14,7.7-.32,11.17-.19,3.47-.48,6.9-.88,10.29-1,8.44-2.54,15.46-4.63,21.06-1.31,3.58-3.47,7.9-6.47,12.95,16.17-8.32,24.94-17.61,26.3-27.87,1.1-9.31-3.57-18.51-14-27.61Z"/>
      <path class="cls-6" d="M857.48,369.57l46.66-4.15c-.45,1.72-1.17,4.42-2.17,8.11-1,3.69-1.98,7.42-2.95,11.19-.96,3.77-1.53,6.43-1.72,7.98.02-.14-2.34-.79-7.07-1.94-4.73-1.15-9.57-2.27-14.5-3.37-4.94-1.1-12.19-2.71-21.78-4.82-3.54,9.96-8.19,18.72-13.95,26.3,10.82-3.39,19.21-5.06,25.15-5,4.18,0,9.37.37,15.58,1.1,5.19.61,9.71,1.26,13.56,1.93,3.85.68,7.17,1.31,9.95,1.91,2.78.6,4.67,1.01,5.68,1.22l-22.37,29.51c-.5-.75-1.57-1.98-3.21-3.7-1.64-1.72-4.2-3.71-7.66-5.99-3.47-2.28-7.6-4.14-12.39-5.59-3.17-1.01-6.14-1.79-8.9-2.34-2.76-.55-5.94-1.03-9.53-1.46-4.03-.48-9.22-.79-15.6-.96-3.41,3.04-6.53,5.44-9.37,7.19-2.84,1.75-4.83,2.88-5.97,3.39.27-.66.74-1.98,1.39-3.97.65-1.99,1.25-4.01,1.79-6.06-2.97.14-5.25.31-6.85.52-1.6.21-2.72.37-3.38.49-.15-.02,3.61-1.64,11.27-4.87,3.17-10.59,5.37-21.15,6.62-31.67.21-1.75.42-4.38.64-7.89-2.78-.57-5.29-1.1-7.52-1.59-2.23-.48-3.88-.84-4.96-1.07-1.08-.23-1.83-.39-2.26-.49l14.97-1.25c-.02-1.48-.14-3.8-.36-6.98-.36-4.02-1.75-10.58-4.17-19.67-1.57-.43-2.85-.78-3.82-1.04s-1.67-.44-2.07-.54c-.41-.1-.71-.18-.89-.25.48.06,2.52-.12,6.11-.53-1.05-3.57-2.08-6.75-3.08-9.55-1-2.8-1.72-4.76-2.18-5.9l41.25-11.43c.21,1.55.49,4.21.83,7.99.34,3.78.58,8.23.71,13.36,2.46-.45,5.42-1.15,8.88-2.12,6.75-1.76,12.45-4.55,17.1-8.38,4.66-3.82,7.85-6.84,9.59-9.04l21.72,27.79c-3.56,1.45-9.25,3.27-17.06,5.47-7.81,2.2-15.66,3.42-23.55,3.67-3.69.06-7.46-.14-11.29-.6-2.38-.28-4.14-.54-5.29-.77-.13,3.58-.41,7.18-.84,10.82-.27,2.28-.51,3.95-.74,5Z"/>
      <path class="cls-6" d="M963.1,333.29c6.85,1.5,13.3,3.42,19.34,5.75,6.04,2.34,11.53,5.3,16.47,8.88,4.93,3.58,8.74,8,11.41,13.26,2.67,5.26,3.61,11.26,2.82,18-1.27,10.72-11.85,19.35-31.75,25.9,11.68,4.77,19.79,9.39,24.32,13.86,5.63,5.63,10.03,11.17,13.2,16.6,3.17,5.44,5.24,9.4,6.23,11.87l-36.66,5.04c-.07-.65-.3-1.85-.68-3.62s-1.24-4.45-2.59-8.05c-1.34-3.6-3.16-7.62-5.43-12.07-3.78-7.13-8.45-13.61-14-19.43-7.75,1.54-15.05,2.75-21.89,3.61-3.55,4.65-7.37,9.17-11.45,13.58-4.09,4.41-7.43,7.88-10.04,10.39-2.61,2.52-4.46,4.28-5.57,5.28.68-2.03,1.75-5.48,3.21-10.35,1.46-4.87,2.95-10.58,4.46-17.14-2.67.13-4.41.21-5.23.23-.82.03-1.45.06-1.89.11.05,0,2.54-.66,7.46-2,1.18-5.86,2.09-11.43,2.71-16.72.86-7.32,1.07-13.64.62-18.96-.48-5.96-1.8-12.74-3.98-20.35-2.18-7.61-3.93-13.28-5.25-17.03l24.78-6.22c-2.31-1.31-4.22-2.33-5.76-3.08-1.54-.75-2.61-1.25-3.21-1.52.63.03,1.79.1,3.48.23,1.68.12,3.76.33,6.23.62,1.84.22,3.42.42,4.72.6,1.31.18,2.76.39,4.35.62l9.35-2.36s.12,1.49.21,4.45ZM955.81,400.06c-1.09-.72-1.89-1.26-2.39-1.61-.31.55-1.17,2-2.58,4.34,2.08-.98,3.74-1.89,4.97-2.73ZM960.25,397.41c10.3-6.9,16.01-14.38,17.11-22.46,1.1-9.31-3.59-18.52-14.07-27.62-.03,3.98-.14,7.7-.32,11.17-.19,3.47-.48,6.9-.88,10.29-1,8.44-2.54,15.46-4.63,21.06-.58,1.6-1.41,3.57-2.47,5.9,2.89.88,4.65,1.43,5.26,1.65Z"/>
    </g>
    <g>
      <ellipse class="cls-3" cx="483.45" cy="244.4" rx="4.81" ry="5.53"/>
      <ellipse class="cls-3" cx="456.47" cy="406.14" rx="4.81" ry="5.53"/>
      <ellipse class="cls-3" cx="1072.72" cy="314.05" rx="4.81" ry="5.53"/>
      <ellipse class="cls-3" cx="1058.94" cy="488.35" rx="4.81" ry="5.53"/>
    </g>
  </g>
  <g id="rock">
    <g class="cls-8">
      <polygon class="cls-4" points="665.75 206.99 660.85 226.69 643.15 236.23 214.21 265.84 29.87 288.31 17.11 277.08 13.15 247.65 10.87 206.99 66.13 191.93 13.79 191.93 9.45 166.52 3.19 154.27 9.45 142.78 114.13 125.52 14.3 131.8 5.36 102.44 5.11 89.93 0 81.5 22.21 75.74 133.79 110.86 665.75 206.99"/>
      <polygon class="cls-4" points="636.13 19.84 22.85 74.99 13.15 86.23 20.81 89.29 17.24 102.06 22.34 131.16 146.94 123.5 22.85 141.37 16.21 147.5 13.15 158.74 18.77 169.97 22.34 191.93 102.51 191.93 23.87 205.71 25.92 235.33 25.92 257.29 35.11 272.1 69.07 265.2 653.49 220.01 665.75 206.99 656.55 151.84 656.55 136.52 609.07 139.59 578.43 145.97 607.53 135.76 661.15 130.4 661.15 122.74 644.3 90.57 640.47 43.08 647.36 46.14 647.36 25.46 636.13 19.84"/>
    </g>
    <polygon class="cls-5" points="686.18 187.15 681.29 206.85 663.59 216.38 234.65 246 50.31 268.47 37.54 257.23 33.59 227.81 31.31 187.15 86.56 172.09 34.22 172.09 29.88 146.68 23.63 134.43 29.88 122.94 134.57 105.68 34.73 111.96 25.8 82.6 25.54 70.09 20.44 61.66 42.64 55.9 154.22 91.02 686.18 187.15"/>
    <polygon class="cls-7" points="656.57 0 43.29 55.15 33.59 66.38 41.25 69.45 37.67 82.21 42.78 111.32 167.37 103.66 43.29 121.53 36.65 127.66 33.59 138.89 39.2 150.13 42.78 172.09 122.95 172.09 44.31 185.87 46.35 215.49 46.35 237.45 55.54 252.26 89.5 245.36 673.93 200.17 686.18 187.15 676.99 132 676.99 116.68 629.5 119.74 598.86 126.13 627.97 115.91 681.59 110.55 681.59 102.89 664.74 70.72 660.91 23.23 667.8 26.3 667.8 5.62 656.57 0"/>
    <g>
      <path class="cls-6" d="M169.83,93.91c7.01-.14,13.73.23,20.15,1.09,6.42.87,12.45,2.47,18.08,4.8,5.63,2.34,10.36,5.75,14.19,10.24,3.82,4.49,6.13,10.11,6.92,16.85,1.26,10.72-7.02,21.58-24.85,32.57,12.47,1.92,21.43,4.53,26.88,7.82,6.78,4.17,12.35,8.53,16.7,13.08,4.35,4.55,7.29,7.92,8.82,10.1l-34.48,13.43c-.22-.61-.72-1.73-1.5-3.36-.78-1.63-2.25-4.04-4.39-7.23-2.15-3.19-4.84-6.68-8.09-10.48-5.33-6.06-11.38-11.27-18.14-15.64-7.18,3.3-14,6.17-20.45,8.6-2.37,5.34-5.03,10.63-7.98,15.87-2.95,5.24-5.4,9.39-7.35,12.44-1.95,3.06-3.35,5.2-4.18,6.43.19-2.14.43-5.74.72-10.82.29-5.07.4-10.97.35-17.7-2.57.74-4.24,1.23-5.03,1.44-.79.22-1.39.4-1.82.55.05,0,2.31-1.23,6.79-3.68-.21-5.97-.63-11.6-1.25-16.89-.86-7.32-2.13-13.51-3.81-18.58-1.85-5.68-4.72-11.97-8.6-18.86-3.88-6.89-6.91-12.01-9.07-15.34l22.65-11.81c-2.54-.73-4.65-1.28-6.32-1.65-1.67-.37-2.83-.61-3.48-.73.62-.12,1.77-.32,3.43-.59,1.66-.27,3.73-.55,6.21-.84,1.84-.22,3.42-.39,4.73-.52,1.31-.13,2.77-.26,4.38-.4l8.54-4.47s.46,1.42,1.24,4.28ZM181.97,156.93c8.42-9.1,12.22-17.71,11.41-25.83-1.1-9.31-7.8-17.17-20.11-23.59.9,3.88,1.66,7.52,2.28,10.94.62,3.42,1.14,6.82,1.54,10.22.99,8.44,1.13,15.63.4,21.56-.2,1.7-.54,3.8-1.03,6.32,3.02.19,4.85.31,5.5.38ZM178.27,160.54c-1.23-.44-2.13-.78-2.7-1.01-.17.61-.67,2.22-1.5,4.82,1.8-1.44,3.2-2.71,4.2-3.81Z"/>
      <path class="cls-6" d="M282.96,79.48c-1.88-.91-3.38-1.6-4.52-2.09-1.14-.48-1.94-.82-2.41-1.01,1.5-.18,3.55-.31,6.15-.39,2.6-.08,5.48-.02,8.65.2,4.65-1.83,8.93-3.15,12.84-3.98,3.91-.83,7.37-1.42,10.37-1.77-.8.34-2.26,1.14-4.4,2.4-2.14,1.26-4.33,2.83-6.56,4.72,7.63,1.31,14.74,3.67,21.33,7.07,6.6,3.4,12.32,8.52,17.18,15.34,4.86,6.83,7.9,15.38,9.11,25.66,2.06,17.46-1.67,31.31-11.18,41.55-9.51,10.24-19.45,17.21-29.8,20.91-10.36,3.7-18.14,5.94-23.36,6.7,1.11-.57,2.9-1.69,5.36-3.36,2.46-1.67,5.21-4.01,8.24-7.02-5.13-.97-10.1-2.39-14.92-4.25-4.82-1.87-9.64-4.65-14.48-8.36-4.84-3.71-9.02-8.56-12.56-14.56-3.54-6-5.86-13.14-6.98-21.41-1.15-9.79-.35-18.41,2.41-25.84,2.76-7.43,6.72-13.57,11.88-18.43,5.16-4.86,11.04-8.88,17.64-12.07ZM293.91,86.67c-2.84,3.48-5.32,7.51-7.46,12.09-2.14,4.58-3.69,9.76-4.66,15.56-.97,5.79-1.05,12.06-.26,18.8,1.47,11.23,4.32,20.62,8.55,28.16,4.23,7.54,8.97,13.73,14.21,18.57,5.37-6.14,9.55-13.44,12.54-21.9,2.99-8.46,3.85-18.01,2.6-28.63-1.28-9.63-4.28-17.98-9-25.05-4.72-7.06-10.22-12.93-16.53-17.6Z"/>
      <path class="cls-6" d="M386.55,124.36c1.21,9.05,4.46,16.89,9.74,23.52,5.28,6.63,11.13,11.94,17.55,15.93,6.42,3.99,11.98,6.89,16.7,8.69,4.71,1.81,8.08,2.98,10.11,3.53-3.49.41-9.19.63-17.11.65-7.91.02-17.36-1.16-28.33-3.56s-20.9-7.22-29.77-14.49c-8.87-7.26-14.09-17.54-15.65-30.83-2.05-17.41,3.01-31.35,15.17-41.83,12.16-10.48,24.77-17.65,37.81-21.53,13.04-3.87,22.83-6.22,29.37-7.04-2.11.89-5.52,2.69-10.24,5.41-4.72,2.72-10.1,6.83-16.14,12.34-6.04,5.51-11.06,12.44-15.07,20.8-4.01,8.36-5.39,17.83-4.14,28.4Z"/>
      <path class="cls-6" d="M499.3,107.32c14.34,4.06,23.93,7.58,28.75,10.55,6.77,4.07,13.54,9.95,20.29,17.63s11.71,13.65,14.87,17.9l-34.48,13.43c-2.08-3.44-5.44-8.64-10.1-15.59-4.65-6.95-9.17-12.9-13.53-17.84-4.88-5.52-11.18-11.22-18.9-17.1-.7.33-1.55.82-2.55,1.48-1.09,5.73-2.97,11.73-5.62,17.99-2.66,6.26-5.61,12.35-8.88,18.27-3.26,5.91-5.91,10.46-7.95,13.62-2.04,3.17-3.52,5.42-4.44,6.75.38-3.48.72-9.11,1.04-16.86.31-7.75.15-16.04-.5-24.87-5.05,2.66-8.45,4.46-10.21,5.41-1.76.94-3.15,1.67-4.17,2.19,1.03-.86,2.89-2.49,5.58-4.9,2.69-2.41,5.42-5,8.19-7.79-.89-7.52-2.22-13.8-3.99-18.85-1.98-5.91-4.98-12.25-9.02-19-4.04-6.75-7.21-11.79-9.52-15.1l41.02-21.13c1.02,3.22,2.44,8.4,4.26,15.54,1.82,7.14,3.24,14.97,4.24,23.51l.51,4.29c.2-.37.52-.88.96-1.55.44-.67.84-1.29,1.22-1.88,2.59-4.29,4.75-9.17,6.46-14.66,1.71-5.49,2.95-10.25,3.7-14.3.75-4.04,1.22-6.92,1.42-8.61l34.91,5.25c-1.86,4.25-5,10.39-9.41,18.4-4.42,8.02-9.46,14.87-15.13,20.55-2.1,2.21-5.11,4.63-9.03,7.26Z"/>
    </g>
    <g id="clou">
      <ellipse class="cls-3" cx="665.75" cy="189.89" rx="4.45" ry="5.53"/>
      <ellipse class="cls-3" cx="633.51" cy="14.55" rx="4.81" ry="5.53"/>
      <ellipse class="cls-3" cx="70.53" cy="236.44" rx="3.53" ry="5.53" transform="translate(-27.17 9.87) rotate(-6.72)"/>
      <ellipse class="cls-3" cx="59" cy="63.85" rx="4" ry="5.53" transform="translate(-7.06 7.34) rotate(-6.72)"/>
    </g>
  </g>
  <g id="scissors">
    <polygon class="cls-1" points="1723.77 193.11 1725.36 206.78 1724.87 220.24 1722.23 240.85 1724.26 261.74 1715.99 274.25 1652.16 274.25 1142.03 297.23 787.38 306.93 779.84 291.18 773.35 272.72 773.35 188.46 828.95 189.66 787.38 183.36 775.9 183.36 787.38 134.33 783.56 75.53 779.84 55.69 808.97 50.69 1710.79 29.14 1719.35 40.6 1723.06 50.32 1722.12 60.52 1719.25 68.11 1697.12 73.68 1720.94 76.45 1728.87 114.42 1730.5 128.29 1721.98 149.03 1723.77 193.11"/>
    <polygon class="cls-5" points="1743.25 245.74 1734.97 258.25 1671.14 258.25 1161.01 281.22 806.36 290.93 798.82 275.17 792.33 256.71 792.33 172.46 847.93 173.66 806.36 167.35 794.89 167.35 806.36 118.33 802.55 59.53 798.82 39.68 827.95 34.69 955.99 162.81 1743.25 245.74"/>
    <polygon class="cls-7" points="827.95 34.69 1729.77 13.14 1738.33 24.59 1742.05 34.32 1741.1 44.52 1738.24 52.11 1716.1 57.67 1739.92 60.45 1747.85 98.42 1749.49 112.29 1740.96 133.02 1742.75 177.11 1744.34 190.78 1743.85 204.23 1741.21 224.85 1743.25 245.74 1692.87 242.36 825.76 275.17 806.36 261.43 813.4 194.55 811.63 176.33 861.63 172.65 896.77 172.63 837.08 164.09 812.5 163.45 824.2 119.94 815.15 77.17 814.59 67.55 818.08 45.96 827.95 34.69"/>
    <g>
      <path class="cls-6" d="M941.2,113.29c.25.09.46.18.63.27.17.09.46.23.86.41,6.04,2.44,13.43,3.51,22.16,3.23,7.95-.26,15.46-1.28,22.51-3.05,7.05-1.77,12.12-3.22,15.21-4.35-1.59,2.01-4.68,5.07-9.26,9.16-4.58,4.1-11.34,8.29-20.29,12.58-8.95,4.29-19.13,6.62-30.55,7-3.86.03-8.63-.3-14.32-1,1.33,4.77,4.52,8.89,9.57,12.37,6.7-1.34,13.59-2.13,20.66-2.37,5.86-.19,11.35.07,16.48.77,5.13.71,9.88,2.08,14.24,4.1,4.37,2.03,7.92,4.98,10.66,8.87,2.74,3.89,4.21,8.75,4.4,14.6.07,2.15-.25,4.2-.97,6.18l7.08,5.76c-1.69,1.97-4.65,4.98-8.86,9.03-4.21,4.06-9.62,8.2-16.22,12.43-6.6,4.23-13.09,6.62-19.48,7.18-1.27.14-3.17.25-5.71.33-14.4.48-27.1-1.45-38.11-5.77-11.01-4.32-18.74-7.95-23.19-10.9.98.07,3.12.11,6.42.12,3.3.01,5.87-.01,7.73-.07,8.64-.29,17.06-1.11,25.27-2.48,8.21-1.37,15.22-3.56,21.03-6.58,3.6-1.87,7.62-4.49,12.05-7.86.95-2.32,1.38-4.75,1.3-7.28-.21-6.38-3.34-11.71-9.4-16-7.13.04-14.18-.22-21.13-.77-6.96-.55-13.97-1.73-21.04-3.52-7.07-1.79-12.96-4.43-17.67-7.92-4.71-3.48-7.15-7.93-7.33-13.35-.15-4.44.48-8.36,1.88-11.75,1.4-3.39,3.41-6.21,6.02-8.44l7.97-16.17c-.2,0,3.99,2.41,12.55,7.21,4.37-.83,9.02-1.32,13.95-1.49,6.15-.2,11.8-.03,16.95.5,5.15.54,8.83,1.02,11.04,1.43-2.34.22-5.92.9-10.74,2.04-4.82,1.14-9.61,2.98-14.36,5.53ZM941.53,152.12c5.22,2.66,11.34,4.63,18.37,5.92-4.62-2.44-10.75-4.41-18.37-5.92Z"/>
      <path class="cls-6" d="M1045.68,154.98c.45,9.12,3.02,17.21,7.73,24.26,4.7,7.05,10.08,12.83,16.14,17.35,6.06,4.52,11.36,7.87,15.91,10.06,4.54,2.19,7.8,3.65,9.78,4.37-3.51.12-9.21-.15-17.1-.79-7.89-.64-17.2-2.62-27.93-5.93-10.73-3.31-20.22-8.96-28.44-16.94-8.23-7.98-12.56-18.66-13-32.03-.58-17.52,5.63-30.99,18.64-40.41,13-9.42,26.16-15.51,39.48-18.27,13.32-2.76,23.27-4.27,29.86-4.54-2.18.71-5.73,2.22-10.66,4.53-4.93,2.31-10.64,5.96-17.12,10.93-6.48,4.98-12.07,11.46-16.76,19.46-4.69,8-6.87,17.31-6.51,27.95Z"/>
      <path class="cls-6" d="M1112.92,145c-1.47-6.06-3.93-12.62-7.39-19.69-3.46-7.07-6.2-12.35-8.22-15.85l44.41-17.66c.13.92.35,2.91.67,5.95.32,3.04.62,6.49.89,10.34.27,3.85.47,7.7.6,11.56.4,12.1.02,22.03-1.14,29.79-1.7,12.27-4.86,22.94-9.5,32.01-4.64,9.07-8.96,15.86-12.96,20.36-4,4.51-6.96,7.5-8.86,8.98.33-1.77.83-4.85,1.49-9.25.66-4.39,1.28-10.05,1.86-16.95.58-6.91.76-13.73.53-20.46-.25-7.56-1.05-13.94-2.39-19.12Z"/>
      <path class="cls-6" d="M1190.38,105.06c.25.09.46.18.63.27.17.09.46.23.86.41,6.04,2.44,13.43,3.51,22.16,3.23,7.95-.26,15.46-1.28,22.51-3.05,7.05-1.77,12.12-3.22,15.21-4.35-1.59,2.01-4.68,5.07-9.26,9.16-4.58,4.1-11.34,8.29-20.29,12.58-8.95,4.29-19.13,6.62-30.55,7-3.86.03-8.63-.3-14.32-1,1.33,4.77,4.52,8.89,9.57,12.37,6.7-1.34,13.58-2.13,20.66-2.37,5.86-.19,11.35.07,16.48.77,5.13.71,9.88,2.08,14.24,4.1,4.37,2.03,7.92,4.98,10.66,8.87,2.74,3.89,4.21,8.75,4.4,14.6.07,2.15-.25,4.2-.97,6.18l7.08,5.76c-1.69,1.97-4.65,4.98-8.86,9.03-4.21,4.05-9.62,8.2-16.22,12.43-6.6,4.23-13.09,6.62-19.48,7.18-1.27.14-3.17.25-5.7.33-14.4.48-27.1-1.45-38.12-5.77-11.01-4.32-18.74-7.95-23.19-10.9.98.07,3.12.11,6.42.12,3.3.01,5.87-.01,7.73-.07,8.64-.29,17.06-1.11,25.27-2.48,8.21-1.37,15.22-3.56,21.04-6.58,3.6-1.87,7.62-4.49,12.05-7.86.95-2.32,1.38-4.75,1.3-7.28-.21-6.38-3.34-11.71-9.4-16-7.13.04-14.18-.22-21.13-.77-6.96-.55-13.97-1.72-21.04-3.52-7.07-1.79-12.96-4.43-17.67-7.92-4.71-3.48-7.15-7.94-7.33-13.35-.15-4.44.48-8.36,1.88-11.75,1.4-3.39,3.41-6.21,6.02-8.44l7.97-16.17c-.2,0,3.99,2.41,12.55,7.21,4.37-.83,9.02-1.32,13.95-1.49,6.15-.2,11.8-.03,16.95.5,5.15.54,8.83,1.02,11.04,1.43-2.34.22-5.92.9-10.74,2.04-4.82,1.14-9.61,2.98-14.36,5.53ZM1190.71,143.89c5.22,2.66,11.34,4.63,18.37,5.92-4.62-2.44-10.75-4.41-18.37-5.92Z"/>
      <path class="cls-6" d="M1302.82,101.35c.25.09.46.18.63.27.17.09.46.23.86.41,6.04,2.44,13.43,3.51,22.16,3.23,7.95-.26,15.46-1.28,22.51-3.05,7.05-1.77,12.12-3.22,15.21-4.35-1.59,2.01-4.68,5.07-9.26,9.16-4.58,4.1-11.34,8.29-20.29,12.57-8.95,4.29-19.13,6.62-30.55,7-3.86.03-8.63-.3-14.32-1,1.33,4.77,4.52,8.89,9.57,12.37,6.7-1.34,13.59-2.13,20.66-2.37,5.86-.19,11.35.07,16.48.77,5.13.71,9.88,2.08,14.24,4.1,4.37,2.03,7.92,4.98,10.66,8.87,2.74,3.89,4.21,8.75,4.4,14.6.07,2.15-.25,4.2-.97,6.18l7.08,5.76c-1.69,1.97-4.65,4.98-8.86,9.03s-9.62,8.2-16.22,12.43c-6.6,4.23-13.09,6.62-19.48,7.18-1.27.14-3.17.25-5.71.33-14.4.48-27.1-1.45-38.11-5.77-11.01-4.32-18.74-7.95-23.19-10.9.98.07,3.12.11,6.42.12,3.3.01,5.87-.01,7.73-.07,8.64-.29,17.06-1.11,25.27-2.48,8.21-1.37,15.22-3.56,21.03-6.58,3.6-1.87,7.62-4.49,12.05-7.86.95-2.32,1.38-4.75,1.3-7.28-.21-6.38-3.34-11.71-9.4-16-7.13.04-14.18-.22-21.13-.77-6.96-.55-13.97-1.73-21.04-3.52-7.07-1.79-12.96-4.43-17.67-7.92-4.71-3.48-7.15-7.94-7.33-13.35-.15-4.44.48-8.36,1.88-11.75,1.4-3.39,3.41-6.21,6.02-8.44l7.97-16.17c-.2,0,3.99,2.41,12.55,7.21,4.37-.83,9.02-1.32,13.95-1.49,6.15-.2,11.8-.03,16.95.5,5.15.54,8.83,1.02,11.04,1.43-2.34.22-5.92.9-10.74,2.04-4.82,1.14-9.61,2.98-14.36,5.53ZM1303.15,140.18c5.22,2.66,11.34,4.63,18.37,5.92-4.62-2.44-10.75-4.41-18.37-5.92Z"/>
      <path class="cls-6" d="M1408.58,86.28c-1.79-1.06-3.24-1.88-4.33-2.46-1.09-.57-1.86-.98-2.31-1.21,1.51-.05,3.56,0,6.16.13,2.59.13,5.46.44,8.61.93,4.79-1.43,9.17-2.39,13.13-2.89,3.96-.5,7.46-.8,10.49-.9-.82.27-2.35.95-4.59,2.02-2.24,1.08-4.55,2.46-6.93,4.15,7.49,1.95,14.38,4.9,20.66,8.84,6.29,3.95,11.56,9.52,15.83,16.74,4.27,7.21,6.58,15.99,6.92,26.34.58,17.57-4.3,31.06-14.64,40.46-10.34,9.4-20.83,15.52-31.46,18.33-10.63,2.82-18.58,4.39-23.84,4.71,1.16-.48,3.03-1.44,5.62-2.9,2.59-1.45,5.52-3.55,8.81-6.3-5.03-1.4-9.87-3.23-14.51-5.49-4.64-2.27-9.22-5.45-13.73-9.55-4.51-4.1-8.27-9.29-11.29-15.57-3.02-6.28-4.74-13.58-5.16-21.92-.33-9.86,1.2-18.37,4.58-25.54,3.38-7.17,7.84-12.96,13.39-17.37,5.54-4.41,11.74-7.92,18.59-10.54ZM1418.89,94.37c-3.12,3.23-5.94,7.04-8.45,11.42-2.52,4.38-4.5,9.42-5.95,15.11-1.45,5.69-2.06,11.93-1.84,18.71.52,11.32,2.57,20.91,6.15,28.78,3.58,7.87,7.78,14.44,12.6,19.7,5.87-5.66,10.65-12.59,14.34-20.77,3.69-8.18,5.35-17.62,5-28.31-.47-9.71-2.75-18.28-6.86-25.72-4.1-7.44-9.1-13.74-14.99-18.93Z"/>
      <path class="cls-6" d="M1514.1,83.9c7,.45,13.66,1.38,19.99,2.78s12.2,3.51,17.61,6.31c5.42,2.8,9.84,6.6,13.27,11.4,3.43,4.8,5.26,10.59,5.48,17.37.36,10.79-8.81,20.91-27.5,30.37,12.26,2.97,20.97,6.32,26.13,10.06,6.41,4.72,11.59,9.54,15.54,14.44,3.95,4.9,6.59,8.5,7.94,10.8l-35.49,10.48c-.17-.63-.57-1.79-1.21-3.48s-1.9-4.21-3.77-7.57c-1.87-3.36-4.26-7.06-7.18-11.12-4.81-6.48-10.39-12.19-16.76-17.11-7.43,2.69-14.47,4.97-21.1,6.85-2.81,5.13-5.91,10.17-9.28,15.15-3.38,4.97-6.17,8.9-8.37,11.78-2.2,2.88-3.77,4.9-4.71,6.06.37-2.11.91-5.68,1.62-10.72.71-5.03,1.33-10.9,1.84-17.61-2.62.53-4.33.86-5.13,1.01-.8.15-1.42.28-1.86.39.05,0,2.41-1.03,7.08-3.09.29-5.97.35-11.61.17-16.93-.24-7.37-.99-13.65-2.23-18.83-1.36-5.82-3.69-12.32-6.98-19.52-3.29-7.19-5.87-12.54-7.75-16.05l23.56-9.86c-2.47-.94-4.53-1.67-6.15-2.18-1.63-.51-2.77-.85-3.4-1.02.63-.07,1.79-.17,3.47-.3,1.68-.13,3.77-.23,6.25-.32,1.85-.06,3.44-.1,4.76-.12,1.32-.02,2.78-.03,4.4-.04l8.89-3.74s.34,1.45.88,4.37ZM1516.9,151c-1.19-.55-2.06-.96-2.61-1.23-.23.59-.86,2.15-1.9,4.68,1.91-1.28,3.41-2.43,4.5-3.45ZM1520.9,147.72c9.15-8.36,13.67-16.62,13.54-24.78-.31-9.37-6.33-17.77-18.05-25.2.57,3.94,1.02,7.64,1.36,11.09.33,3.46.56,6.9.67,10.31.28,8.49-.19,15.67-1.41,21.52-.34,1.67-.85,3.74-1.55,6.21,3,.44,4.81.72,5.45.85Z"/>
      <path class="cls-6" d="M1634.72,90.39c.25.09.46.18.63.27.17.09.46.23.86.41,6.04,2.44,13.43,3.51,22.16,3.23,7.95-.26,15.46-1.28,22.51-3.05,7.05-1.77,12.12-3.22,15.21-4.35-1.59,2.01-4.68,5.07-9.26,9.16s-11.34,8.29-20.29,12.57c-8.95,4.29-19.13,6.62-30.55,7-3.86.03-8.63-.3-14.32-1,1.33,4.77,4.52,8.89,9.57,12.37,6.7-1.34,13.58-2.13,20.66-2.37,5.86-.19,11.35.06,16.48.77,5.13.71,9.88,2.08,14.24,4.1,4.37,2.03,7.92,4.98,10.66,8.87,2.74,3.89,4.21,8.75,4.4,14.6.07,2.15-.25,4.21-.97,6.18l7.08,5.76c-1.69,1.97-4.65,4.98-8.86,9.03-4.21,4.06-9.62,8.2-16.22,12.43-6.6,4.23-13.09,6.62-19.48,7.18-1.27.14-3.17.25-5.71.33-14.4.48-27.1-1.45-38.11-5.77-11.01-4.32-18.74-7.95-23.19-10.9.98.07,3.12.11,6.42.12,3.3.01,5.87-.01,7.73-.07,8.64-.29,17.06-1.11,25.27-2.48,8.21-1.37,15.22-3.56,21.04-6.58,3.6-1.87,7.62-4.49,12.05-7.86.95-2.32,1.38-4.75,1.3-7.28-.21-6.38-3.34-11.71-9.4-16-7.13.04-14.18-.22-21.13-.77-6.96-.55-13.97-1.72-21.04-3.52-7.07-1.79-12.96-4.43-17.67-7.92-4.71-3.48-7.15-7.93-7.33-13.35-.15-4.44.48-8.36,1.88-11.75,1.4-3.39,3.41-6.21,6.02-8.44l7.97-16.17c-.2,0,3.99,2.41,12.55,7.21,4.37-.83,9.02-1.32,13.95-1.49,6.15-.2,11.8-.03,16.94.5,5.15.54,8.83,1.02,11.04,1.43-2.34.22-5.92.9-10.74,2.04-4.82,1.14-9.61,2.98-14.36,5.53ZM1635.05,129.22c5.22,2.66,11.34,4.63,18.37,5.92-4.62-2.44-10.75-4.41-18.37-5.92Z"/>
    </g>
    <g id="clou-2" data-name="clou">
      <ellipse class="cls-3" cx="825.32" cy="260.61" rx="4.81" ry="5.53"/>
      <ellipse class="cls-3" cx="835.02" cy="50.37" rx="4.81" ry="5.53"/>
      <ellipse class="cls-3" cx="1713.7" cy="29.14" rx="4.81" ry="5.53"/>
      <ellipse class="cls-3" cx="1713.7" cy="225.03" rx="4.81" ry="5.53"/>
    </g>
  </g>
</svg>