<?xml version="1.0" encoding="UTF-8"?>
<svg xmlns="http://www.w3.org/2000/svg" xmlns:xlink="http://www.w3.org/1999/xlink" viewBox="0 0 2000 2000">
  <defs>
    <style>
      .cls-1 {
        fill: #f2cf66;
      }

      .cls-1, .cls-2 {
        font-family: Karate, Karate;
        font-size: 250px;
      }

      .cls-3 {
        fill: url(#Dégradé_sans_nom_89-2);
      }

      .cls-3, .cls-4, .cls-5, .cls-6, .cls-7, .cls-8, .cls-9, .cls-10, .cls-11, .cls-12, .cls-13, .cls-14, .cls-15, .cls-16, .cls-17, .cls-18, .cls-19, .cls-20 {
        stroke-width: 0px;
      }

      .cls-2 {
        fill: #d9a84e;
      }

      .cls-4 {
        fill: url(#Dégradé_sans_nom_89-3);
      }

      .cls-5 {
        fill: url(#Dégradé_sans_nom_89);
      }

      .cls-6 {
        fill: url(#Dégradé_sans_nom_89-4);
      }

      .cls-7 {
        fill: none;
      }

      .cls-8 {
        fill: url(#Dégradé_sans_nom_70-4);
      }

      .cls-9 {
        fill: #f4ddab;
      }

      .cls-10 {
        fill: url(#Dégradé_sans_nom_70-3);
      }

      .cls-11 {
        fill: #29677f;
      }

      .cls-12 {
        fill: url(#Dégradé_sans_nom_89-5);
      }

      .cls-13 {
        fill: #4abcf4;
      }

      .cls-14 {
        fill: url(#Dégradé_sans_nom_70-6);
      }

      .cls-15 {
        fill: url(#Dégradé_sans_nom_70-2);
      }

      .cls-16 {
        fill: #255b68;
      }

      .cls-17 {
        fill: url(#Dégradé_sans_nom_70);
      }

      .cls-18 {
        fill: #fff6bf;
      }

      .cls-19 {
        fill: url(#Dégradé_sans_nom_89-6);
      }

      .cls-20 {
        fill: url(#Dégradé_sans_nom_70-5);
      }
    </style>
    <linearGradient id="Dégradé_sans_nom_89" data-name="Dégradé sans nom 89" x1="370.61" y1="1659.98" x2="1963.67" y2="1659.98" gradientUnits="userSpaceOnUse">
      <stop offset=".17" stop-color="#8c5e26"/>
      <stop offset=".32" stop-color="#f2cf66"/>
      <stop offset=".48" stop-color="#8c5e26"/>
      <stop offset=".66" stop-color="#8c5e26"/>
      <stop offset=".79" stop-color="#f2cf66"/>
      <stop offset=".88" stop-color="#8c5e26"/>
    </linearGradient>
    <linearGradient id="Dégradé_sans_nom_70" data-name="Dégradé sans nom 70" x1="370.6" y1="1578.28" x2="1962.98" y2="1578.28" gradientUnits="userSpaceOnUse">
      <stop offset="0" stop-color="#d9a84e"/>
      <stop offset=".52" stop-color="#f2cf66"/>
      <stop offset=".88" stop-color="#d9a84e"/>
    </linearGradient>
    <linearGradient id="Dégradé_sans_nom_89-2" data-name="Dégradé sans nom 89" x1="485.01" y1="1577.29" x2="1849.27" y2="1577.29" xlink:href="#Dégradé_sans_nom_89"/>
    <linearGradient id="Dégradé_sans_nom_70-2" data-name="Dégradé sans nom 70" x1="485" y1="1507.33" x2="1848.67" y2="1507.33" xlink:href="#Dégradé_sans_nom_70"/>
    <linearGradient id="Dégradé_sans_nom_89-3" data-name="Dégradé sans nom 89" x1="581.04" y1="1496.88" x2="1753.22" y2="1496.88" xlink:href="#Dégradé_sans_nom_89"/>
    <linearGradient id="Dégradé_sans_nom_70-3" data-name="Dégradé sans nom 70" x1="581.03" y1="1436.77" x2="1752.71" y2="1436.77" xlink:href="#Dégradé_sans_nom_70"/>
    <linearGradient id="Dégradé_sans_nom_89-4" data-name="Dégradé sans nom 89" x1="1353.12" y1="1282.55" x2="1949.06" y2="1282.55" xlink:href="#Dégradé_sans_nom_89"/>
    <linearGradient id="Dégradé_sans_nom_70-4" data-name="Dégradé sans nom 70" x1="1353.11" y1="1251.99" x2="1948.8" y2="1251.99" xlink:href="#Dégradé_sans_nom_70"/>
    <linearGradient id="Dégradé_sans_nom_89-5" data-name="Dégradé sans nom 89" x1="1395.91" y1="1251.62" x2="1906.26" y2="1251.62" xlink:href="#Dégradé_sans_nom_89"/>
    <linearGradient id="Dégradé_sans_nom_70-5" data-name="Dégradé sans nom 70" x1="1395.91" y1="1225.45" x2="1906.04" y2="1225.45" xlink:href="#Dégradé_sans_nom_70"/>
    <linearGradient id="Dégradé_sans_nom_89-6" data-name="Dégradé sans nom 89" x1="1431.83" y1="1221.54" x2="1870.33" y2="1221.54" xlink:href="#Dégradé_sans_nom_89"/>
    <linearGradient id="Dégradé_sans_nom_70-6" data-name="Dégradé sans nom 70" x1="1431.83" y1="1199.05" x2="1870.14" y2="1199.05" xlink:href="#Dégradé_sans_nom_70"/>
  </defs>
  <g id="Calque_1" data-name="Calque 1">
    <rect class="cls-18" x="-164.93" y="610.47" width="2308.09" height="1438.72"/>
    <polygon class="cls-9" points="-69.95 810.39 -69.95 882.02 428.43 1555.29 1947.07 1587.58 -69.95 810.39"/>
    <g>
      <g>
        <path class="cls-5" d="M1963.67,1644.87c0,53.46-356.46,96.81-796.18,96.81s-796.2-43.35-796.2-96.81l-.68-65.97c.6,11.52,17.74,22.56,48.67,32.78,111.89,37.01,404.34,63.4,747.51,63.4s636.81-26.5,748.19-63.62c31.06-10.35,48-21.53,48-33.19l.68,65.97v.63Z"/>
        <path class="cls-17" d="M1962.98,1578.27c0,11.66-16.93,22.84-48,33.19-111.37,37.12-404.33,63.62-748.19,63.62s-635.62-26.4-747.51-63.4c-30.93-10.22-48.07-21.26-48.67-32.78v-.63c-.01-53.45,356.45-96.8,796.18-96.8s796.18,43.35,796.18,96.8Z"/>
      </g>
      <g>
        <path class="cls-3" d="M1849.27,1564.35c0,45.79-305.27,82.91-681.83,82.91s-681.84-37.12-681.84-82.91l-.58-56.49c.52,9.86,15.19,19.32,41.68,28.07,95.82,31.69,346.27,54.3,640.15,54.3s545.35-22.7,640.73-54.48c26.6-8.86,41.1-18.44,41.1-28.42l.58,56.49v.54Z"/>
        <path class="cls-15" d="M1848.67,1507.32c0,9.98-14.5,19.56-41.1,28.42-95.38,31.79-346.26,54.48-640.73,54.48s-544.33-22.61-640.15-54.3c-26.49-8.75-41.17-18.21-41.68-28.07v-.54c-.01-45.78,305.26-82.9,681.83-82.9s681.83,37.12,681.83,82.9Z"/>
      </g>
      <g>
        <path class="cls-4" d="M1753.22,1485.76c0,39.34-262.29,71.23-585.84,71.23s-585.85-31.89-585.85-71.23l-.5-48.54c.44,8.47,13.05,16.6,35.81,24.12,82.33,27.23,297.52,46.65,550.02,46.65s468.57-19.5,550.52-46.81c22.86-7.62,35.32-15.84,35.32-24.42l.5,48.54v.46Z"/>
        <path class="cls-10" d="M1752.71,1436.76c0,8.58-12.46,16.8-35.32,24.42-81.95,27.31-297.51,46.81-550.52,46.81s-467.69-19.42-550.02-46.65c-22.76-7.52-35.37-15.65-35.81-24.12v-.46c0-39.33,262.28-71.22,585.84-71.22s585.84,31.89,585.84,71.22Z"/>
      </g>
    </g>
    <rect class="cls-13" x="-99.57" y="-49.2" width="2128.34" height="680.17"/>
    <line class="cls-7" x1="562.74" y1="1494.44" x2="562.73" y2="1493.95"/>
    <text class="cls-2" transform="translate(429.43 426.83)"><tspan x="0" y="0">YOU WIN !</tspan></text>
    <text class="cls-1" transform="translate(428.43 405.84)"><tspan x="0" y="0">YOU WIN !</tspan></text>
  </g>
  <g id="Calque_2" data-name="Calque 2">
    <rect class="cls-18" x="-75.77" y="596.83" width="2308.09" height="1438.72"/>
    <polygon class="cls-9" points="1465.51 1288.2 1863.81 1268.23 1254.11 2012.74 -20.45 2000.49 -29.64 1574.62 1465.51 1288.2"/>
    <g>
      <g>
        <path class="cls-6" d="M1949.06,1276.9c0,20-133.35,36.22-297.84,36.22s-297.85-16.22-297.85-36.22l-.25-24.68c.23,4.31,6.64,8.44,18.21,12.26,41.86,13.84,151.26,23.72,279.64,23.72s238.23-9.91,279.89-23.8c11.62-3.87,17.95-8.05,17.95-12.42l.25,24.68v.23Z"/>
        <path class="cls-8" d="M1948.8,1251.99c0,4.36-6.33,8.54-17.95,12.42-41.66,13.89-151.26,23.8-279.89,23.8s-237.78-9.88-279.64-23.72c-11.57-3.82-17.98-7.95-18.21-12.26v-.23c0-20,133.34-36.21,297.84-36.21s297.84,16.22,297.84,36.21Z"/>
      </g>
      <g>
        <path class="cls-12" d="M1906.26,1246.78c0,17.13-114.2,31.01-255.07,31.01s-255.07-13.89-255.07-31.01l-.22-21.13c.19,3.69,5.68,7.23,15.59,10.5,35.84,11.86,129.54,20.31,239.47,20.31s204.01-8.49,239.69-20.38c9.95-3.32,15.38-6.9,15.38-10.63l.22,21.13v.2Z"/>
        <path class="cls-20" d="M1906.04,1225.45c0,3.73-5.42,7.32-15.38,10.63-35.68,11.89-129.53,20.38-239.69,20.38s-203.63-8.46-239.47-20.31c-9.91-3.27-15.4-6.81-15.59-10.5v-.2c0-17.12,114.19-31.01,255.07-31.01s255.07,13.89,255.07,31.01Z"/>
      </g>
      <g>
        <path class="cls-19" d="M1870.33,1217.38c0,14.72-98.12,26.65-219.15,26.65s-219.16-11.93-219.16-26.65l-.19-18.16c.17,3.17,4.88,6.21,13.4,9.02,30.8,10.19,111.3,17.45,205.76,17.45s175.29-7.29,205.94-17.51c8.55-2.85,13.21-5.93,13.21-9.14l.19,18.16v.17Z"/>
        <path class="cls-14" d="M1870.14,1199.05c0,3.21-4.66,6.29-13.21,9.14-30.66,10.22-111.29,17.51-205.94,17.51s-174.96-7.27-205.76-17.45c-8.51-2.81-13.23-5.85-13.4-9.02v-.17c0-14.71,98.12-26.64,219.15-26.64s219.15,11.93,219.15,26.64Z"/>
      </g>
    </g>
    <rect class="cls-13" x="-10.4" y="-62.83" width="2128.34" height="680.17"/>
    <line class="cls-7" x1="651.9" y1="1480.8" x2="651.89" y2="1480.31"/>
    <g>
      <path class="cls-16" d="M356.86,324.48c-5.86-3.91-11.06-7.91-15.58-12.02-4.52-4.11-8.73-8.85-12.64-14.22-11.73-16.6-19.55-32.73-23.46-48.4-3.91-15.67-6.03-27.04-6.35-34.12,1.87,2.77,5.39,7.59,10.57,14.47,5.17,6.88,12.01,14.97,20.52,24.29,8.51,9.32,17.74,17.97,27.67,25.94,7.9,6.35,16.98,11.03,27.24,14.04,7.66-9.85,14.92-19.94,21.81-30.27,6.88-10.33,12.4-18.96,16.55-25.88,4.15-6.92,7.05-11.8,8.67-14.65-.41,2.61-1.28,7.35-2.63,14.22-1.34,6.88-3.42,15.87-6.23,26.98-2.81,11.11-6.17,22.16-10.08,33.14,4.56-.16,8.55-.57,11.97-1.22,3.42-.65,5.74-1.18,6.96-1.59l-28.46,50.05c-.9,0-4.4-1.1-10.51-3.3-4.56,7.98-9.57,15.14-15.03,21.48-6.84,8.14-15.27,16.07-25.29,23.8-10.02,7.73-18.67,13.84-25.96,18.31-7.29,4.48-12.56,7.61-15.82,9.4l-34.45-57.01c7.82-1.3,19.55-4.46,35.18-9.46,15.64-5,30.09-12.51,43.37-22.52.98-.65,1.63-1.14,1.96-1.46Z"/>
      <path class="cls-16" d="M496.93,222.91c-2.93-1.87-5.29-3.31-7.08-4.33-1.79-1.02-3.05-1.73-3.78-2.14,2.52,0,5.94.18,10.25.55,4.31.37,9.07,1.04,14.28,2.01,8.06-2.12,15.4-3.48,22.03-4.09,6.63-.61,12.47-.92,17.52-.92-1.38.41-3.97,1.45-7.75,3.11-3.79,1.67-7.71,3.85-11.78,6.53,12.37,3.66,23.68,8.95,33.94,15.87,10.25,6.92,18.74,16.5,25.45,28.75,6.71,12.25,10.07,27,10.07,44.25,0,29.3-8.87,51.49-26.61,66.59-17.74,15.1-35.54,24.7-53.41,28.81-17.86,4.11-31.19,6.29-39.98,6.53,1.95-.73,5.13-2.24,9.52-4.52,4.39-2.28,9.4-5.62,15.01-10.01-8.3-2.6-16.26-5.92-23.87-9.95s-15.06-9.58-22.34-16.66c-7.28-7.08-13.27-15.93-17.95-26.55s-7.14-22.89-7.38-36.8c0-16.44,3.01-30.54,9.03-42.3,6.02-11.76,13.77-21.16,23.25-28.2,9.48-7.04,20-12.55,31.56-16.54ZM513.66,236.95c-5.37,5.21-10.27,11.39-14.71,18.55-4.44,7.16-8.02,15.44-10.74,24.84-2.73,9.4-4.09,19.76-4.09,31.07.24,18.88,3.13,34.97,8.67,48.28,5.53,13.31,12.17,24.48,19.9,33.51,10.09-9.11,18.43-20.39,25.02-33.81s9.89-29.05,9.89-46.88c-.24-16.19-3.58-30.6-10.01-43.21-6.43-12.61-14.4-23.4-23.93-32.35Z"/>
      <path class="cls-16" d="M669.86,378.43c16.59-20.83,27.85-38.74,33.79-53.71,2.11-5.86,3.8-13.94,5.06-24.23,1.26-10.29,2.18-21.14,2.75-32.53.57-11.39.92-20.34,1.04-26.86.12-6.51.18-11.31.18-14.4l72.46,12.45c-1.14,5.54-3.29,14.45-6.47,26.73-3.17,12.29-7.75,26.25-13.72,41.87s-12.67,27.87-20.07,36.74c-10,12.13-21.21,22.85-33.61,32.17-12.4,9.32-23.87,16.72-34.4,22.22s-19.23,9.54-26.1,12.15c-6.87,2.61-11.65,4.31-14.33,5.13.41,0,6.06-5.98,16.96-17.94l-45.62,16.72c-1.14-5.45-2.56-14.34-4.27-26.67s-2.56-25.33-2.56-39c0-10.42.77-20.02,2.32-28.81,2.68-15.62,7.16-29.99,13.42-43.09,6.26-13.1,12.85-24.05,19.76-32.84,6.91-8.79,12.58-15.22,17.02-19.29,4.43-4.07,7.67-6.84,9.7-8.3-1.14,3.74-2.81,10.17-5,19.29-2.2,9.12-4.41,20.65-6.65,34.61-2.24,13.96-3.35,26.92-3.35,38.88,0,7.16.53,13.75,1.58,19.78,1.87,12.29,8.58,28.61,20.13,48.95Z"/>
      <path class="cls-16" d="M903.43,370.01c7.16-3.25,13.79-5.94,19.9-8.06,7.81-2.85,18.84-4.27,33.08-4.27,8.14,0,15.71.35,22.71,1.04,7,.69,12,1.28,15.01,1.77l-12.94,54.44c-5.54-3.25-13.45-7.32-23.74-12.21-10.3-4.88-18.74-7.49-25.33-7.81-2.12-.16-5.62-.24-10.5-.24-11.96,0-24.21.45-36.74,1.34-5.13,5.86-9.48,10.36-13.06,13.49-3.58,3.13-6.15,5.27-7.69,6.41.41-1.22,1.12-3.78,2.14-7.69s1.89-7.57,2.62-10.99c-4.8.41-7.81.65-9.03.73-1.22.08-2.56.18-4.03.31s-2.44.18-2.93.18c1.14-.81,3.56-2.46,7.26-4.94,3.7-2.48,7.43-4.82,11.17-7.02,5.21-25.23,7.81-46.3,7.81-63.23,0-6.92-.49-13.51-1.46-19.78-1.63-10.33-5.6-21.48-11.9-33.45s-11.37-20.83-15.2-26.61l69.09-25.51c1.14,5.45,2.54,14.34,4.21,26.67s2.5,25.37,2.5,39.12c0,10.17-.73,19.78-2.2,28.81-3.5,19.78-10.42,38.94-20.75,57.5Z"/>
      <path class="cls-16" d="M1058.94,222.91c-2.93-1.87-5.29-3.31-7.08-4.33-1.79-1.02-3.05-1.73-3.78-2.14,2.52,0,5.94.18,10.25.55,4.31.37,9.07,1.04,14.28,2.01,8.06-2.12,15.4-3.48,22.03-4.09,6.63-.61,12.47-.92,17.52-.92-1.38.41-3.97,1.45-7.75,3.11-3.79,1.67-7.71,3.85-11.78,6.53,12.37,3.66,23.68,8.95,33.94,15.87,10.25,6.92,18.74,16.5,25.45,28.75,6.71,12.25,10.07,27,10.07,44.25,0,29.3-8.87,51.49-26.61,66.59-17.74,15.1-35.54,24.7-53.41,28.81-17.86,4.11-31.19,6.29-39.98,6.53,1.95-.73,5.13-2.24,9.52-4.52,4.39-2.28,9.4-5.62,15.01-10.01-8.3-2.6-16.26-5.92-23.87-9.95s-15.06-9.58-22.34-16.66c-7.28-7.08-13.27-15.93-17.95-26.55s-7.14-22.89-7.38-36.8c0-16.44,3.01-30.54,9.03-42.3,6.02-11.76,13.77-21.16,23.25-28.2,9.48-7.04,20-12.55,31.56-16.54ZM1075.67,236.95c-5.37,5.21-10.27,11.39-14.71,18.55-4.44,7.16-8.02,15.44-10.74,24.84-2.73,9.4-4.09,19.76-4.09,31.07.24,18.88,3.13,34.97,8.67,48.28,5.53,13.31,12.17,24.48,19.9,33.51,10.09-9.11,18.43-20.39,25.02-33.81s9.89-29.05,9.89-46.88c-.24-16.19-3.58-30.6-10.01-43.21-6.43-12.61-14.4-23.4-23.93-32.35Z"/>
      <path class="cls-16" d="M1237.41,242.2c.41.16.75.33,1.04.49.28.16.75.41,1.4.73,9.93,4.39,22.17,6.59,36.74,6.59,13.26,0,25.82-1.28,37.66-3.85,11.84-2.56,20.37-4.7,25.57-6.41-2.77,3.27-8.08,8.18-15.93,14.75-7.85,6.57-19.35,13.18-34.49,19.83s-32.23,9.98-51.27,9.98c-6.43-.16-14.36-.98-23.8-2.45,1.95,8.02,7.04,15.06,15.26,21.13,11.23-1.87,22.75-2.81,34.55-2.81,9.77,0,18.9.73,27.4,2.2s16.34,4,23.5,7.62c7.16,3.62,12.92,8.74,17.27,15.36,4.35,6.62,6.53,14.81,6.53,24.57,0,3.58-.65,6.99-1.95,10.24l11.47,9.99c-2.93,3.18-8.02,8.03-15.26,14.56-7.24,6.52-16.48,13.13-27.71,19.82s-22.18,10.31-32.84,10.89c-2.12.16-5.29.24-9.52.24-24.01,0-45.06-3.9-63.17-11.7-18.11-7.8-30.78-14.28-38.03-19.42,1.63.16,5.19.35,10.68.55,5.49.2,9.78.31,12.88.31,14.4,0,28.48-.91,42.24-2.74,13.75-1.83,25.55-5.1,35.4-9.81,6.1-2.92,12.94-7.07,20.51-12.43,1.71-3.82,2.56-7.84,2.56-12.06,0-10.64-4.92-19.7-14.77-27.17-11.88-.32-23.6-1.14-35.16-2.44-11.56-1.3-23.17-3.64-34.85-7.02-11.68-3.38-21.34-8.1-28.99-14.16-7.65-6.06-11.47-13.61-11.47-22.64,0-7.4,1.26-13.9,3.78-19.47,2.52-5.57,6.02-10.15,10.5-13.73l14.16-26.49c-.33,0,6.51,4.23,20.51,12.7,7.32-1.14,15.09-1.71,23.32-1.71,10.25,0,19.65.59,28.2,1.77,8.54,1.18,14.65,2.18,18.31,2.99-3.91.24-9.91,1.18-18,2.81-8.1,1.63-16.17,4.44-24.23,8.42ZM1235.82,306.9c8.54,4.72,18.63,8.34,30.27,10.86-7.57-4.31-17.66-7.93-30.27-10.86Z"/>
      <path class="cls-16" d="M1425.64,305.43l76.42-15.99c-.41,2.93-1.08,7.55-2.01,13.85-.94,6.31-1.83,12.68-2.69,19.1-.85,6.43-1.28,10.95-1.28,13.55,0-.24-4.03-.85-12.08-1.83s-16.28-1.89-24.66-2.75c-8.38-.85-20.71-2.09-36.99-3.72-3.91,17.17-9.89,32.59-17.94,46.26,17.25-7.73,30.8-12.12,40.65-13.18,6.92-.81,15.58-1.22,26-1.22,8.71,0,16.32.18,22.83.55,6.51.37,12.12.77,16.85,1.22,4.72.45,7.93.75,9.64.92l-31.25,53.22c-.98-1.14-2.99-2.97-6.04-5.49-3.05-2.52-7.67-5.33-13.86-8.42-6.19-3.09-13.39-5.37-21.61-6.84-5.45-1.06-10.52-1.77-15.2-2.14s-10.03-.55-16.05-.55c-6.76,0-15.42.49-26,1.46-5.05,5.7-9.75,10.27-14.1,13.73-4.35,3.46-7.43,5.72-9.22,6.77.32-1.14.83-3.42,1.53-6.84.69-3.42,1.28-6.88,1.77-10.38-4.88.81-8.63,1.55-11.23,2.2-2.61.65-4.44,1.14-5.49,1.46-.24,0,5.66-3.42,17.7-10.25,3.17-18.15,4.76-36.05,4.76-53.71,0-2.93-.16-7.32-.49-13.18-4.72-.41-8.97-.79-12.76-1.16-3.78-.37-6.59-.63-8.42-.79-1.83-.16-3.11-.28-3.85-.37l24.54-5c-.33-2.44-.98-6.27-1.95-11.47-1.38-6.59-4.96-17.17-10.74-31.74-2.69-.41-4.86-.73-6.53-.98-1.67-.24-2.85-.41-3.54-.49-.69-.08-1.2-.16-1.53-.24.81,0,4.15-.69,10.01-2.08-2.44-5.7-4.76-10.76-6.96-15.2-2.2-4.43-3.78-7.55-4.76-9.34l66.04-26.98c.65,2.52,1.63,6.88,2.93,13.06,1.3,6.19,2.56,13.51,3.78,21.97,3.99-1.22,8.75-2.97,14.28-5.25,10.82-4.23,19.71-9.97,26.67-17.21,6.96-7.24,11.66-12.86,14.1-16.85l41.38,41.75c-5.62,3.09-14.67,7.22-27.16,12.39-12.49,5.17-25.25,8.73-38.27,10.68-6.1.81-12.37,1.22-18.8,1.22-3.99,0-6.96-.08-8.91-.24.49,5.94.73,11.96.73,18.07,0,3.83-.08,6.63-.24,8.42Z"/>
      <path class="cls-16" d="M1594.59,413.95l-11.96-47.97,60.06,2.93-4.52,49.56-43.58-4.52Z"/>
      <path class="cls-16" d="M1656.11,413.95l-11.96-47.97,60.06,2.93-4.52,49.56-43.58-4.52Z"/>
      <path class="cls-16" d="M1717.64,413.95l-11.96-47.97,60.06,2.93-4.52,49.56-43.58-4.52Z"/>
    </g>
    <g>
      <path class="cls-11" d="M359.11,307.22c-5.86-3.91-11.06-7.91-15.58-12.02-4.52-4.11-8.73-8.85-12.64-14.22-11.73-16.6-19.55-32.73-23.46-48.4-3.91-15.67-6.03-27.04-6.35-34.12,1.87,2.77,5.39,7.59,10.57,14.47,5.17,6.88,12.01,14.97,20.52,24.29,8.51,9.32,17.74,17.97,27.67,25.94,7.9,6.35,16.98,11.03,27.24,14.04,7.66-9.85,14.92-19.94,21.81-30.27,6.88-10.33,12.4-18.96,16.55-25.88,4.15-6.92,7.05-11.8,8.67-14.65-.41,2.61-1.28,7.35-2.63,14.22-1.34,6.88-3.42,15.87-6.23,26.98-2.81,11.11-6.17,22.16-10.08,33.14,4.56-.16,8.55-.57,11.97-1.22,3.42-.65,5.74-1.18,6.96-1.59l-28.46,50.05c-.9,0-4.4-1.1-10.51-3.3-4.56,7.98-9.57,15.14-15.03,21.48-6.84,8.14-15.27,16.07-25.29,23.8-10.02,7.73-18.67,13.84-25.96,18.31-7.29,4.48-12.56,7.61-15.82,9.4l-34.45-57.01c7.82-1.3,19.55-4.46,35.18-9.46,15.64-5,30.09-12.51,43.37-22.52.98-.65,1.63-1.14,1.96-1.46Z"/>
      <path class="cls-11" d="M499.18,205.66c-2.93-1.87-5.29-3.31-7.08-4.33-1.79-1.02-3.05-1.73-3.78-2.14,2.52,0,5.94.18,10.25.55,4.31.37,9.07,1.04,14.28,2.01,8.06-2.12,15.4-3.48,22.03-4.09,6.63-.61,12.47-.92,17.52-.92-1.38.41-3.97,1.45-7.75,3.11-3.79,1.67-7.71,3.85-11.78,6.53,12.37,3.66,23.68,8.95,33.94,15.87,10.25,6.92,18.74,16.5,25.45,28.75,6.71,12.25,10.07,27,10.07,44.25,0,29.3-8.87,51.49-26.61,66.59-17.74,15.1-35.54,24.7-53.41,28.81-17.86,4.11-31.19,6.29-39.98,6.53,1.95-.73,5.13-2.24,9.52-4.52,4.39-2.28,9.4-5.62,15.01-10.01-8.3-2.6-16.26-5.92-23.87-9.95s-15.06-9.58-22.34-16.66c-7.28-7.08-13.27-15.93-17.95-26.55s-7.14-22.89-7.38-36.8c0-16.44,3.01-30.54,9.03-42.3,6.02-11.76,13.77-21.16,23.25-28.2,9.48-7.04,20-12.55,31.56-16.54ZM515.9,219.69c-5.37,5.21-10.27,11.39-14.71,18.55-4.44,7.16-8.02,15.44-10.74,24.84-2.73,9.4-4.09,19.76-4.09,31.07.24,18.88,3.13,34.97,8.67,48.28,5.53,13.31,12.17,24.48,19.9,33.51,10.09-9.11,18.43-20.39,25.02-33.81s9.89-29.05,9.89-46.88c-.24-16.19-3.58-30.6-10.01-43.21-6.43-12.61-14.4-23.4-23.93-32.35Z"/>
      <path class="cls-11" d="M672.11,361.17c16.59-20.83,27.85-38.74,33.79-53.71,2.11-5.86,3.8-13.94,5.06-24.23,1.26-10.29,2.18-21.14,2.75-32.53.57-11.39.92-20.34,1.04-26.86.12-6.51.18-11.31.18-14.4l72.46,12.45c-1.14,5.54-3.29,14.45-6.47,26.73-3.17,12.29-7.75,26.25-13.72,41.87s-12.67,27.87-20.07,36.74c-10,12.13-21.21,22.85-33.61,32.17-12.4,9.32-23.87,16.72-34.4,22.22s-19.23,9.54-26.1,12.15c-6.87,2.61-11.65,4.31-14.33,5.13.41,0,6.06-5.98,16.96-17.94l-45.62,16.72c-1.14-5.45-2.56-14.34-4.27-26.67s-2.56-25.33-2.56-39c0-10.42.77-20.02,2.32-28.81,2.68-15.62,7.16-29.99,13.42-43.09,6.26-13.1,12.85-24.05,19.76-32.84,6.91-8.79,12.58-15.22,17.02-19.29,4.43-4.07,7.67-6.84,9.7-8.3-1.14,3.74-2.81,10.17-5,19.29-2.2,9.12-4.41,20.65-6.65,34.61-2.24,13.96-3.35,26.92-3.35,38.88,0,7.16.53,13.75,1.58,19.78,1.87,12.29,8.58,28.61,20.13,48.95Z"/>
      <path class="cls-11" d="M905.67,352.75c7.16-3.25,13.79-5.94,19.9-8.06,7.81-2.85,18.84-4.27,33.08-4.27,8.14,0,15.71.35,22.71,1.04,7,.69,12,1.28,15.01,1.77l-12.94,54.44c-5.54-3.25-13.45-7.32-23.74-12.21-10.3-4.88-18.74-7.49-25.33-7.81-2.12-.16-5.62-.24-10.5-.24-11.96,0-24.21.45-36.74,1.34-5.13,5.86-9.48,10.36-13.06,13.49-3.58,3.13-6.15,5.27-7.69,6.41.41-1.22,1.12-3.78,2.14-7.69s1.89-7.57,2.62-10.99c-4.8.41-7.81.65-9.03.73-1.22.08-2.56.18-4.03.31s-2.44.18-2.93.18c1.14-.81,3.56-2.46,7.26-4.94,3.7-2.48,7.43-4.82,11.17-7.02,5.21-25.23,7.81-46.3,7.81-63.23,0-6.92-.49-13.51-1.46-19.78-1.63-10.33-5.6-21.48-11.9-33.45s-11.37-20.83-15.2-26.61l69.09-25.51c1.14,5.45,2.54,14.34,4.21,26.67s2.5,25.37,2.5,39.12c0,10.17-.73,19.78-2.2,28.81-3.5,19.78-10.42,38.94-20.75,57.5Z"/>
      <path class="cls-11" d="M1061.19,205.66c-2.93-1.87-5.29-3.31-7.08-4.33-1.79-1.02-3.05-1.73-3.78-2.14,2.52,0,5.94.18,10.25.55,4.31.37,9.07,1.04,14.28,2.01,8.06-2.12,15.4-3.48,22.03-4.09,6.63-.61,12.47-.92,17.52-.92-1.38.41-3.97,1.45-7.75,3.11-3.79,1.67-7.71,3.85-11.78,6.53,12.37,3.66,23.68,8.95,33.94,15.87,10.25,6.92,18.74,16.5,25.45,28.75,6.71,12.25,10.07,27,10.07,44.25,0,29.3-8.87,51.49-26.61,66.59-17.74,15.1-35.54,24.7-53.41,28.81-17.86,4.11-31.19,6.29-39.98,6.53,1.95-.73,5.13-2.24,9.52-4.52,4.39-2.28,9.4-5.62,15.01-10.01-8.3-2.6-16.26-5.92-23.87-9.95s-15.06-9.58-22.34-16.66c-7.28-7.08-13.27-15.93-17.95-26.55s-7.14-22.89-7.38-36.8c0-16.44,3.01-30.54,9.03-42.3,6.02-11.76,13.77-21.16,23.25-28.2,9.48-7.04,20-12.55,31.56-16.54ZM1077.92,219.69c-5.37,5.21-10.27,11.39-14.71,18.55-4.44,7.16-8.02,15.44-10.74,24.84-2.73,9.4-4.09,19.76-4.09,31.07.24,18.88,3.13,34.97,8.67,48.28,5.53,13.31,12.17,24.48,19.9,33.51,10.09-9.11,18.43-20.39,25.02-33.81s9.89-29.05,9.89-46.88c-.24-16.19-3.58-30.6-10.01-43.21-6.43-12.61-14.4-23.4-23.93-32.35Z"/>
      <path class="cls-11" d="M1239.66,224.94c.41.16.75.33,1.04.49.28.16.75.41,1.4.73,9.93,4.39,22.17,6.59,36.74,6.59,13.26,0,25.82-1.28,37.66-3.85,11.84-2.56,20.37-4.7,25.57-6.41-2.77,3.27-8.08,8.18-15.93,14.75-7.85,6.57-19.35,13.18-34.49,19.83s-32.23,9.98-51.27,9.98c-6.43-.16-14.36-.98-23.8-2.45,1.95,8.02,7.04,15.06,15.26,21.13,11.23-1.87,22.75-2.81,34.55-2.81,9.77,0,18.9.73,27.4,2.2s16.34,4,23.5,7.62c7.16,3.62,12.92,8.74,17.27,15.36,4.35,6.62,6.53,14.81,6.53,24.57,0,3.58-.65,6.99-1.95,10.24l11.47,9.99c-2.93,3.18-8.02,8.03-15.26,14.56-7.24,6.52-16.48,13.13-27.71,19.82s-22.18,10.31-32.84,10.89c-2.12.16-5.29.24-9.52.24-24.01,0-45.06-3.9-63.17-11.7-18.11-7.8-30.78-14.28-38.03-19.42,1.63.16,5.19.35,10.68.55,5.49.2,9.78.31,12.88.31,14.4,0,28.48-.91,42.24-2.74,13.75-1.83,25.55-5.1,35.4-9.81,6.1-2.92,12.94-7.07,20.51-12.43,1.71-3.82,2.56-7.84,2.56-12.06,0-10.64-4.92-19.7-14.77-27.17-11.88-.32-23.6-1.14-35.16-2.44-11.56-1.3-23.17-3.64-34.85-7.02-11.68-3.38-21.34-8.1-28.99-14.16-7.65-6.06-11.47-13.61-11.47-22.64,0-7.4,1.26-13.9,3.78-19.47,2.52-5.57,6.02-10.15,10.5-13.73l14.16-26.49c-.33,0,6.51,4.23,20.51,12.7,7.32-1.14,15.09-1.71,23.32-1.71,10.25,0,19.65.59,28.2,1.77,8.54,1.18,14.65,2.18,18.31,2.99-3.91.24-9.91,1.18-18,2.81-8.1,1.63-16.17,4.44-24.23,8.42ZM1238.07,289.64c8.54,4.72,18.63,8.34,30.27,10.86-7.57-4.31-17.66-7.93-30.27-10.86Z"/>
      <path class="cls-11" d="M1427.89,288.18l76.42-15.99c-.41,2.93-1.08,7.55-2.01,13.85-.94,6.31-1.83,12.68-2.69,19.1-.85,6.43-1.28,10.95-1.28,13.55,0-.24-4.03-.85-12.08-1.83s-16.28-1.89-24.66-2.75c-8.38-.85-20.71-2.09-36.99-3.72-3.91,17.17-9.89,32.59-17.94,46.26,17.25-7.73,30.8-12.12,40.65-13.18,6.92-.81,15.58-1.22,26-1.22,8.71,0,16.32.18,22.83.55,6.51.37,12.12.77,16.85,1.22,4.72.45,7.93.75,9.64.92l-31.25,53.22c-.98-1.14-2.99-2.97-6.04-5.49-3.05-2.52-7.67-5.33-13.86-8.42-6.19-3.09-13.39-5.37-21.61-6.84-5.45-1.06-10.52-1.77-15.2-2.14s-10.03-.55-16.05-.55c-6.76,0-15.42.49-26,1.46-5.05,5.7-9.75,10.27-14.1,13.73-4.35,3.46-7.43,5.72-9.22,6.77.32-1.14.83-3.42,1.53-6.84.69-3.42,1.28-6.88,1.77-10.38-4.88.81-8.63,1.55-11.23,2.2-2.61.65-4.44,1.14-5.49,1.46-.24,0,5.66-3.42,17.7-10.25,3.17-18.15,4.76-36.05,4.76-53.71,0-2.93-.16-7.32-.49-13.18-4.72-.41-8.97-.79-12.76-1.16-3.78-.37-6.59-.63-8.42-.79-1.83-.16-3.11-.28-3.85-.37l24.54-5c-.33-2.44-.98-6.27-1.95-11.47-1.38-6.59-4.96-17.17-10.74-31.74-2.69-.41-4.86-.73-6.53-.98-1.67-.24-2.85-.41-3.54-.49-.69-.08-1.2-.16-1.53-.24.81,0,4.15-.69,10.01-2.08-2.44-5.7-4.76-10.76-6.96-15.2-2.2-4.43-3.78-7.55-4.76-9.34l66.04-26.98c.65,2.52,1.63,6.88,2.93,13.06,1.3,6.19,2.56,13.51,3.78,21.97,3.99-1.22,8.75-2.97,14.28-5.25,10.82-4.23,19.71-9.97,26.67-17.21,6.96-7.24,11.66-12.86,14.1-16.85l41.38,41.75c-5.62,3.09-14.67,7.22-27.16,12.39-12.49,5.17-25.25,8.73-38.27,10.68-6.1.81-12.37,1.22-18.8,1.22-3.99,0-6.96-.08-8.91-.24.49,5.94.73,11.96.73,18.07,0,3.83-.08,6.63-.24,8.42Z"/>
      <path class="cls-11" d="M1596.84,396.7l-11.96-47.97,60.06,2.93-4.52,49.56-43.58-4.52Z"/>
      <path class="cls-11" d="M1658.36,396.7l-11.96-47.97,60.06,2.93-4.52,49.56-43.58-4.52Z"/>
      <path class="cls-11" d="M1719.88,396.7l-11.96-47.97,60.06,2.93-4.52,49.56-43.58-4.52Z"/>
    </g>
  </g>
</svg>