<?xml version="1.0" encoding="UTF-8"?>
<svg id="Calque_1" data-name="Calque 1" xmlns="http://www.w3.org/2000/svg" viewBox="0 0 1034.24 270.9">
  <defs>
    <style>
      .cls-1 {
        fill: #000;
      }

      .cls-1, .cls-2, .cls-3, .cls-4 {
        stroke-width: 0px;
      }

      .cls-2 {
        fill: #c4c1bf;
      }

      .cls-3 {
        fill: #bf895a;
      }

      .cls-5 {
        opacity: .36;
      }

      .cls-4 {
        fill: #606060;
      }
    </style>
  </defs>
  <g id="play">
    <g class="cls-5">
      <polygon class="cls-1" points="45.6 63.01 36.3 60.96 35.39 58.57 45.6 63.01"/>
      <polygon class="cls-1" points="998.2 78.94 986.99 118.7 995.9 162.64 945.91 151.91 922.95 150.11 897.37 146.21 922.19 156.15 997.79 170.98 995.19 187.9 999.61 247.68 999.77 249.94 993.35 269.4 972.15 270.9 460.38 265.8 43.19 247.36 0 250.41 6.67 209.42 11.54 187.16 41.6 185.04 10.49 179.25 8.14 155.76 3.84 96.19 13.99 72.38 45.6 63.01 35.39 58.57 13.28 48.98 23.05 27.07 46.1 25.44 46.73 24.73 986.59 39.57 996.43 49.99 999.17 70.01 998.2 78.94"/>
    </g>
    <polygon class="cls-4" points="1034.24 225.22 1027.82 244.68 1006.61 246.17 494.85 241.07 77.66 222.63 34.47 225.68 41.14 184.69 46.01 162.43 76.08 160.31 44.95 154.52 42.61 131.02 38.3 71.46 48.47 47.64 80.07 38.28 47.75 24.25 57.52 2.34 86.54 .29 1034.24 225.22"/>
    <polygon class="cls-3" points="1021.06 14.84 81.2 0 71.8 10.69 67.53 19.73 68.09 29.2 70.77 36.23 93.63 41.27 68.67 43.98 58.83 79.27 56.55 92.16 64.59 111.36 60.91 152.3 97.42 171.58 58.69 165 58.64 177.48 60.55 196.61 57.56 216.01 110.25 212.59 1013.44 238.09 1034.24 225.22 1034.08 222.95 1029.66 163.17 1032.26 146.25 956.66 131.42 931.84 121.49 957.42 125.38 980.38 127.18 1030.37 137.91 1021.46 93.97 1032.66 54.21 1033.65 45.28 1030.89 25.25 1021.06 14.84"/>
    <g>
      <path class="cls-2" d="M105.85,14.38c.45,3.38-2.46,6.35-6.49,6.64-4.04.28-7.67-2.22-8.12-5.6s2.46-6.35,6.49-6.64,7.67,2.22,8.12,5.6Z"/>
      <path class="cls-2" d="M88.69,196.19c.45,3.38-2.46,6.35-6.49,6.64-4.04.28-7.67-2.22-8.12-5.6s2.46-6.35,6.49-6.64,7.67,2.22,8.12,5.6Z"/>
      <path class="cls-2" d="M1011.57,28.19c.45,3.38-2.46,6.35-6.49,6.64-4.04.28-7.67-2.22-8.12-5.6s2.46-6.35,6.49-6.64c4.04-.28,7.67,2.22,8.12,5.6Z"/>
      <path class="cls-2" d="M1016.31,222.49c.45,3.38-2.46,6.35-6.49,6.64-4.04.28-7.67-2.22-8.12-5.6s2.46-6.35,6.49-6.64c4.04-.28,7.67,2.22,8.12,5.6Z"/>
    </g>
  </g>
</svg>