<?xml version="1.0" encoding="UTF-8"?>
<svg id="Calque_1" data-name="Calque 1" xmlns="http://www.w3.org/2000/svg" viewBox="0 0 1923.76 312.92">
  <defs>
    <style>
      .cls-1 {
        fill: #000;
      }

      .cls-1, .cls-2, .cls-3, .cls-4, .cls-5, .cls-6 {
        stroke-width: 0px;
      }

      .cls-2 {
        fill: #c4c1bf;
      }

      .cls-3 {
        fill: #7c5135;
      }

      .cls-4 {
        fill: #bf895a;
      }

      .cls-5 {
        fill: #684f3a;
      }

      .cls-6 {
        fill: #efdbce;
      }

      .cls-7 {
        opacity: .36;
      }
    </style>
  </defs>
  <g id="round">
    <g class="cls-7">
      <polygon class="cls-1" points="40.13 84.48 31.94 83.14 31.15 81.58 40.13 84.48"/>
      <polygon class="cls-1" points="878.43 94.92 868.57 120.96 876.4 149.74 832.41 142.71 812.21 141.54 789.7 138.98 811.54 145.49 878.07 155.21 875.78 166.29 879.67 205.44 879.81 206.93 874.16 219.67 855.5 220.65 405.14 217.31 38 205.23 0 207.23 5.87 180.38 10.16 165.81 36.61 164.41 9.23 160.62 7.16 145.23 3.38 106.22 12.32 90.62 40.13 84.48 31.15 81.58 11.69 75.29 20.29 60.94 40.57 59.88 41.12 59.41 868.21 69.13 876.87 75.95 879.28 89.07 878.43 94.92"/>
    </g>
    <polygon class="cls-3" points="910.15 190.73 904.49 203.48 885.83 204.46 435.48 201.11 68.34 189.04 30.34 191.04 36.2 164.18 40.49 149.6 66.95 148.21 39.56 144.42 37.5 129.03 33.7 90.02 42.65 74.42 70.46 68.29 42.02 59.1 50.62 44.75 76.16 43.4 910.15 190.73"/>
    <polygon class="cls-4" points="898.55 52.94 71.46 43.21 63.19 50.21 59.42 56.14 59.92 62.34 62.28 66.94 82.4 70.24 60.43 72.02 51.77 95.14 49.77 103.58 56.84 116.16 53.6 142.97 85.73 155.6 51.65 151.29 51.61 159.47 53.28 171.99 50.66 184.7 97.03 182.46 891.84 199.16 910.15 190.73 910 189.25 906.11 150.09 908.4 139.01 841.87 129.3 820.03 122.79 842.54 125.34 862.74 126.52 906.74 133.54 898.9 104.76 908.76 78.72 909.62 72.87 907.2 59.76 898.55 52.94"/>
    <rect class="cls-6" x="523.8" y="66.93" width="108.51" height="108.51" rx="23.76" ry="23.76"/>
    <rect class="cls-6" x="723.13" y="69.68" width="108.51" height="108.51" rx="23.76" ry="23.76"/>
    <g>
      <path class="cls-5" d="M117.53,81.31c4.64.55,9.05,1.41,13.21,2.57,4.16,1.16,7.99,2.77,11.5,4.83,3.51,2.06,6.31,4.75,8.43,8.06s3.12,7.24,3.03,11.76c-.15,7.19-6.62,13.6-19.4,19.23,8.06,2.41,13.73,4.96,17.03,7.63,4.1,3.37,7.37,6.76,9.82,10.17,2.45,3.41,4.08,5.9,4.9,7.48l-24,5.7c-.09-.43-.32-1.21-.68-2.36-.37-1.15-1.11-2.87-2.24-5.17-1.12-2.3-2.59-4.86-4.38-7.66-2.97-4.49-6.48-8.49-10.54-11.99-5.05,1.52-9.81,2.79-14.29,3.8-2.06,3.31-4.3,6.56-6.72,9.75-2.43,3.19-4.43,5.7-5.99,7.54-1.57,1.84-2.69,3.13-3.35,3.86.32-1.39.81-3.75,1.47-7.08.66-3.32,1.27-7.21,1.86-11.66-1.76.26-2.91.42-3.45.49-.54.07-.96.13-1.25.19.03,0,1.64-.6,4.82-1.8.41-3.96.65-7.72.72-11.27.1-4.91-.17-9.12-.81-12.62-.7-3.92-2.02-8.34-3.95-13.25-1.93-4.91-3.46-8.56-4.58-10.96l16.04-5.72c-1.61-.72-2.95-1.28-4.02-1.67-1.07-.4-1.81-.67-2.23-.8.42-.02,1.2-.05,2.32-.07,1.12-.03,2.52-.02,4.18.01,1.24.03,2.29.06,3.17.09.88.04,1.85.08,2.93.13l6.05-2.17s.18.98.43,2.94ZM116.99,126.09c-.77-.41-1.34-.71-1.69-.91-.17.39-.65,1.4-1.43,3.05,1.32-.79,2.36-1.5,3.12-2.13ZM119.77,124.04c6.39-5.24,9.7-10.58,9.91-16.01.13-6.25-3.57-12.06-11.11-17.42.24,2.64.41,5.12.5,7.43.1,2.31.12,4.61.08,6.89-.12,5.66-.69,10.42-1.71,14.27-.28,1.1-.7,2.46-1.26,4.08,1.98.4,3.18.65,3.6.76Z"/>
      <path class="cls-5" d="M193.56,82.16c-1.16-.77-2.09-1.37-2.8-1.79-.71-.42-1.21-.72-1.5-.89,1.01.02,2.37.12,4.1.31,1.72.18,3.62.49,5.69.92,3.24-.78,6.19-1.26,8.85-1.45s5-.26,7.01-.22c-.56.15-1.6.54-3.13,1.18s-3.12,1.47-4.77,2.51c4.91,1.57,9.4,3.78,13.44,6.63,4.04,2.85,7.36,6.75,9.94,11.71s3.8,10.88,3.66,17.78c-.24,11.72-3.98,20.52-11.2,26.41-7.22,5.89-14.42,9.58-21.6,11.08-7.18,1.5-12.53,2.25-16.04,2.28.79-.28,2.07-.85,3.85-1.73,1.78-.87,3.81-2.17,6.09-3.88-3.3-1.11-6.45-2.5-9.46-4.18-3.01-1.67-5.94-3.96-8.79-6.85-2.85-2.89-5.17-6.48-6.95-10.77-1.78-4.29-2.67-9.21-2.65-14.78.14-6.57,1.46-12.19,3.97-16.84,2.51-4.65,5.68-8.35,9.53-11.08s8.1-4.85,12.76-6.35ZM200.13,87.92c-2.19,2.04-4.2,4.47-6.04,7.3s-3.33,6.11-4.5,9.84c-1.17,3.74-1.8,7.87-1.89,12.39-.06,7.55.96,14.01,3.06,19.38,2.1,5.37,4.66,9.89,7.68,13.57,4.11-3.56,7.54-8,10.29-13.31,2.75-5.31,4.2-11.54,4.34-18.66.04-6.48-1.18-12.27-3.64-17.37-2.47-5.1-5.57-9.48-9.3-13.14Z"/>
      <path class="cls-5" d="M261.41,145.8c6.81-8.19,11.46-15.26,13.96-21.2.89-2.33,1.64-5.54,2.23-9.65s1.05-8.43,1.37-12.99.54-8.13.64-10.73c.1-2.6.17-4.52.19-5.76l28.87,5.58c-.5,2.2-1.44,5.75-2.81,10.64-1.37,4.89-3.32,10.43-5.84,16.63-2.52,6.2-5.3,11.04-8.33,14.53-4.1,4.77-8.67,8.96-13.71,12.58-5.04,3.62-9.68,6.49-13.94,8.6-4.26,2.11-7.77,3.66-10.54,4.64-2.77.98-4.7,1.63-5.78,1.93.16,0,2.47-2.34,6.93-7.04l-18.39,6.31c-.41-2.19-.91-5.76-1.49-10.7-.58-4.95-.81-10.15-.7-15.62.09-4.17.48-8,1.17-11.5,1.2-6.23,3.11-11.93,5.73-17.12,2.61-5.19,5.34-9.51,8.18-12.97,2.84-3.46,5.16-5.98,6.97-7.57,1.81-1.59,3.12-2.67,3.95-3.24-.49,1.49-1.21,4.04-2.16,7.67-.96,3.63-1.94,8.22-2.95,13.78-1.01,5.56-1.57,10.74-1.67,15.52-.06,2.86.1,5.5.47,7.92.64,4.93,3.19,11.51,7.64,19.74Z"/>
      <path class="cls-5" d="M354.13,136.35c-3.03-5.96-6-10.53-8.9-13.71-2.2-2.39-4.46-4.5-6.8-6.34-.08.81-.27,2.04-.57,3.7-1.2,6.16-3.12,11.85-5.75,17.07-2.63,5.22-5.31,9.5-8.03,12.85s-5.04,5.87-6.95,7.57-3.27,2.84-4.1,3.41c.49-1.49,1.21-4.04,2.16-7.67.96-3.63,1.94-8.22,2.95-13.78s1.57-10.74,1.67-15.52c.05-2.51-.1-5.15-.47-7.92-.34-2.35-1-4.87-1.97-7.56-.97-2.69-2.06-5.24-3.28-7.64-1.42-.75-2.59-1.32-3.53-1.71-.94-.39-1.58-.66-1.94-.8.26-.03.63-.04,1.1-.05.47,0,1.47,0,3,.04-.69-1.32-1.4-2.62-2.14-3.9-.74-1.29-1.25-2.14-1.53-2.57l27.79-9.63c.12.62.31,1.77.59,3.46.27,1.68.55,3.93.84,6.76s.48,5.67.58,8.53c7.13,1.45,12.77,3.67,16.91,6.65,1.59-4.62,3.67-8.84,6.22-12.64,2.55-3.81,4.8-6.71,6.73-8.72,1.93-2.01,3.33-3.37,4.19-4.06-.67,2.26-1.52,5.97-2.55,11.13-1.04,5.15-1.61,10.61-1.73,16.37-.12,5.99.5,11.13,1.88,15.42,2.96,4.72,5.33,9.13,7.1,13.24,1.96,2.84,3.68,5.21,5.15,7.12,1.47,1.9,2.56,3.27,3.26,4.1l-22.21,13.5c-1.13-2.21-2.71-5.81-4.76-10.82-2.04-5.01-3.68-10.29-4.9-15.85Z"/>
      <path class="cls-5" d="M411.11,85.63c.23-.29.43-.53.6-.72.17-.19.27-.32.3-.38-.03,0-.11.41-.22,1.22,6.91,1.09,13.69,2.97,20.35,5.65,6.65,2.68,12.34,6.78,17.06,12.3,4.72,5.52,6.99,12.51,6.82,20.97-.19,9.02-3.14,16.28-8.85,21.79-5.72,5.51-12.36,9.48-19.93,11.89-7.57,2.41-14.18,3.9-19.82,4.45-5.64.55-9.72.81-12.23.79,1.24-.33,3.28-1.04,6.1-2.12,2.82-1.08,6-2.72,9.53-4.93l-22.01,6.13c-.17-.98-.43-2.7-.77-5.14s-.66-5.66-.97-9.62c-.31-3.96-.42-7.9-.34-11.8.11-5.47.68-10.23,1.71-14.27,1.44-5.31,4.07-10.86,7.87-16.64,3.8-5.78,7.84-11.3,12.11-16.55-1.16-.71-2.1-1.26-2.82-1.65-.72-.39-1.54-.81-2.44-1.27s-1.55-.76-1.93-.92c-.39-.16-.66-.27-.82-.33,2.86.06,6.44.44,10.72,1.15ZM412.83,155.16c12.12-8.08,18.31-18.62,18.58-31.6.07-5.01-.93-9.67-3-13.96-2.08-4.29-4.64-8-7.71-11.12-3.06-3.12-6.37-5.88-9.94-8.27-1.8,9.76-2.77,18.24-2.92,25.43-.1,4.95.18,9.15.86,12.62.38,2.09.91,5.31,1.58,9.65.67,4.34,1.22,7.96,1.63,10.85.41,2.89.72,5.02.92,6.39Z"/>
    </g>
    <g>
      <path class="cls-2" d="M69.33,52.63c.29,2.21-1.61,4.16-4.25,4.35-2.64.19-5.03-1.46-5.32-3.67s1.61-4.16,4.25-4.35,5.03,1.46,5.32,3.67Z"/>
      <path class="cls-2" d="M58.09,171.72c.29,2.21-1.61,4.16-4.25,4.35-2.64.19-5.03-1.46-5.32-3.67s1.61-4.16,4.25-4.35,5.03,1.46,5.32,3.67Z"/>
      <path class="cls-2" d="M662.58,61.68c.29,2.21-1.61,4.16-4.25,4.35-2.64.19-5.03-1.46-5.32-3.67s1.61-4.16,4.25-4.35,5.03,1.46,5.32,3.67Z"/>
      <path class="cls-2" d="M665.68,188.94c.29,2.21-1.61,4.16-4.25,4.35-2.64.19-5.03-1.46-5.32-3.67s1.61-4.16,4.25-4.35c2.64-.19,5.03,1.46,5.32,3.67Z"/>
    </g>
    <path class="cls-5" d="M674.63,115.7c1.71-4.07,3.21-9.19,4.5-15.36,1.28-6.18,2.24-11.68,2.86-16.52.62-4.84,1.04-8.28,1.24-10.33l27.7-5.04c-.46,1.52-1.32,4.17-2.61,7.96-1.28,3.78-2.95,8.34-5,13.67-2.05,5.33-4.55,11.1-7.49,17.3-2.95,6.21-5.83,11.3-8.65,15.28-3.69,5.3-8.13,10.59-13.32,15.89-5.19,5.3-10.2,10.03-15.02,14.19-4.82,4.16-8.87,7.52-12.13,10.05-3.26,2.54-5.55,4.28-6.87,5.23,1.97-2.43,5.09-6.46,9.36-12.09s8.97-12.31,14.12-20.05,8.91-14.47,11.31-20.18Z"/>
  </g>
  <g id="Score">
    <g class="cls-7">
      <polygon class="cls-1" points="1069.84 73.54 1061.82 71.19 1061.05 68.4 1069.84 73.54"/>
      <polygon class="cls-1" points="1891.28 89.18 1881.45 135.54 1888.94 186.71 1845.87 174.36 1826.08 172.34 1804.04 167.87 1825.4 179.38 1890.54 196.42 1888.22 216.15 1891.77 285.78 1891.9 288.42 1886.28 311.11 1867.99 312.92 1426.66 308.55 1066.96 288.35 1029.7 292.03 1035.63 244.25 1039.93 218.3 1065.86 215.74 1039.05 209.09 1037.13 181.72 1033.67 112.32 1042.54 84.55 1069.84 73.54 1061.05 68.4 1042.02 57.29 1050.54 31.73 1070.43 29.77 1070.97 28.93 1881.44 43.34 1889.88 55.45 1892.16 78.78 1891.28 89.18"/>
    </g>
    <polygon class="cls-3" points="1923.76 277.87 1918.11 301.87 1899.44 303.72 1449.09 297.42 1081.95 274.68 1043.95 278.44 1049.82 227.86 1054.1 200.4 1080.56 197.78 1053.18 190.64 1051.11 161.65 1047.32 88.16 1056.27 58.78 1084.08 47.23 1055.63 29.92 1064.24 2.89 1089.77 .36 1923.76 277.87"/>
    <polygon class="cls-4" points="1912.16 18.31 1085.08 0 1076.8 13.18 1073.04 24.34 1073.53 36.03 1075.89 44.7 1096.01 50.91 1074.04 54.26 1065.38 97.8 1063.38 113.71 1070.46 137.4 1067.22 187.9 1099.35 211.69 1065.26 203.57 1065.22 218.97 1066.9 242.57 1064.27 266.51 1110.64 262.29 1905.45 293.75 1923.76 277.87 1923.61 275.07 1919.72 201.31 1922.01 180.44 1855.49 162.15 1833.65 149.89 1856.16 154.69 1876.36 156.92 1920.35 170.15 1912.51 115.94 1922.37 66.88 1923.24 55.86 1920.81 31.16 1912.16 18.31"/>
    <rect class="cls-6" x="1339.53" y="141.75" width="108.51" height="108.51" rx="23.76" ry="23.76"/>
    <rect class="cls-6" x="1519.89" y="141.75" width="108.51" height="108.51" rx="23.76" ry="23.76"/>
    <g>
      <path class="cls-5" d="M1327.81,35.13c.16.07.3.14.41.2.11.07.3.17.56.3,3.93,1.84,8.81,2.82,14.64,2.94,5.3.11,10.34-.3,15.09-1.22,4.76-.93,8.18-1.71,10.28-2.35-1.13,1.28-3.3,3.2-6.49,5.77-3.2,2.56-7.85,5.11-13.96,7.64-6.11,2.53-12.97,3.72-20.59,3.56-2.57-.12-5.74-.51-9.5-1.18.71,3.22,2.69,6.08,5.93,8.58,4.51-.65,9.12-.93,13.84-.83,3.91.08,7.55.45,10.94,1.11,3.39.66,6.5,1.74,9.33,3.24,2.83,1.51,5.09,3.6,6.78,6.29,1.69,2.69,2.49,5.98,2.41,9.88-.03,1.43-.32,2.79-.87,4.08l4.51,4.09c-1.2,1.25-3.27,3.15-6.22,5.69-2.95,2.55-6.7,5.11-11.25,7.69-4.55,2.58-8.96,3.94-13.22,4.08-.85.05-2.12.05-3.81.02-9.6-.2-17.99-1.93-25.17-5.21-7.18-3.27-12.19-5.97-15.04-8.08.65.08,2.07.18,4.27.31,2.2.13,3.91.2,5.15.23,5.76.12,11.4-.13,16.91-.74s10.26-1.83,14.24-3.63c2.47-1.12,5.23-2.72,8.3-4.8.71-1.51,1.09-3.11,1.13-4.8.09-4.25-1.8-7.92-5.68-10.99-4.75-.23-9.43-.65-14.04-1.27-4.61-.62-9.24-1.65-13.88-3.1-4.64-1.45-8.47-3.42-11.48-5.9-3.01-2.49-4.47-5.54-4.4-9.15.06-2.96.62-5.55,1.68-7.76,1.05-2.21,2.49-4.01,4.31-5.4l5.88-10.48c-.13,0,2.57,1.75,8.1,5.25,2.94-.39,6.05-.56,9.34-.49,4.1.09,7.85.4,11.26.94,3.41.54,5.84.99,7.3,1.35-1.56.06-3.97.39-7.22.97-3.25.58-6.5,1.64-9.76,3.17ZM1326.63,60.99c3.38,1.96,7.38,3.49,12.02,4.6-2.99-1.79-7-3.32-12.02-4.6Z"/>
      <path class="cls-5" d="M1395.87,66.64c-.03,6.09,1.4,11.56,4.27,16.42,2.88,4.86,6.25,8.91,10.12,12.13,3.87,3.22,7.28,5.65,10.23,7.27,2.95,1.62,5.06,2.71,6.35,3.26-2.34-.05-6.13-.43-11.36-1.14-5.23-.71-11.35-2.36-18.38-4.95-7.03-2.59-13.14-6.69-18.33-12.3-5.19-5.61-7.69-12.87-7.51-21.79.24-11.68,4.86-20.43,13.85-26.23,8.99-5.8,17.97-9.38,26.94-10.74,8.97-1.36,15.65-2.01,20.04-1.95-1.47.39-3.89,1.27-7.26,2.63-3.37,1.36-7.3,3.58-11.79,6.67s-8.44,7.2-11.86,12.35c-3.41,5.15-5.19,11.28-5.34,18.37Z"/>
      <path class="cls-5" d="M1458.16,30.14c-1.16-.77-2.09-1.37-2.79-1.79-.71-.42-1.21-.72-1.5-.89,1.01.02,2.37.12,4.1.31s3.62.49,5.7.92c3.24-.78,6.19-1.26,8.85-1.45,2.66-.19,5-.26,7.01-.22-.56.15-1.6.54-3.13,1.18-1.53.64-3.12,1.47-4.76,2.51,4.92,1.57,9.4,3.78,13.44,6.63,4.04,2.85,7.36,6.75,9.94,11.71,2.58,4.95,3.8,10.88,3.66,17.78-.24,11.72-3.98,20.52-11.2,26.41-7.22,5.89-14.42,9.58-21.6,11.08-7.18,1.49-12.53,2.25-16.04,2.28.79-.28,2.07-.85,3.84-1.73,1.78-.87,3.81-2.17,6.09-3.88-3.3-1.11-6.45-2.5-9.46-4.18-3.01-1.67-5.94-3.96-8.79-6.85-2.85-2.89-5.17-6.48-6.96-10.77-1.78-4.29-2.67-9.21-2.65-14.78.14-6.57,1.46-12.19,3.96-16.84s5.68-8.35,9.54-11.08c3.85-2.74,8.1-4.85,12.76-6.35ZM1464.74,35.89c-2.19,2.04-4.2,4.47-6.04,7.3-1.83,2.83-3.33,6.11-4.5,9.84-1.17,3.74-1.8,7.87-1.9,12.39-.06,7.55.96,14.01,3.06,19.38,2.1,5.37,4.66,9.89,7.68,13.57,4.11-3.56,7.54-8,10.29-13.31,2.75-5.31,4.2-11.54,4.34-18.66.04-6.48-1.18-12.27-3.64-17.36-2.47-5.1-5.57-9.48-9.3-13.14Z"/>
      <path class="cls-5" d="M1528.49,32.33c4.64.55,9.05,1.41,13.21,2.57,4.16,1.16,7.99,2.77,11.5,4.83,3.51,2.06,6.31,4.75,8.43,8.06,2.11,3.32,3.12,7.24,3.03,11.76-.15,7.19-6.62,13.6-19.4,19.23,8.06,2.42,13.73,4.96,17.03,7.63,4.1,3.37,7.37,6.76,9.83,10.17,2.45,3.41,4.08,5.9,4.9,7.48l-24,5.7c-.09-.42-.32-1.21-.68-2.36-.37-1.15-1.11-2.87-2.24-5.17-1.12-2.3-2.58-4.86-4.38-7.66-2.97-4.49-6.48-8.49-10.54-11.99-5.05,1.52-9.81,2.79-14.29,3.8-2.06,3.31-4.3,6.56-6.72,9.75-2.43,3.19-4.43,5.7-5.99,7.54-1.57,1.84-2.69,3.13-3.35,3.86.32-1.39.81-3.75,1.47-7.08.66-3.32,1.27-7.21,1.85-11.66-1.76.26-2.92.42-3.45.49-.54.07-.95.14-1.25.19.03,0,1.64-.6,4.82-1.8.41-3.96.65-7.72.72-11.27.1-4.91-.17-9.12-.81-12.62-.7-3.92-2.02-8.34-3.95-13.24-1.93-4.91-3.46-8.56-4.58-10.96l16.04-5.72c-1.61-.72-2.95-1.27-4.02-1.67-1.07-.4-1.81-.66-2.23-.8.42-.02,1.2-.05,2.32-.07,1.12-.03,2.52-.02,4.18.01,1.24.03,2.29.06,3.17.09.88.04,1.85.08,2.93.13l6.05-2.17s.17.98.43,2.94ZM1527.95,77.11c-.77-.41-1.34-.71-1.69-.91-.17.39-.65,1.4-1.43,3.05,1.32-.79,2.36-1.5,3.12-2.13ZM1530.73,75.07c6.39-5.24,9.7-10.57,9.91-16.01.13-6.25-3.57-12.06-11.11-17.42.24,2.64.41,5.12.5,7.43.1,2.31.12,4.61.08,6.89-.12,5.66-.69,10.42-1.71,14.27-.28,1.1-.7,2.46-1.26,4.08,1.98.4,3.18.65,3.6.76Z"/>
      <path class="cls-5" d="M1608.32,66.28l30.69-5.76c-.19,1.17-.49,3.01-.92,5.52-.43,2.51-.84,5.05-1.23,7.62-.4,2.56-.6,4.37-.63,5.41,0-.1-1.6-.38-4.82-.83-3.21-.46-6.49-.89-9.84-1.3-3.35-.41-8.27-1.01-14.76-1.8-1.71,6.83-4.23,12.95-7.56,18.35,6.96-2.95,12.42-4.59,16.37-4.93,2.77-.27,6.24-.36,10.41-.27,3.48.07,6.52.21,9.12.41,2.6.2,4.84.41,6.73.63,1.88.22,3.17.37,3.85.45l-12.94,21.02c-.38-.46-1.17-1.21-2.37-2.25-1.2-1.03-3.02-2.2-5.47-3.48-2.45-1.29-5.31-2.26-8.58-2.91-2.17-.47-4.19-.8-6.06-.98-1.87-.19-4.01-.3-6.42-.35-2.7-.06-6.17.07-10.41.37-2.06,2.24-3.98,4.03-5.75,5.38-1.77,1.35-3.02,2.22-3.74,2.63.14-.45.36-1.36.67-2.72s.57-2.74.79-4.13c-1.96.29-3.46.55-4.51.79-1.05.24-1.78.42-2.21.54-.1,0,2.29-1.32,7.16-3.95,1.42-7.23,2.21-14.38,2.35-21.44.02-1.17,0-2.93-.09-5.28-1.88-.2-3.58-.39-5.09-.57-1.51-.18-2.63-.31-3.36-.39-.73-.08-1.24-.14-1.54-.18l9.85-1.8c-.11-.98-.34-2.51-.69-4.6-.5-2.65-1.84-6.91-4.03-12.78-1.07-.18-1.94-.33-2.6-.44-.67-.11-1.14-.19-1.41-.23-.28-.04-.48-.07-.61-.11.33,0,1.67-.24,4.02-.75-.93-2.3-1.81-4.34-2.66-6.14-.84-1.79-1.45-3.05-1.83-3.77l26.64-10.24c.24,1.01.59,2.76,1.06,5.25.47,2.48.91,5.42,1.33,8.82,1.6-.46,3.52-1.11,5.75-1.98,4.36-1.6,7.97-3.82,10.81-6.66,2.84-2.84,4.77-5.04,5.78-6.62l16.2,17.04c-2.27,1.19-5.93,2.77-10.97,4.73-5.04,1.96-10.17,3.28-15.39,3.95-2.45.27-4.96.38-7.53.33-1.59-.03-2.78-.09-3.56-.17.15,2.38.19,4.79.14,7.23-.03,1.53-.09,2.65-.17,3.37Z"/>
    </g>
    <g>
      <path class="cls-2" d="M1097.52,16.2c.29,2.21-1.61,4.16-4.25,4.35-2.64.19-5.03-1.46-5.32-3.67s1.61-4.16,4.25-4.35,5.03,1.46,5.32,3.67Z"/>
      <path class="cls-2" d="M1084.92,249.92c.29,2.21-1.61,4.16-4.25,4.35-2.64.19-5.03-1.46-5.32-3.67s1.61-4.16,4.25-4.35,5.03,1.46,5.32,3.67Z"/>
      <path class="cls-2" d="M1896.95,32.62c.29,2.21-1.61,4.16-4.25,4.35-2.64.19-5.03-1.46-5.32-3.67s1.61-4.16,4.25-4.35,5.03,1.46,5.32,3.67Z"/>
      <path class="cls-2" d="M1905.01,277.99c.29,2.21-1.61,4.16-4.25,4.35-2.64.19-5.03-1.46-5.32-3.67s1.61-4.16,4.25-4.35c2.64-.19,5.03,1.46,5.32,3.67Z"/>
    </g>
    <path class="cls-5" d="M1468.68,186.72c1.38.88,3.5,2.01,6.35,3.4,2.85,1.39,5.6,2.18,8.23,2.37,4.2.09,8.2-.25,12.01-1.02,3.81-.77,6.56-1.41,8.27-1.93-2.32,1.9-5.83,4.41-10.54,7.52-4.7,3.11-8.92,5.1-12.65,5.97-1.08.24-2.42.34-4.01.31-2.8-.06-5.62-.46-8.47-1.2-2.85-.74-4.94-1.35-6.26-1.83l7.07-13.59Z"/>
    <g>
      <path class="cls-5" d="M1181.8,192.94c-1.69-1.12-3.18-2.28-4.49-3.46-1.3-1.18-2.52-2.55-3.64-4.1-3.38-4.78-5.63-9.43-6.76-13.94-1.13-4.51-1.74-7.79-1.83-9.83.54.8,1.55,2.19,3.04,4.17,1.49,1.98,3.46,4.31,5.91,7,2.45,2.68,5.11,5.17,7.97,7.47,2.28,1.83,4.89,3.18,7.85,4.04,2.21-2.83,4.3-5.74,6.28-8.72,1.98-2.98,3.57-5.46,4.77-7.45,1.2-1.99,2.03-3.4,2.5-4.22-.12.75-.37,2.12-.76,4.1-.39,1.98-.99,4.57-1.79,7.77-.81,3.2-1.78,6.38-2.9,9.54,1.31-.05,2.46-.16,3.45-.35.99-.19,1.65-.34,2.01-.46l-8.2,14.41c-.26,0-1.27-.32-3.03-.95-1.31,2.3-2.76,4.36-4.33,6.19-1.97,2.34-4.4,4.63-7.28,6.86-2.88,2.23-5.38,3.99-7.48,5.27-2.1,1.29-3.62,2.19-4.56,2.71l-9.92-16.42c2.25-.37,5.63-1.28,10.13-2.72,4.5-1.44,8.67-3.6,12.49-6.49.28-.19.47-.33.56-.42Z"/>
      <path class="cls-5" d="M1222.14,163.69c-.84-.54-1.52-.95-2.04-1.25-.52-.29-.88-.5-1.09-.62.73,0,1.71.05,2.95.16s2.61.3,4.11.58c2.32-.61,4.44-1,6.35-1.18s3.59-.26,5.04-.26c-.4.12-1.14.42-2.23.9-1.09.48-2.22,1.11-3.39,1.88,3.56,1.05,6.82,2.58,9.77,4.57,2.95,1.99,5.4,4.75,7.33,8.28,1.93,3.53,2.9,7.78,2.9,12.74,0,8.44-2.55,14.83-7.66,19.18-5.11,4.35-10.24,7.11-15.38,8.3-5.14,1.18-8.98,1.81-11.51,1.88.56-.21,1.48-.64,2.74-1.3,1.27-.66,2.71-1.62,4.32-2.88-2.39-.75-4.68-1.71-6.87-2.87s-4.34-2.76-6.43-4.8-3.82-4.59-5.17-7.65-2.06-6.59-2.13-10.6c0-4.73.87-8.79,2.6-12.18,1.73-3.39,3.97-6.09,6.7-8.12,2.73-2.03,5.76-3.62,9.09-4.76ZM1226.96,167.73c-1.55,1.5-2.96,3.28-4.24,5.34-1.28,2.06-2.31,4.45-3.09,7.15s-1.18,5.69-1.18,8.95c.07,5.44.9,10.07,2.5,13.9s3.5,7.05,5.73,9.65c2.91-2.62,5.31-5.87,7.21-9.74s2.85-8.37,2.85-13.5c-.07-4.66-1.03-8.81-2.88-12.45-1.85-3.63-4.15-6.74-6.89-9.32Z"/>
      <path class="cls-5" d="M1271.95,208.48c4.78-6,8.02-11.16,9.73-15.47.61-1.69,1.09-4.01,1.46-6.98.36-2.96.63-6.09.79-9.37.16-3.28.26-5.86.3-7.73.04-1.88.05-3.26.05-4.15l20.87,3.59c-.33,1.59-.95,4.16-1.86,7.7-.91,3.54-2.23,7.56-3.95,12.06s-3.65,8.03-5.78,10.58c-2.88,3.49-6.11,6.58-9.68,9.26-3.57,2.68-6.87,4.82-9.91,6.4s-5.54,2.75-7.52,3.5c-1.98.75-3.35,1.24-4.13,1.48.12,0,1.75-1.72,4.88-5.17l-13.14,4.82c-.33-1.57-.74-4.13-1.23-7.68s-.74-7.29-.74-11.23c0-3,.22-5.77.67-8.3.77-4.5,2.06-8.64,3.87-12.41,1.8-3.77,3.7-6.93,5.69-9.46,1.99-2.53,3.62-4.38,4.9-5.55,1.28-1.17,2.21-1.97,2.79-2.39-.33,1.08-.81,2.93-1.44,5.55-.63,2.62-1.27,5.95-1.92,9.97-.64,4.02-.97,7.75-.97,11.2,0,2.06.15,3.96.46,5.7.54,3.54,2.47,8.24,5.8,14.1Z"/>
    </g>
    <g>
      <path class="cls-5" d="M1675.49,193.87c-.61-2.93-1.69-6.12-3.23-9.56s-2.78-6.02-3.69-7.73l21.59-7.77c.05.45.12,1.4.23,2.87s.19,3.12.26,4.97.11,3.7.11,5.55c0,5.81-.34,10.57-1.02,14.27-1.01,5.86-2.7,10.93-5.06,15.21s-4.55,7.46-6.54,9.56-3.46,3.49-4.39,4.17c.19-.84.47-2.31.86-4.41s.77-4.8,1.16-8.1.58-6.57.58-9.81c0-3.63-.28-6.7-.84-9.21Z"/>
      <path class="cls-5" d="M1713.7,209.93c0,1.31,0,2.41-.02,3.29s-.03,1.85-.05,2.9c0,1.57.05,3.38.14,5.43s.16,3.45.21,4.2l-17.51-3.59c.09-.87.32-2.33.67-4.39s.83-4.37,1.44-6.93c-1.66-.19-3.18-.41-4.55-.67s-2.33-.45-2.87-.56l4.25-13.96c.56.23,1.58.62,3.06,1.16s3.07,1.04,4.78,1.51c.87-1.52,1.69-2.8,2.46-3.83,2.41-3.09,7-7,13.75-11.71-1.12-.94-2.17-1.77-3.15-2.5s-1.66-1.22-2.06-1.48l18.6-9.63c.4.54,1.03,1.44,1.9,2.71s1.95,3.08,3.25,5.45,2.51,4.99,3.64,7.88,1.82,5.62,2.07,8.23c.09,1.03.14,1.82.14,2.36,0,3.68-.63,7.65-1.88,11.92s-2.51,7.87-3.76,10.81-2.19,5.02-2.79,6.24c.05,0,.07-.82.07-2.46,0-2.02-.08-4.32-.23-6.91s-.46-5.31-.91-8.16-1.06-5.43-1.81-7.75c-1.55,1.2-3.29,2.43-5.24,3.71s-4.09,2.51-6.43,3.69-4.73,2.2-7.17,3.04ZM1731.28,196.08c-.42-.98-.96-1.99-1.62-3.02-1.2-1.99-3.28-4.29-6.26-6.89-3.19,5.41-5.51,9.86-6.96,13.32,4.22-.54,9.16-1.68,14.84-3.41Z"/>
    </g>
  </g>
</svg>