<?xml version="1.0" encoding="UTF-8"?>
<svg id="Calque_1" data-name="Calque 1" xmlns="http://www.w3.org/2000/svg" viewBox="0 0 677.43 177.44">
  <defs>
    <style>
      .cls-1 {
        fill: #000;
      }

      .cls-1, .cls-2, .cls-3, .cls-4, .cls-5, .cls-6 {
        stroke-width: 0px;
      }

      .cls-2 {
        fill: #c4c1bf;
      }

      .cls-3 {
        fill: #7c5135;
      }

      .cls-4 {
        fill: #684f3a;
      }

      .cls-5 {
        fill: #bf895a;
      }

      .cls-6 {
        fill: #efdbce;
      }

      .cls-7 {
        opacity: .36;
      }
    </style>
  </defs>
  <g id="round">
    <g class="cls-7">
      <polygon class="cls-1" points="29.87 41.27 23.77 39.93 23.18 38.36 29.87 41.27"/>
      <polygon class="cls-1" points="653.82 51.7 646.48 77.75 652.31 106.53 619.57 99.5 604.53 98.32 587.77 95.77 604.03 102.28 653.55 111.99 651.85 123.08 654.74 162.23 654.85 163.71 650.64 176.46 636.76 177.44 301.55 174.1 28.29 162.02 0 164.02 4.37 137.17 7.56 122.59 27.25 121.2 6.87 117.41 5.33 102.02 2.51 63 9.17 47.41 29.87 41.27 23.18 38.36 8.7 32.08 15.1 17.73 30.2 16.66 30.61 16.2 646.21 25.92 652.66 32.74 654.46 45.86 653.82 51.7"/>
    </g>
    <polygon class="cls-3" points="677.43 147.52 673.22 160.26 659.33 161.24 324.13 157.9 50.87 145.82 22.58 147.82 26.94 120.97 30.14 106.39 49.83 105 29.45 101.21 27.91 85.82 25.09 46.8 31.75 31.21 52.45 25.07 31.27 15.88 37.68 1.53 56.68 .19 677.43 147.52"/>
    <polygon class="cls-5" points="668.79 9.72 53.19 0 47.03 7 44.23 12.92 44.6 19.13 46.35 23.73 61.33 27.03 44.98 28.81 38.53 51.92 37.04 60.37 42.31 72.94 39.9 99.75 63.81 112.38 38.44 108.07 38.41 116.25 39.66 128.78 37.7 141.49 72.22 139.25 663.8 155.95 677.43 147.52 677.32 146.03 674.42 106.88 676.13 95.79 626.61 86.08 610.35 79.57 627.11 82.13 642.15 83.31 674.89 90.33 669.05 61.55 676.39 35.51 677.04 29.66 675.23 16.54 668.79 9.72"/>
    <g>
      <path class="cls-4" d="M100.23,38.1c4.64.55,9.05,1.41,13.21,2.57,4.16,1.16,7.99,2.77,11.5,4.83,3.51,2.06,6.31,4.75,8.43,8.06s3.12,7.24,3.03,11.76c-.15,7.19-6.62,13.6-19.4,19.23,8.06,2.41,13.73,4.96,17.03,7.63,4.1,3.37,7.37,6.76,9.82,10.17,2.45,3.41,4.08,5.9,4.9,7.48l-24,5.7c-.09-.43-.32-1.21-.68-2.36-.37-1.15-1.11-2.87-2.24-5.17-1.12-2.3-2.59-4.86-4.38-7.66-2.97-4.49-6.48-8.49-10.54-11.99-5.05,1.52-9.81,2.79-14.29,3.8-2.06,3.31-4.3,6.56-6.72,9.75-2.43,3.19-4.43,5.7-5.99,7.54-1.57,1.84-2.69,3.13-3.35,3.86.32-1.39.81-3.75,1.47-7.08.66-3.32,1.27-7.21,1.86-11.66-1.76.26-2.91.42-3.45.49-.54.07-.96.13-1.25.19.03,0,1.64-.6,4.82-1.8.41-3.96.65-7.72.72-11.27.1-4.91-.17-9.12-.81-12.62-.7-3.92-2.02-8.34-3.95-13.24-1.93-4.91-3.46-8.56-4.58-10.96l16.04-5.72c-1.61-.72-2.95-1.27-4.02-1.67-1.07-.4-1.81-.66-2.23-.8.42-.02,1.2-.05,2.32-.07,1.12-.03,2.52-.02,4.18.01,1.24.03,2.29.06,3.17.09.88.04,1.85.08,2.93.13l6.05-2.17s.18.98.43,2.94ZM99.68,82.87c-.77-.41-1.34-.71-1.69-.91-.17.39-.65,1.4-1.43,3.05,1.32-.79,2.36-1.5,3.12-2.13ZM102.46,80.83c6.39-5.24,9.7-10.57,9.91-16.01.13-6.25-3.57-12.06-11.11-17.42.24,2.64.41,5.12.5,7.43.1,2.31.12,4.61.08,6.89-.12,5.66-.69,10.42-1.71,14.27-.28,1.1-.7,2.46-1.26,4.08,1.98.4,3.18.65,3.6.76Z"/>
      <path class="cls-4" d="M176.25,38.95c-1.16-.77-2.09-1.37-2.8-1.79-.71-.42-1.21-.72-1.5-.89,1.01.02,2.37.12,4.1.31,1.72.18,3.62.49,5.69.92,3.24-.78,6.19-1.26,8.85-1.45,2.66-.19,5-.26,7.01-.22-.56.15-1.6.54-3.13,1.18s-3.12,1.47-4.77,2.51c4.91,1.57,9.4,3.78,13.44,6.63,4.04,2.85,7.36,6.75,9.94,11.71,2.58,4.95,3.8,10.88,3.66,17.78-.24,11.72-3.98,20.52-11.2,26.41-7.22,5.89-14.42,9.58-21.6,11.08-7.18,1.49-12.53,2.25-16.04,2.28.79-.28,2.07-.85,3.85-1.73,1.78-.87,3.81-2.17,6.09-3.88-3.3-1.11-6.45-2.5-9.46-4.18-3.01-1.67-5.94-3.96-8.79-6.85-2.85-2.89-5.17-6.48-6.95-10.77-1.78-4.29-2.67-9.21-2.65-14.78.14-6.57,1.46-12.19,3.97-16.84,2.51-4.65,5.68-8.35,9.53-11.08,3.85-2.74,8.1-4.85,12.76-6.35ZM182.82,44.7c-2.19,2.04-4.2,4.47-6.04,7.3s-3.33,6.11-4.5,9.84c-1.17,3.74-1.8,7.87-1.89,12.39-.06,7.55.96,14.01,3.06,19.38,2.1,5.37,4.66,9.89,7.68,13.57,4.11-3.56,7.54-8,10.29-13.31,2.75-5.31,4.2-11.54,4.34-18.66.04-6.48-1.18-12.27-3.64-17.36-2.47-5.1-5.57-9.48-9.3-13.14Z"/>
      <path class="cls-4" d="M244.11,102.59c6.81-8.19,11.46-15.26,13.96-21.2.89-2.33,1.64-5.54,2.23-9.65s1.05-8.44,1.37-12.99.54-8.13.64-10.73c.1-2.6.17-4.52.19-5.76l28.87,5.58c-.5,2.2-1.44,5.75-2.81,10.64-1.37,4.89-3.32,10.43-5.84,16.63-2.52,6.2-5.3,11.04-8.33,14.53-4.1,4.77-8.67,8.96-13.71,12.58-5.04,3.62-9.68,6.49-13.94,8.6-4.26,2.11-7.77,3.66-10.54,4.64-2.77.98-4.7,1.63-5.78,1.93.16,0,2.47-2.34,6.93-7.03l-18.39,6.31c-.41-2.19-.91-5.76-1.49-10.7-.58-4.95-.81-10.15-.7-15.62.09-4.17.48-8,1.17-11.5,1.2-6.23,3.11-11.93,5.73-17.12,2.61-5.19,5.34-9.51,8.18-12.97,2.84-3.46,5.16-5.98,6.97-7.57,1.81-1.59,3.12-2.67,3.95-3.24-.49,1.49-1.21,4.04-2.16,7.67-.96,3.63-1.94,8.22-2.95,13.78-1.01,5.56-1.57,10.74-1.67,15.52-.06,2.86.1,5.5.47,7.92.64,4.93,3.19,11.51,7.64,19.74Z"/>
      <path class="cls-4" d="M336.83,93.14c-3.03-5.96-6-10.53-8.9-13.71-2.2-2.39-4.46-4.5-6.8-6.34-.08.81-.27,2.05-.57,3.7-1.2,6.16-3.12,11.85-5.75,17.07-2.63,5.22-5.31,9.5-8.03,12.85-2.72,3.35-5.04,5.87-6.95,7.57s-3.27,2.84-4.1,3.41c.49-1.49,1.21-4.04,2.16-7.67.96-3.63,1.94-8.22,2.95-13.78,1.01-5.56,1.57-10.74,1.67-15.52.05-2.51-.1-5.15-.47-7.92-.34-2.35-1-4.87-1.97-7.56-.97-2.69-2.06-5.24-3.28-7.64-1.42-.75-2.59-1.32-3.53-1.71-.94-.39-1.58-.66-1.94-.8.26-.03.63-.04,1.1-.05.47,0,1.47,0,3,.04-.69-1.32-1.4-2.62-2.14-3.9-.74-1.29-1.25-2.14-1.53-2.57l27.79-9.63c.12.62.31,1.77.59,3.46.27,1.68.55,3.94.84,6.76.28,2.82.48,5.67.58,8.53,7.13,1.45,12.77,3.67,16.91,6.65,1.59-4.62,3.67-8.84,6.22-12.64,2.55-3.81,4.8-6.71,6.73-8.72,1.93-2.01,3.33-3.37,4.19-4.06-.67,2.27-1.52,5.98-2.55,11.13-1.04,5.15-1.61,10.61-1.73,16.37-.12,5.99.5,11.13,1.88,15.42,2.96,4.72,5.33,9.13,7.1,13.24,1.96,2.84,3.68,5.21,5.15,7.12,1.47,1.9,2.56,3.27,3.26,4.1l-22.21,13.5c-1.13-2.2-2.71-5.81-4.76-10.82-2.04-5.01-3.68-10.29-4.9-15.85Z"/>
      <path class="cls-4" d="M393.8,42.41c.23-.29.43-.53.6-.72.17-.19.27-.32.3-.38-.03,0-.11.41-.22,1.22,6.91,1.09,13.69,2.97,20.35,5.65,6.65,2.68,12.34,6.78,17.06,12.3,4.72,5.52,6.99,12.51,6.82,20.97-.19,9.02-3.14,16.28-8.85,21.79-5.72,5.51-12.36,9.48-19.93,11.89-7.57,2.41-14.18,3.9-19.82,4.45-5.64.55-9.72.81-12.23.79,1.24-.33,3.28-1.04,6.1-2.12,2.82-1.08,6-2.72,9.53-4.93l-22.01,6.13c-.17-.98-.43-2.7-.77-5.14-.34-2.45-.66-5.66-.97-9.62-.31-3.96-.42-7.9-.34-11.8.11-5.47.68-10.23,1.71-14.27,1.44-5.31,4.07-10.85,7.87-16.64,3.8-5.78,7.84-11.3,12.11-16.55-1.16-.71-2.1-1.26-2.82-1.65-.72-.39-1.54-.81-2.44-1.27-.9-.46-1.55-.76-1.93-.92-.39-.15-.66-.27-.82-.33,2.86.06,6.44.44,10.72,1.15ZM395.53,111.94c12.12-8.08,18.31-18.62,18.58-31.6.07-5.01-.93-9.67-3-13.96-2.08-4.29-4.64-8-7.71-11.12-3.06-3.12-6.37-5.88-9.94-8.27-1.8,9.76-2.77,18.24-2.92,25.43-.1,4.95.18,9.15.86,12.62.38,2.09.91,5.31,1.58,9.65.67,4.34,1.22,7.96,1.63,10.85.41,2.89.72,5.02.92,6.39Z"/>
      <path class="cls-4" d="M484.28,80.68c1.71-4.07,3.21-9.19,4.5-15.36s2.24-11.68,2.86-16.52c.62-4.84,1.03-8.28,1.24-10.33l27.7-5.04c-.46,1.52-1.33,4.17-2.61,7.96-1.28,3.78-2.95,8.34-5,13.67-2.05,5.33-4.55,11.1-7.49,17.3-2.95,6.21-5.83,11.3-8.65,15.28-3.69,5.3-8.13,10.59-13.32,15.89-5.19,5.3-10.2,10.03-15.02,14.19-4.82,4.16-8.87,7.52-12.13,10.05-3.26,2.54-5.55,4.28-6.87,5.23,1.97-2.43,5.09-6.46,9.36-12.09s8.97-12.31,14.12-20.05c5.14-7.74,8.91-14.47,11.31-20.18Z"/>
    </g>
    <g>
      <path class="cls-2" d="M69.33,9.42c.29,2.21-1.61,4.16-4.25,4.35-2.64.19-5.03-1.46-5.32-3.67s1.61-4.16,4.25-4.35,5.03,1.46,5.32,3.67Z"/>
      <path class="cls-2" d="M58.09,128.51c.29,2.21-1.61,4.16-4.25,4.35-2.64.19-5.03-1.46-5.32-3.67s1.61-4.16,4.25-4.35,5.03,1.46,5.32,3.67Z"/>
      <path class="cls-2" d="M662.58,18.47c.29,2.21-1.61,4.16-4.25,4.35-2.64.19-5.03-1.46-5.32-3.67s1.61-4.16,4.25-4.35,5.03,1.46,5.32,3.67Z"/>
      <path class="cls-2" d="M665.68,145.73c.29,2.21-1.61,4.16-4.25,4.35-2.64.19-5.03-1.46-5.32-3.67s1.61-4.16,4.25-4.35c2.64-.19,5.03,1.46,5.32,3.67Z"/>
    </g>
    <rect class="cls-6" x="531.27" y="26.46" width="108.51" height="108.51" rx="23.76" ry="23.76"/>
  </g>
</svg>