<?xml version="1.0" encoding="UTF-8"?>
<svg id="Calque_1" data-name="Calque 1" xmlns="http://www.w3.org/2000/svg" viewBox="0 0 2001.7 1971.66">
  <defs>
    <style>
      .cls-1 {
        fill: #898989;
      }

      .cls-1, .cls-2, .cls-3 {
        stroke-width: 0px;
      }

      .cls-2 {
        fill: #fff7d2;
      }

      .cls-4 {
        fill: #afd4db;
      }

      .cls-4, .cls-5 {
        stroke: #000;
        stroke-miterlimit: 10;
        stroke-width: 2.8px;
      }

      .cls-5 {
        fill: none;
      }

      .cls-3 {
        fill: #4d4d4d;
      }
    </style>
  </defs>
  <polygon class="cls-4" points="2001.7 55.77 2001.7 2001.71 0 2001.71 0 1971.66 2001.7 55.77"/>
  <polygon class="cls-2" points="2001.7 0 2001.7 55.77 0 1971.66 0 0 2001.7 0"/>
  <g>
    <polygon class="cls-3" points="-126 2049.77 515.7 1436.36 -97.71 2078.06 -126 2049.77 -126 2049.77"/>
    <polygon class="cls-3" points="-20.17 2298.42 542.72 1611.98 11.32 2323.08 -20.17 2298.42 -20.17 2298.42"/>
    <polygon class="cls-3" points="2037.57 2157.52 1575.09 1641.73 2066.57 2129.97 2037.57 2157.52 2037.57 2157.52"/>
    <polygon class="cls-3" points="786.99 2210.68 841.98 1731.19 826.89 2213.58 786.99 2210.68 786.99 2210.68"/>
    <line class="cls-5" x1="0" y1="1971.66" x2="-68.02" y2="2036.76"/>
    <line class="cls-5" x1="2088.74" y1="-27.54" x2="2001.7" y2="55.77"/>
    <polygon class="cls-1" points="436.06 2168.91 568 1833.71 474.04 2181.47 436.06 2168.91 436.06 2168.91"/>
    <polygon class="cls-1" points="1132.23 2112.43 1043.75 1662.15 1171.1 2103.02 1132.23 2112.43 1132.23 2112.43"/>
    <polygon class="cls-1" points="2117.48 1580.24 1773.45 1473.4 2127.2 1541.44 2117.48 1580.24 2117.48 1580.24"/>
  </g>
  <g>
    <polygon class="cls-3" points="-75.7 8.03 537.71 649.73 -103.98 36.32 -75.7 8.03 -75.7 8.03"/>
    <polygon class="cls-3" points="155.5 -61.85 564.73 474.11 124.44 -36.65 155.5 -61.85 155.5 -61.85"/>
    <polygon class="cls-3" points="2088.58 -43.88 1597.1 444.36 2059.59 -71.43 2088.58 -43.88 2088.58 -43.88"/>
    <polygon class="cls-3" points="853.32 -87.66 863.99 354.9 813.41 -84.89 853.32 -87.66 853.32 -87.66"/>
    <line class="cls-5" x1="-46.01" y1="49.33" x2="22.01" y2="114.43"/>
    <polygon class="cls-1" points="496.05 -95.38 590.01 252.38 458.07 -82.82 496.05 -95.38 496.05 -95.38"/>
    <polygon class="cls-1" points="1193.12 -16.93 1065.76 423.94 1154.24 -26.34 1193.12 -16.93 1193.12 -16.93"/>
    <polygon class="cls-1" points="2149.21 544.65 1795.46 612.69 2139.49 505.85 2149.21 544.65 2149.21 544.65"/>
  </g>
</svg>