<?xml version="1.0" encoding="UTF-8"?>
<svg id="Calque_1" data-name="Calque 1" xmlns="http://www.w3.org/2000/svg" viewBox="0 0 2001.7 1971.66">
  <defs>
    <style>
      .cls-1, .cls-2 {
        isolation: isolate;
      }

      .cls-3 {
        fill: #2d2721;
      }

      .cls-3, .cls-4, .cls-5, .cls-6, .cls-2 {
        stroke-width: 0px;
      }

      .cls-4 {
        fill: #684f3a;
      }

      .cls-5 {
        fill: #5e0000;
      }

      .cls-6 {
        fill: #d83232;
      }

      .cls-2 {
        fill: #000;
        opacity: .78;
      }
    </style>
  </defs>
  <rect class="cls-2" x="135.44" y="1750.14" width="897.75" height="196.09" rx="98.04" ry="98.04"/>
  <g class="cls-1">
    <path class="cls-4" d="M287.16,1838.59c.12,7.3,1.96,13.84,5.54,19.6,3.57,5.76,7.72,10.53,12.45,14.3,4.73,3.77,8.88,6.59,12.45,8.47s6.14,3.13,7.71,3.75c-2.81,0-7.36-.36-13.65-1.08-6.29-.72-13.68-2.55-22.18-5.48s-15.93-7.7-22.29-14.3c-6.37-6.6-9.55-15.25-9.55-25.96,0-14.02,5.32-24.63,15.97-31.82,10.64-7.19,21.33-11.71,32.05-13.56,10.72-1.85,18.72-2.8,23.99-2.84-1.76.51-4.64,1.62-8.64,3.34-4,1.72-8.66,4.48-13.97,8.29-5.31,3.81-9.95,8.85-13.92,15.12-3.97,6.27-5.95,13.66-5.95,22.18Z"/>
    <path class="cls-4" d="M360.99,1793.24c-1.41-.9-2.54-1.59-3.4-2.08-.86-.49-1.46-.83-1.82-1.03,1.21,0,2.85.09,4.92.26,2.07.18,4.35.5,6.86.97,3.87-1.02,7.39-1.67,10.58-1.96,3.18-.29,5.99-.44,8.41-.44-.66.2-1.9.7-3.72,1.49-1.82.8-3.7,1.85-5.65,3.13,5.94,1.76,11.37,4.3,16.29,7.62,4.92,3.32,8.99,7.92,12.22,13.8,3.22,5.88,4.83,12.96,4.83,21.24,0,14.06-4.26,24.72-12.77,31.96-8.52,7.25-17.06,11.86-25.63,13.83-8.57,1.97-14.97,3.02-19.19,3.13.94-.35,2.46-1.07,4.57-2.17,2.11-1.09,4.51-2.7,7.21-4.8-3.98-1.25-7.8-2.84-11.46-4.78-3.65-1.93-7.23-4.6-10.72-8-3.5-3.4-6.37-7.65-8.61-12.74-2.25-5.1-3.43-10.99-3.54-17.67,0-7.89,1.44-14.66,4.34-20.3,2.89-5.64,6.61-10.16,11.16-13.54,4.55-3.38,9.6-6.03,15.15-7.94ZM369.01,1799.98c-2.58,2.5-4.93,5.47-7.06,8.91-2.13,3.44-3.85,7.41-5.16,11.92-1.31,4.51-1.96,9.48-1.96,14.91.12,9.06,1.5,16.79,4.16,23.17,2.66,6.39,5.84,11.75,9.55,16.08,4.84-4.37,8.85-9.79,12.01-16.23s4.75-13.95,4.75-22.5c-.12-7.77-1.72-14.69-4.8-20.74-3.09-6.05-6.91-11.23-11.48-15.53Z"/>
    <path class="cls-4" d="M474.72,1814.16c.16,3.36.23,5.96.23,7.79,0,5-.37,9.59-1.11,13.77-1.29,7.42-3.45,14.3-6.47,20.62-3.03,6.33-6.13,11.54-9.32,15.62-3.18,4.08-5.9,7.17-8.14,9.26-2.25,2.09-3.86,3.49-4.83,4.19.55-1.79,1.35-4.88,2.4-9.26,1.05-4.37,2.12-9.91,3.19-16.61,1.07-6.7,1.61-12.92,1.61-18.66,0-3.28-.23-6.42-.7-9.43-.74-4.18-2.31-8.79-4.69-13.83v3.63c0,4.61-.37,9.2-1.11,13.77-1.29,7.42-3.45,14.3-6.47,20.62-3.03,6.33-6.13,11.54-9.32,15.62-3.18,4.08-5.9,7.17-8.14,9.26-2.25,2.09-3.86,3.49-4.83,4.19.55-1.79,1.35-4.88,2.4-9.26,1.05-4.37,2.12-9.91,3.19-16.61,1.07-6.7,1.61-12.92,1.61-18.66,0-3.01-.25-6.17-.76-9.49-.78-5.12-2.68-10.5-5.68-16.14-3.01-5.64-5.43-9.85-7.27-12.63l33.11-12.25c.16.7.39,1.93.7,3.69.31,1.76.68,4.01,1.11,6.74l26.31-9.73c.16.67.4,2,.73,4.01.33,2.01.63,4.11.91,6.3l27.83-10.31c.16.67.39,1.9.7,3.72.31,1.82.66,4.15,1.05,7,.39,2.85.74,6.02,1.05,9.49.31,3.48.47,7.27.47,11.37,0,5-.37,9.59-1.11,13.77-1.29,7.42-3.45,14.3-6.47,20.62-3.03,6.33-6.13,11.54-9.32,15.62-3.18,4.08-5.9,7.17-8.14,9.26-2.25,2.09-3.86,3.49-4.83,4.19.55-1.79,1.35-4.88,2.4-9.26,1.05-4.37,2.12-9.91,3.19-16.61,1.07-6.7,1.61-12.92,1.61-18.66,0-3.4-.25-6.54-.76-9.43-.66-4.57-2.77-10.33-6.33-17.29Z"/>
    <path class="cls-4" d="M531.19,1793.36l7.2-2.75s.23,1.17.58,3.52c5.58.55,10.88,1.46,15.89,2.75,5.02,1.29,9.65,3.13,13.9,5.51,4.25,2.38,7.69,5.54,10.3,9.46,2.61,3.93,3.92,8.61,3.92,14.03s-2.63,10.09-7.9,14.44c-5.27,4.36-11.76,8.04-19.47,11.04-7.71,3.01-15.82,5.57-24.32,7.68-2.54,4.3-5.16,8.29-7.87,11.98-2.71,3.69-5.03,6.71-6.94,9.05-1.91,2.34-3.26,3.96-4.04,4.86.35-1.68.88-4.52,1.58-8.53.7-4,1.35-8.68,1.93-14.03-2.11.35-3.49.58-4.13.67-.64.1-1.14.19-1.49.26.04,0,1.95-.76,5.74-2.29.39-4.77.59-9.28.59-13.54,0-5.9-.43-10.94-1.29-15.12-.94-4.69-2.63-9.95-5.07-15.79-2.44-5.84-4.37-10.19-5.77-13.04l19.1-7.27c-1.95-.82-3.57-1.46-4.86-1.9-1.29-.45-2.19-.75-2.7-.91.51-.04,1.43-.09,2.78-.15,1.35-.06,3.01-.09,5.01-.09,1.48,0,2.75,0,3.8.03,1.05.02,2.22.05,3.51.09ZM540.46,1805.25c.35,3.16.62,6.13.79,8.91.18,2.78.26,5.53.26,8.26,0,6.8-.57,12.52-1.7,17.17-.7,2.97-2.01,6.6-3.93,10.9,12.07-8.12,18.16-16.33,18.28-24.61,0-7.5-4.57-14.38-13.71-20.62Z"/>
    <path class="cls-4" d="M616.79,1867.89c7.96-10,13.37-18.59,16.22-25.78,1.01-2.81,1.83-6.69,2.43-11.63.61-4.94,1.04-10.14,1.32-15.62.27-5.47.44-9.76.5-12.89.06-3.12.09-5.43.09-6.91l34.78,5.98c-.55,2.66-1.58,6.94-3.1,12.83-1.52,5.9-3.72,12.6-6.59,20.1-2.87,7.5-6.08,13.38-9.63,17.64-4.8,5.82-10.18,10.97-16.13,15.44-5.95,4.47-11.46,8.03-16.51,10.66s-9.23,4.58-12.53,5.83c-3.3,1.25-5.59,2.07-6.88,2.46.19,0,2.91-2.87,8.14-8.61l-21.9,8.03c-.55-2.62-1.23-6.88-2.05-12.8s-1.23-12.16-1.23-18.72c0-5,.37-9.61,1.11-13.83,1.29-7.5,3.44-14.39,6.44-20.68,3.01-6.29,6.17-11.54,9.49-15.76,3.32-4.22,6.04-7.3,8.17-9.26,2.13-1.95,3.68-3.28,4.66-3.98-.55,1.8-1.35,4.88-2.4,9.26-1.05,4.38-2.12,9.91-3.19,16.61-1.07,6.7-1.61,12.92-1.61,18.66,0,3.44.25,6.6.76,9.49.9,5.9,4.12,13.73,9.66,23.5Z"/>
    <path class="cls-4" d="M706.89,1820.49c-.9.08-2.27.12-4.1.12-5.98,0-11.97-.59-17.97-1.76-6-1.17-10.41-2.15-13.22-2.93l14.25-23.38c1.95.94,5.13,2.28,9.53,4.01,4.4,1.74,9.04,3.16,13.92,4.25.43-4.3.7-7.41.82-9.35s.2-3.37.23-4.31c.23.43.62,1.25,1.17,2.46.55,1.21,1.37,3.07,2.46,5.57,1.09,2.5,2.01,4.71,2.76,6.62h.59c9.62,0,18.37-.71,26.27-2.14,7.9-1.43,13.5-2.61,16.83-3.54-3.36,2.27-8.69,5.54-15.98,9.81-7.29,4.28-14.77,7.86-22.43,10.75.9,2.7,1.67,5.34,2.32,7.94.64,2.6,1.15,5.11,1.52,7.53.37,2.42.58,4.63.62,6.62,0,4.53-.73,9.46-2.2,14.77-1.47,5.31-3.18,10.22-5.13,14.71-1.96,4.49-3.65,8.12-5.07,10.9-1.43,2.78-2.47,4.71-3.14,5.8l-27.09-13.54c.51-.51,1.35-1.44,2.52-2.78,1.17-1.35,2.73-3.37,4.66-6.06,1.93-2.7,3.95-5.98,6.04-9.87,2.09-3.89,3.88-8.09,5.37-12.63,1.68-5,3.17-11.52,4.46-19.57Z"/>
    <path class="cls-4" d="M786.85,1832.85l36.68-7.68c-.2,1.41-.52,3.62-.97,6.65-.45,3.03-.88,6.09-1.29,9.17-.41,3.09-.62,5.25-.62,6.5,0-.12-1.93-.41-5.8-.88s-7.81-.91-11.84-1.32c-4.02-.41-9.94-1-17.75-1.79-1.88,8.24-4.75,15.64-8.61,22.21,8.28-3.71,14.79-5.82,19.51-6.33,3.32-.39,7.48-.59,12.48-.59,4.18,0,7.83.09,10.96.26,3.12.18,5.82.37,8.09.59,2.26.21,3.81.36,4.63.44l-15,25.55c-.47-.55-1.44-1.43-2.9-2.64-1.46-1.21-3.68-2.56-6.65-4.04-2.97-1.48-6.43-2.58-10.37-3.28-2.62-.51-5.05-.85-7.29-1.03-2.25-.18-4.81-.26-7.71-.26-3.24,0-7.4.23-12.48.7-2.42,2.73-4.68,4.93-6.77,6.59-2.09,1.66-3.57,2.75-4.42,3.25.16-.55.4-1.64.73-3.28.33-1.64.62-3.3.85-4.98-2.34.39-4.14.74-5.39,1.05-1.25.31-2.13.55-2.64.7-.12,0,2.71-1.64,8.5-4.92,1.52-8.71,2.29-17.3,2.29-25.78,0-1.41-.08-3.52-.23-6.33-2.27-.2-4.31-.38-6.12-.56s-3.16-.3-4.04-.38c-.88-.08-1.49-.14-1.85-.18l11.78-2.4c-.16-1.17-.47-3.01-.94-5.51-.67-3.16-2.38-8.24-5.16-15.23-1.29-.2-2.33-.35-3.13-.47-.8-.12-1.37-.2-1.7-.23-.33-.04-.58-.08-.73-.12.39,0,1.99-.33,4.8-1-1.17-2.73-2.29-5.16-3.34-7.29-1.05-2.13-1.82-3.62-2.29-4.48l31.7-12.95c.31,1.21.78,3.3,1.41,6.27.62,2.97,1.23,6.48,1.82,10.55,1.91-.59,4.2-1.43,6.86-2.52,5.19-2.03,9.46-4.78,12.8-8.26,3.34-3.48,5.6-6.17,6.77-8.09l19.86,20.04c-2.7,1.49-7.04,3.47-13.04,5.95-6,2.48-12.12,4.19-18.37,5.13-2.93.39-5.94.59-9.02.59-1.91,0-3.34-.04-4.28-.12.23,2.85.35,5.74.35,8.67,0,1.84-.04,3.19-.12,4.04Z"/>
    <path class="cls-4" d="M867.35,1794.12c5.59.55,10.89,1.46,15.91,2.75,5.02,1.29,9.66,3.13,13.92,5.51,4.26,2.38,7.7,5.54,10.31,9.46,2.62,3.93,3.93,8.61,3.93,14.03,0,8.63-7.6,16.49-22.79,23.55,9.73,2.7,16.6,5.61,20.62,8.73,5,3.95,9.01,7.93,12.04,11.95,3.03,4.02,5.05,6.97,6.06,8.85l-28.65,7.44c-.12-.51-.41-1.45-.88-2.81s-1.41-3.42-2.81-6.15c-1.41-2.73-3.22-5.76-5.45-9.08-3.67-5.31-7.99-10.02-12.95-14.12-6.02,1.96-11.7,3.6-17.05,4.92-2.38,4.02-4.99,7.98-7.82,11.87-2.83,3.89-5.17,6.95-7,9.2-1.84,2.25-3.14,3.82-3.93,4.72.35-1.68.88-4.52,1.58-8.53.7-4,1.35-8.68,1.93-14.03-2.11.35-3.49.58-4.13.67-.64.1-1.14.19-1.49.26.04,0,1.95-.76,5.74-2.29.39-4.77.59-9.28.59-13.54,0-5.9-.43-10.94-1.29-15.12-.94-4.69-2.63-9.95-5.07-15.79-2.44-5.84-4.37-10.19-5.77-13.04l19.1-7.27c-1.95-.82-3.57-1.46-4.86-1.9-1.29-.45-2.19-.75-2.7-.91.51-.04,1.44-.09,2.78-.15s3.02-.09,5.01-.09c1.48,0,2.75,0,3.81.03,1.05.02,2.23.05,3.52.09l7.21-2.75s.23,1.17.59,3.52ZM867.82,1847.85c-.94-.47-1.62-.82-2.05-1.05-.2.47-.74,1.7-1.64,3.69,1.56-.97,2.79-1.85,3.69-2.64ZM871.1,1845.33c7.54-6.45,11.37-12.93,11.48-19.45,0-7.5-4.59-14.38-13.77-20.62.35,3.16.62,6.13.79,8.91.18,2.78.26,5.53.26,8.26,0,6.8-.57,12.52-1.7,17.17-.31,1.33-.78,2.97-1.41,4.92,2.38.43,3.83.7,4.34.82Z"/>
  </g>
  <rect class="cls-2" x="1163.5" y="36.27" width="717.48" height="196.09" rx="98.04" ry="98.04"/>
  <g class="cls-1">
    <path class="cls-4" d="M1360.76,79.49l7.2-2.75s.23,1.17.58,3.52c5.58.55,10.88,1.46,15.89,2.75s9.65,3.13,13.9,5.51c4.25,2.38,7.69,5.54,10.3,9.46,2.61,3.93,3.92,8.6,3.92,14.03s-2.63,10.09-7.9,14.44c-5.27,4.36-11.76,8.04-19.47,11.04-7.71,3.01-15.82,5.57-24.32,7.68-2.54,4.3-5.16,8.29-7.88,11.98s-5.03,6.71-6.94,9.05-3.26,3.96-4.04,4.86c.35-1.68.88-4.52,1.58-8.53.7-4,1.35-8.68,1.93-14.03-2.11.35-3.49.58-4.13.67-.64.1-1.14.19-1.49.26.04,0,1.95-.76,5.74-2.29.39-4.77.59-9.28.59-13.54,0-5.9-.43-10.94-1.29-15.12-.94-4.69-2.63-9.95-5.07-15.79-2.44-5.84-4.37-10.19-5.77-13.04l19.1-7.27c-1.95-.82-3.57-1.46-4.86-1.9-1.29-.45-2.19-.75-2.7-.91.51-.04,1.43-.09,2.78-.15,1.35-.06,3.01-.09,5.01-.09,1.48,0,2.75,0,3.8.03,1.05.02,2.22.05,3.51.09ZM1370.03,91.38c.35,3.16.62,6.13.79,8.91.18,2.77.26,5.53.26,8.26,0,6.8-.57,12.52-1.7,17.17-.7,2.97-2.01,6.6-3.93,10.9,12.07-8.12,18.16-16.33,18.28-24.61,0-7.5-4.57-14.38-13.71-20.62Z"/>
    <path class="cls-4" d="M1432.26,155.37c2.85-1.25,5.33-2.25,7.44-2.99,2.77-1.05,6.78-1.58,12.01-1.58,2.85,0,5.53.12,8.03.35,2.5.23,4.3.43,5.39.59l-4.69,19.69c-1.99-1.17-4.84-2.65-8.55-4.42-3.71-1.78-6.74-2.7-9.08-2.78-.78-.08-2.15-.12-4.1-.12-2.85,0-7.17.16-12.95.47-1.68,2.03-3.19,3.64-4.54,4.83-1.35,1.19-2.31,1.98-2.9,2.37.16,0,.76-2.26,1.82-6.8-1.09.08-1.92.14-2.46.18-.55.04-1.15.09-1.82.15-.67.06-1.07.1-1.2.12-.14.02-.26.03-.38.03.39-.31,1.17-.86,2.34-1.64,1.17-.78,2.62-1.68,4.34-2.7.7-3.36,1.34-7.13,1.9-11.31.57-4.18.85-8.05.85-11.6,0-2.73-.16-5.06-.47-6.97-.43-2.66-1.36-5.59-2.78-8.79-1.43-3.2-2.78-5.91-4.07-8.12-1.29-2.21-2.25-3.78-2.87-4.72l24.84-9.08c.39,1.95.87,5.13,1.44,9.52.57,4.39.85,9.05.85,13.97,0,4.38-.23,7.85-.7,10.43-1.33,7.73-3.89,14.71-7.68,20.92Z"/>
    <path class="cls-4" d="M1493.02,151.73c-.08,1.68-.12,4.24-.12,7.68,0,2.7.06,5.16.18,7.38s.21,3.81.29,4.75l-21.8-4.57c.12-1.09.37-2.83.76-5.21.39-2.38,1.01-5.35,1.88-8.91-2.19-.2-4.13-.45-5.83-.76-1.7-.31-2.88-.55-3.54-.7l5.27-17.52c.7.31,2.05.81,4.04,1.49,1.99.68,3.93,1.26,5.8,1.73.78-1.37,1.82-2.91,3.11-4.63,3.12-3.83,8.85-8.71,17.17-14.65-1.45-1.13-2.6-2.02-3.46-2.67-.86-.64-1.52-1.14-1.99-1.49s-.82-.61-1.05-.76l23.2-12.13c.9,1.17,2.26,3.19,4.07,6.06s3.75,6.55,5.8,11.04c2.05,4.49,3.31,8.91,3.78,13.24.08.62.12,1.58.12,2.87,0,3.52-.51,7.39-1.52,11.63-1.02,4.24-2.14,8.01-3.37,11.31-1.23,3.3-2.37,6.12-3.43,8.47s-1.8,3.96-2.23,4.86v-3.16c0-4.53-.23-9.29-.7-14.27s-1.43-9.7-2.87-14.15c-7.42,5.78-15.27,10.14-23.55,13.07ZM1514.99,134.45c-.47-1.05-1.15-2.32-2.05-3.81-1.6-2.58-4.2-5.47-7.79-8.67-2.46,4.34-4.21,7.46-5.24,9.38-1.04,1.91-2.22,4.39-3.54,7.44,4.65-.55,10.86-1.99,18.63-4.34Z"/>
    <path class="cls-4" d="M1558.88,138.9c-4.45-3.05-7.85-6.21-10.2-9.49-2.93-4.14-5.19-8.42-6.77-12.83-1.58-4.41-2.62-8.06-3.11-10.93-.49-2.87-.75-4.87-.79-6.01,1.52,2.27,4.17,5.71,7.94,10.34,3.77,4.63,8.15,8.96,13.15,12.98,2.77,2.11,6.05,3.83,9.84,5.16,2.58-3.32,5.07-6.79,7.47-10.4,2.4-3.61,4.43-6.78,6.09-9.49,1.66-2.71,2.78-4.6,3.37-5.65-.31,2.15-1.04,5.73-2.17,10.75-1.13,5.02-2.7,10.34-4.69,15.97,1.8-.12,3.27-.27,4.42-.47,1.15-.2,1.96-.35,2.43-.47l-10.31,17.99c-.31,0-1.56-.39-3.75-1.17-1.76,2.93-3.56,5.49-5.39,7.68-3.32,3.98-7.5,7.71-12.54,11.19-5.04,3.48-8.89,5.94-11.54,7.38l-12.48-20.51c1.25-.2,3.32-.66,6.21-1.41,2.89-.74,6.47-2,10.75-3.78,4.28-1.78,8.06-3.9,11.34-6.36.12-.08.22-.16.32-.23.1-.08.22-.16.38-.23Z"/>
    <path class="cls-4" d="M1612.9,131.93l27.6-5.74c-.35,2.42-.8,5.61-1.35,9.55-.55,3.95-.82,6.37-.82,7.27,0-.16-2.21-.48-6.62-.97-4.42-.49-11.04-1.16-19.86-2.02-1.49,6.29-3.65,11.84-6.5,16.64,6.41-2.77,11.29-4.37,14.65-4.8,1.91-.23,4.9-.35,8.96-.35,4.34,0,8.08.13,11.22.38,3.14.25,5.46.46,6.94.62l-11.31,19.16c-.35-.43-1.05-1.08-2.11-1.96s-2.72-1.89-4.98-3.05c-2.27-1.15-4.86-2-7.79-2.55-3.28-.62-7.03-.94-11.25-.94-3.13,0-6.29.2-9.49.59-1.8,2.07-3.47,3.72-5.01,4.95-1.54,1.23-2.63,2.02-3.25,2.37l1.17-6.21c-1.95.31-3.34.58-4.16.79-.82.21-1.43.38-1.82.5-.35,0,1.76-1.19,6.33-3.57,1.13-7.03,1.7-13.48,1.7-19.34,0-1.05,0-1.91-.03-2.58-.02-.66-.05-1.41-.09-2.23-2.23-.2-3.96-.35-5.19-.47s-2.11-.2-2.64-.23c-.53-.04-.93-.08-1.2-.12l8.79-1.82c-.12-1.56-.37-2.97-.76-4.22-.74-3.55-2.01-7.3-3.81-11.25-1.17-.2-2.1-.36-2.78-.5-.68-.14-1.16-.22-1.44-.26.12,0,1.33-.23,3.63-.7-.98-2.34-1.84-4.25-2.58-5.71-.74-1.46-1.29-2.51-1.64-3.13l23.79-9.73c.23.9.57,2.46,1,4.69.43,2.23.88,4.9,1.35,8.03,1.09-.39,1.99-.71,2.7-.97.7-.25,1.54-.58,2.52-.97,3.95-1.56,7.15-3.64,9.61-6.24,2.46-2.6,4.12-4.6,4.98-6.01l15,15c-.9.47-2.41,1.21-4.54,2.23-2.13,1.02-5.02,2.16-8.67,3.43-3.65,1.27-7.12,2.14-10.4,2.61-1.8.27-4.04.41-6.74.41-1.45,0-2.52-.04-3.22-.12.16,2.81.23,5,.23,6.56,0,1.37-.04,2.36-.12,2.99Z"/>
    <path class="cls-4" d="M1672.32,102.93c5.7.55,11,1.64,15.88,3.28,4.88,1.64,8.96,4.17,12.22,7.59,3.26,3.42,4.89,7.74,4.89,12.98,0,6.52-5.72,12.4-17.17,17.64,7.34,1.99,12.54,4.2,15.59,6.62,3.75,2.93,6.77,5.89,9.05,8.88s3.8,5.19,4.54,6.59l-21.5,5.62c-.16-.86-.74-2.47-1.76-4.83-1.02-2.36-2.72-5.26-5.1-8.7-2.66-3.95-5.9-7.46-9.73-10.55-5.04,1.64-9.32,2.87-12.83,3.69-1.88,3.16-3.84,6.15-5.89,8.96s-3.77,5.08-5.16,6.8c-1.39,1.72-2.37,2.91-2.96,3.57.27-1.25.68-3.46,1.23-6.62.55-3.16.98-6.6,1.29-10.31-1.8.35-2.86.56-3.19.62-.33.06-.64.11-.91.15.12,0,1.52-.57,4.22-1.7.31-4.3.47-7.7.47-10.2,0-4.57-.33-8.38-1-11.43-.78-3.79-2.05-7.79-3.81-12.01s-3.16-7.4-4.22-9.55l14.3-5.57c-1.88-.74-3.18-1.23-3.93-1.46-.74-.23-1.31-.41-1.7-.53.35-.04,1.03-.08,2.02-.12,1-.04,2.2-.06,3.6-.06.51,0,1.3.02,2.37.06,1.07.04,2.08.08,3.02.12l5.62-2.17s.21.88.53,2.64ZM1672.67,143.36c-.43-.31-.96-.62-1.58-.94-.23.62-.43,1.1-.59,1.44-.16.33-.39.85-.7,1.55.47-.35.95-.69,1.44-1.03.49-.33.97-.67,1.44-1.03ZM1675.07,141.3c5.62-4.96,8.5-9.8,8.61-14.53,0-5.39-3.4-10.55-10.2-15.47.47,5.16.7,9.43.7,12.83,0,5.08-.43,9.36-1.29,12.83-.43,1.49-.84,2.73-1.23,3.75,1.29.31,2.42.51,3.4.59Z"/>
  </g>
  <rect class="cls-3" x="-617.7" y="885.67" width="3116.23" height="338.24" transform="translate(-444.35 773.03) rotate(-36.78)"/>
  <g>
    <path class="cls-5" d="M855.52,1173.64c10.22,3.42,20.56,6.94,31.02,10.54,10.46,3.61,17.47,6.06,21.04,7.31l-200.86,171.62c-1.65.47-18.37-10.72-50.17-33.62-22.15,14.48-38,24.62-47.53,30.41-9.54,5.79-16.6,9.97-21.19,12.55,1.31-.38,15.85-20.92,43.62-61.66-33.01-25.82-63.52-53.18-91.56-82.1-28.03-28.91-48.6-57.61-61.75-86.09-6.29-14.45-11.54-29.07-15.78-43.85-20.74-72.27-21.85-137.79-3.34-196.56,18.51-58.76,35.97-100.41,52.4-124.94l4.54,15.83c12.73,44.35,31.58,94.31,56.59,149.85,25.01,55.55,56.35,100.64,94.02,135.28,16.74,15.01,43.47,31.33,80.18,48.99,37.79-69.01,60.35-122.33,67.68-160,5.37-23.39,6.8-53.38,4.3-90-2.51-36.6-6.05-68.73-10.61-96.39-4.55-27.64-8.05-47.59-10.49-59.85l298.96,3.04c-1.14,7.2-3.65,20.13-7.54,38.77-3.9,18.66-9.98,42.38-18.25,71.18s-19.3,59.75-33.09,92.81c-13.81,33.06-29.54,62.8-47.19,89.21-32.97,51.14-77.97,103.7-135,157.68h0Z"/>
    <path class="cls-5" d="M1248.29,794.33c2.1-.1,4.6-.05,7.51.12,32.35,1.14,70.9-4.72,115.63-17.56,38.15-10.95,74.85-24.45,110.09-40.55,35.25-16.08,60.39-28.32,75.43-36.7-3.46,5.32-10.95,14.57-22.47,27.76-11.52,13.21-28.49,29.42-50.9,48.66s-51.29,38.89-86.64,58.92c-35.34,20.04-75.55,36.52-120.57,49.44-21.24,5.35-45.61,10.31-73.12,14.9,10.6,15.88,30.1,26.78,58.49,32.68,41.99-16.1,76.46-28.02,103.43-35.76,38.78-11.13,75.97-18.56,111.55-22.3,35.57-3.74,66.77-.71,93.6,9.08,26.83,9.79,44.22,28.5,52.15,56.14,2.22,7.74,1.87,15.82-1.04,24.26l41.73,11.61c-15.59,21.31-41.93,50.35-79.03,87.13-37.11,36.79-77.77,62.42-121.99,76.9-5.92,1.7-15.29,4.39-28.1,8.06-73.29,21.03-139.7,30.98-199.25,29.85-59.54-1.12-101.92-4.14-127.17-9.06,5-1.17,13.95-3.44,26.88-6.76,12.93-3.32,28.43-7.59,46.51-12.78,43.06-12.36,85-26.47,125.8-42.37,40.81-15.89,74.41-33.07,100.77-51.54,18.36-12.88,36.29-27.9,53.78-45.12,2.9-9.71,3.08-19.01.52-27.92-7.12-24.83-28.22-40.07-63.29-45.74-52.04,13.4-103.62,24.34-154.74,32.78-51.12,8.46-96.67,10.61-136.65,6.45-39.97-4.14-63.5-18.53-70.57-43.18-1.14-3.98-2.13-9.92-2.98-17.81-2.64-22.85,5.66-44.78,24.89-65.81l26.84-70.17c-2.64.76,20.52,3.98,69.48,9.63,18.73-7.91,41.9-15.83,69.52-23.75,33.85-9.71,63.57-16.84,89.14-21.38,25.55-4.54,44-7.54,55.33-9.02-11.4,3.78-28.96,10.97-52.67,21.58-23.71,10.62-46.35,23.72-67.92,39.3l.03.03ZM1283.41,935.3c26.52,2.79,59.85,1.98,100.01-2.46-24.4-2.88-57.75-2.06-100.01,2.46Z"/>
  </g>
  <g>
    <path class="cls-6" d="M855.52,1150.38c10.22,3.42,20.56,6.94,31.02,10.54,10.46,3.61,17.47,6.06,21.04,7.31l-200.86,171.62c-1.65.47-18.38-10.72-50.17-33.62-22.15,14.48-37.99,24.62-47.53,30.41-9.54,5.79-16.6,9.97-21.19,12.55,1.31-.38,15.85-20.92,43.62-61.66-33.01-25.82-63.52-53.18-91.56-82.1-28.03-28.91-48.6-57.61-61.75-86.09-6.29-14.45-11.54-29.07-15.78-43.85-20.74-72.27-21.85-137.79-3.34-196.56,18.51-58.76,35.97-100.41,52.4-124.94l4.54,15.83c12.73,44.35,31.58,94.31,56.59,149.85,25.01,55.55,56.35,100.64,94.02,135.28,16.74,15.01,43.47,31.33,80.18,48.99,37.79-69.01,60.35-122.33,67.68-160,5.37-23.39,6.8-53.38,4.3-90-2.51-36.6-6.05-68.73-10.61-96.39-4.55-27.64-8.05-47.59-10.49-59.85l298.96,3.04c-1.14,7.2-3.65,20.13-7.54,38.77-3.9,18.66-9.98,42.38-18.25,71.18s-19.3,59.75-33.09,92.81c-13.81,33.06-29.54,62.8-47.19,89.21-32.97,51.14-77.97,103.7-135,157.68h0Z"/>
    <path class="cls-6" d="M1248.29,771.07c2.1-.1,4.6-.05,7.51.12,32.35,1.14,70.9-4.72,115.63-17.56,38.15-10.95,74.85-24.45,110.09-40.55,35.25-16.08,60.39-28.32,75.43-36.7-3.46,5.32-10.95,14.57-22.46,27.76-11.52,13.21-28.49,29.42-50.9,48.66-22.4,19.24-51.29,38.89-86.64,58.92-35.34,20.04-75.55,36.52-120.57,49.44-21.24,5.35-45.61,10.31-73.12,14.9,10.6,15.88,30.1,26.78,58.49,32.68,41.99-16.1,76.46-28.02,103.43-35.76,38.78-11.13,75.97-18.56,111.55-22.3,35.57-3.74,66.77-.71,93.6,9.08,26.84,9.79,44.22,28.5,52.15,56.14,2.22,7.74,1.87,15.82-1.04,24.26l41.73,11.61c-15.59,21.31-41.93,50.35-79.03,87.13-37.11,36.79-77.77,62.42-121.99,76.9-5.92,1.7-15.29,4.39-28.1,8.06-73.29,21.03-139.7,30.98-199.25,29.85-59.54-1.12-101.92-4.14-127.17-9.06,5-1.17,13.95-3.44,26.88-6.76,12.93-3.32,28.43-7.59,46.51-12.78,43.06-12.36,85-26.47,125.8-42.37,40.81-15.89,74.41-33.07,100.77-51.54,18.36-12.88,36.29-27.9,53.78-45.12,2.9-9.71,3.08-19.01.52-27.92-7.12-24.83-28.22-40.07-63.29-45.74-52.04,13.4-103.62,24.34-154.74,32.78-51.12,8.46-96.67,10.61-136.64,6.45-39.97-4.14-63.5-18.53-70.57-43.18-1.14-3.98-2.13-9.92-2.98-17.81-2.64-22.85,5.66-44.78,24.89-65.81l26.84-70.17c-2.64.76,20.52,3.98,69.48,9.63,18.73-7.91,41.9-15.83,69.52-23.75,33.85-9.71,63.57-16.84,89.14-21.38,25.55-4.54,44-7.54,55.33-9.02-11.4,3.78-28.96,10.97-52.67,21.58-23.71,10.62-46.35,23.72-67.92,39.3v.03ZM1283.41,912.04c26.52,2.79,59.85,1.98,100.01-2.46-24.4-2.88-57.75-2.06-100.01,2.46Z"/>
  </g>
</svg>