<?xml version="1.0" encoding="UTF-8"?>
<svg id="Calque_1" data-name="Calque 1" xmlns="http://www.w3.org/2000/svg" xmlns:xlink="http://www.w3.org/1999/xlink" viewBox="0 0 2000 2000">
  <defs>
    <style>
      .cls-1 {
        fill: url(#Dégradé_sans_nom_89-2);
      }

      .cls-1, .cls-2, .cls-3, .cls-4, .cls-5, .cls-6, .cls-7, .cls-8, .cls-9, .cls-10, .cls-11, .cls-12 {
        stroke-width: 0px;
      }

      .cls-2 {
        fill: url(#Dégradé_sans_nom_89-3);
      }

      .cls-3 {
        fill: url(#Dégradé_sans_nom_89);
      }

      .cls-4 {
        fill: none;
      }

      .cls-5 {
        fill: #f4ddab;
      }

      .cls-6 {
        fill: url(#Dégradé_sans_nom_70-3);
      }

      .cls-7 {
        fill: #4abcf4;
      }

      .cls-8 {
        fill: url(#Dégradé_sans_nom_70-2);
      }

      .cls-9 {
        fill: url(#Dégradé_sans_nom_70);
      }

      .cls-10 {
        fill: #fff6bf;
      }

      .cls-11 {
        fill: #d9a84e;
      }

      .cls-12 {
        fill: #f2cf66;
      }
    </style>
    <linearGradient id="Dégradé_sans_nom_89" data-name="Dégradé sans nom 89" x1="370.61" y1="1659.98" x2="1963.67" y2="1659.98" gradientUnits="userSpaceOnUse">
      <stop offset=".17" stop-color="#8c5e26"/>
      <stop offset=".32" stop-color="#f2cf66"/>
      <stop offset=".48" stop-color="#8c5e26"/>
      <stop offset=".66" stop-color="#8c5e26"/>
      <stop offset=".79" stop-color="#f2cf66"/>
      <stop offset=".88" stop-color="#8c5e26"/>
    </linearGradient>
    <linearGradient id="Dégradé_sans_nom_70" data-name="Dégradé sans nom 70" x1="370.6" y1="1578.28" x2="1962.98" y2="1578.28" gradientUnits="userSpaceOnUse">
      <stop offset="0" stop-color="#d9a84e"/>
      <stop offset=".52" stop-color="#f2cf66"/>
      <stop offset=".88" stop-color="#d9a84e"/>
    </linearGradient>
    <linearGradient id="Dégradé_sans_nom_89-2" data-name="Dégradé sans nom 89" x1="485.01" y1="1577.29" x2="1849.27" y2="1577.29" xlink:href="#Dégradé_sans_nom_89"/>
    <linearGradient id="Dégradé_sans_nom_70-2" data-name="Dégradé sans nom 70" x1="485" y1="1507.33" x2="1848.67" y2="1507.33" xlink:href="#Dégradé_sans_nom_70"/>
    <linearGradient id="Dégradé_sans_nom_89-3" data-name="Dégradé sans nom 89" x1="581.04" y1="1496.88" x2="1753.22" y2="1496.88" xlink:href="#Dégradé_sans_nom_89"/>
    <linearGradient id="Dégradé_sans_nom_70-3" data-name="Dégradé sans nom 70" x1="581.03" y1="1436.77" x2="1752.71" y2="1436.77" xlink:href="#Dégradé_sans_nom_70"/>
  </defs>
  <rect class="cls-10" x="-164.93" y="610.47" width="2308.09" height="1438.72"/>
  <polygon class="cls-5" points="-69.95 810.39 -69.95 882.02 428.43 1555.29 1947.07 1587.58 -69.95 810.39"/>
  <g>
    <g>
      <path class="cls-3" d="M1963.67,1644.87c0,53.46-356.46,96.81-796.18,96.81s-796.2-43.35-796.2-96.81l-.68-65.97c.6,11.52,17.74,22.56,48.67,32.78,111.89,37.01,404.34,63.4,747.51,63.4s636.81-26.5,748.19-63.62c31.06-10.35,48-21.53,48-33.19l.68,65.97v.63Z"/>
      <path class="cls-9" d="M1962.98,1578.27c0,11.66-16.93,22.84-48,33.19-111.37,37.12-404.33,63.62-748.19,63.62s-635.62-26.4-747.51-63.4c-30.93-10.22-48.07-21.26-48.67-32.78v-.63c-.01-53.45,356.45-96.8,796.18-96.8s796.18,43.35,796.18,96.8Z"/>
    </g>
    <g>
      <path class="cls-1" d="M1849.27,1564.35c0,45.79-305.27,82.91-681.83,82.91s-681.84-37.12-681.84-82.91l-.58-56.49c.52,9.86,15.19,19.32,41.68,28.07,95.82,31.69,346.27,54.3,640.15,54.3s545.35-22.7,640.73-54.48c26.6-8.86,41.1-18.44,41.1-28.42l.58,56.49v.54Z"/>
      <path class="cls-8" d="M1848.67,1507.32c0,9.98-14.5,19.56-41.1,28.42-95.38,31.79-346.26,54.48-640.73,54.48s-544.33-22.61-640.15-54.3c-26.49-8.75-41.17-18.21-41.68-28.07v-.54c-.01-45.78,305.26-82.9,681.83-82.9s681.83,37.12,681.83,82.9Z"/>
    </g>
    <g>
      <path class="cls-2" d="M1753.22,1485.76c0,39.34-262.29,71.23-585.84,71.23s-585.85-31.89-585.85-71.23l-.5-48.54c.44,8.47,13.05,16.6,35.81,24.12,82.33,27.23,297.52,46.65,550.02,46.65s468.57-19.5,550.52-46.81c22.86-7.62,35.32-15.84,35.32-24.42l.5,48.54v.46Z"/>
      <path class="cls-6" d="M1752.71,1436.76c0,8.58-12.46,16.8-35.32,24.42-81.95,27.31-297.51,46.81-550.52,46.81s-467.69-19.42-550.02-46.65c-22.76-7.52-35.37-15.65-35.81-24.12v-.46c0-39.33,262.28-71.22,585.84-71.22s585.84,31.89,585.84,71.22Z"/>
    </g>
  </g>
  <rect class="cls-7" x="-99.57" y="-49.2" width="2128.34" height="680.17"/>
  <line class="cls-4" x1="562.74" y1="1494.44" x2="562.73" y2="1493.95"/>
  <g>
    <path class="cls-11" d="M507.62,337.35c-5.86-3.91-11.06-7.91-15.58-12.02-4.52-4.11-8.73-8.85-12.64-14.22-11.73-16.6-19.55-32.73-23.46-48.4-3.91-15.67-6.03-27.04-6.35-34.12,1.87,2.77,5.39,7.59,10.57,14.47,5.17,6.88,12.01,14.97,20.52,24.29,8.51,9.32,17.74,17.97,27.67,25.94,7.9,6.35,16.98,11.03,27.24,14.04,7.66-9.85,14.92-19.94,21.81-30.27,6.88-10.33,12.4-18.96,16.55-25.88,4.15-6.92,7.05-11.8,8.67-14.65-.41,2.61-1.28,7.35-2.63,14.22-1.34,6.88-3.42,15.87-6.23,26.98-2.81,11.11-6.17,22.16-10.08,33.14,4.56-.16,8.55-.57,11.97-1.22,3.42-.65,5.74-1.18,6.96-1.59l-28.46,50.05c-.9,0-4.4-1.1-10.51-3.3-4.56,7.98-9.57,15.14-15.03,21.48-6.84,8.14-15.27,16.07-25.29,23.8-10.02,7.73-18.67,13.84-25.96,18.31-7.29,4.48-12.56,7.61-15.82,9.4l-34.45-57.01c7.82-1.3,19.55-4.46,35.18-9.46,15.64-5,30.09-12.51,43.37-22.52.98-.65,1.63-1.14,1.96-1.46Z"/>
    <path class="cls-11" d="M647.69,235.79c-2.93-1.87-5.29-3.31-7.08-4.33-1.79-1.02-3.05-1.73-3.78-2.14,2.52,0,5.94.18,10.25.55,4.31.37,9.07,1.04,14.28,2.01,8.06-2.12,15.4-3.48,22.03-4.09,6.63-.61,12.47-.92,17.52-.92-1.38.41-3.97,1.45-7.75,3.11-3.79,1.67-7.71,3.85-11.78,6.53,12.37,3.66,23.68,8.95,33.94,15.87,10.25,6.92,18.74,16.5,25.45,28.75,6.71,12.25,10.07,27,10.07,44.25,0,29.3-8.87,51.49-26.61,66.59-17.74,15.1-35.54,24.7-53.41,28.81-17.86,4.11-31.19,6.29-39.98,6.53,1.95-.73,5.13-2.24,9.52-4.52,4.39-2.28,9.4-5.62,15.01-10.01-8.3-2.6-16.26-5.92-23.87-9.95s-15.06-9.58-22.34-16.66c-7.28-7.08-13.27-15.93-17.95-26.55s-7.14-22.89-7.38-36.8c0-16.44,3.01-30.54,9.03-42.3,6.02-11.76,13.77-21.16,23.25-28.2,9.48-7.04,20-12.55,31.56-16.54ZM664.42,249.83c-5.37,5.21-10.27,11.39-14.71,18.55-4.44,7.16-8.02,15.44-10.74,24.84-2.73,9.4-4.09,19.76-4.09,31.07.24,18.88,3.13,34.97,8.67,48.28,5.53,13.31,12.17,24.48,19.9,33.51,10.09-9.11,18.43-20.39,25.02-33.81s9.89-29.05,9.89-46.88c-.24-16.19-3.58-30.6-10.01-43.21-6.43-12.61-14.4-23.4-23.93-32.35Z"/>
    <path class="cls-11" d="M820.62,391.31c16.59-20.83,27.85-38.74,33.79-53.71,2.11-5.86,3.8-13.94,5.06-24.23,1.26-10.29,2.18-21.14,2.75-32.53.57-11.39.92-20.34,1.04-26.86.12-6.51.18-11.31.18-14.4l72.46,12.45c-1.14,5.54-3.29,14.45-6.47,26.73-3.17,12.29-7.75,26.25-13.72,41.87s-12.67,27.87-20.07,36.74c-10,12.13-21.21,22.85-33.61,32.17-12.4,9.32-23.87,16.72-34.4,22.22s-19.23,9.54-26.1,12.15c-6.87,2.61-11.65,4.31-14.33,5.13.41,0,6.06-5.98,16.96-17.94l-45.62,16.72c-1.14-5.45-2.56-14.34-4.27-26.67s-2.56-25.33-2.56-39c0-10.42.77-20.02,2.32-28.81,2.68-15.62,7.16-29.99,13.42-43.09,6.26-13.1,12.85-24.05,19.76-32.84,6.91-8.79,12.58-15.22,17.02-19.29,4.43-4.07,7.67-6.84,9.7-8.3-1.14,3.74-2.81,10.17-5,19.29-2.2,9.12-4.41,20.65-6.65,34.61-2.24,13.96-3.35,26.92-3.35,38.88,0,7.16.53,13.75,1.58,19.78,1.87,12.29,8.58,28.61,20.13,48.95Z"/>
    <path class="cls-11" d="M1062.12,378.37c-.33-7-.49-12.41-.49-16.24,0-10.17.73-19.78,2.2-28.81,2.77-15.71,7.28-30.09,13.55-43.15,6.27-13.06,12.86-23.99,19.78-32.78,6.92-8.79,12.59-15.22,17.03-19.29,4.44-4.07,7.67-6.84,9.71-8.3-1.14,3.74-2.81,10.17-5,19.29-2.2,9.12-4.42,20.65-6.65,34.61-2.24,13.96-3.36,26.92-3.36,38.88,0,6.92.49,13.51,1.46,19.78,1.54,8.54,4.8,18.11,9.77,28.69v-7.45c0-10.42.77-20.02,2.32-28.81,2.69-15.62,7.16-29.99,13.43-43.09,6.27-13.1,12.86-24.05,19.78-32.84,6.92-8.79,12.59-15.22,17.03-19.29,4.43-4.07,7.67-6.84,9.7-8.3-2.2,8.3-4.99,21.4-8.36,39.31-3.38,17.9-5.07,35.24-5.07,52,0,7.65.49,14.73,1.46,21.24,1.14,7.08,3.54,15.01,7.2,23.8s7.24,16.4,10.74,22.83c3.5,6.43,6.02,10.91,7.57,13.43l-68.97,25.39c-.33-1.46-.77-3.8-1.34-7.02-.57-3.21-1.3-8.12-2.2-14.71l-55.05,20.26c-.41,0-1.55-7.16-3.42-21.48l-57.98,21.48c-1.14-5.45-2.56-14.34-4.27-26.67s-2.56-25.33-2.56-39c0-10.42.77-20.02,2.32-28.81,2.69-15.62,7.16-29.99,13.43-43.09,6.27-13.1,12.86-24.05,19.78-32.84,6.92-8.79,12.59-15.22,17.03-19.29,4.44-4.07,7.67-6.84,9.71-8.3-1.14,3.74-2.81,10.17-5,19.29-2.2,9.12-4.42,20.65-6.65,34.61-2.24,13.96-3.36,26.92-3.36,38.88,0,7.16.53,13.75,1.59,19.78,1.46,9.6,5.86,21.61,13.18,36.01Z"/>
    <path class="cls-11" d="M1217.88,317.33c-2.12-10.17-5.86-21.24-11.23-33.2s-9.64-20.91-12.82-26.86l74.95-26.98c.16,1.55.43,4.86.79,9.95.37,5.09.67,10.85.92,17.27.24,6.43.37,12.86.37,19.29,0,20.18-1.18,36.7-3.54,49.56-3.5,20.35-9.36,37.94-17.58,52.8-8.22,14.85-15.79,25.92-22.71,33.2-6.92,7.28-12,12.11-15.26,14.47.65-2.93,1.65-8.04,2.99-15.32,1.34-7.28,2.69-16.66,4.03-28.14,1.34-11.47,2.01-22.83,2.01-34.06,0-12.61-.98-23.27-2.93-31.98Z"/>
    <path class="cls-11" d="M1388.78,362.86c-7.89-14.73-15.54-26-22.95-33.81-5.62-5.86-11.39-11.03-17.33-15.5-.16,2.04-.57,5.13-1.22,9.28-2.69,15.46-7.18,29.79-13.49,42.97-6.31,13.18-12.78,24.03-19.41,32.53-6.63,8.5-12.29,14.93-16.97,19.29-4.68,4.35-8.04,7.26-10.07,8.73,1.14-3.74,2.81-10.17,5-19.29,2.2-9.11,4.41-20.65,6.65-34.61,2.24-13.96,3.36-26.92,3.36-38.88,0-6.27-.53-12.86-1.59-19.78-.98-5.86-2.75-12.12-5.31-18.8-2.56-6.67-5.43-12.98-8.61-18.92-3.58-1.79-6.55-3.15-8.91-4.09-2.36-.93-3.99-1.57-4.88-1.89.65-.08,1.57-.14,2.75-.18,1.18-.04,3.68-.06,7.51-.06-1.79-3.25-3.64-6.47-5.55-9.64s-3.23-5.29-3.97-6.35l68.97-25.51c.32,1.55.87,4.42,1.65,8.61.77,4.19,1.59,9.81,2.44,16.85.86,7.04,1.48,14.14,1.89,21.3,17.9,3.26,32.1,8.5,42.6,15.75,3.74-11.64,8.71-22.28,14.89-31.92,6.18-9.64,11.64-17.03,16.36-22.16,4.72-5.13,8.14-8.58,10.25-10.38-1.55,5.7-3.48,15.01-5.8,27.95-2.32,12.94-3.48,26.61-3.48,41.02s1.83,27.79,5.49,38.45c7.65,11.64,13.79,22.54,18.43,32.71,5.04,7,9.46,12.84,13.25,17.52,3.78,4.68,6.57,8.04,8.36,10.07l-54.81,34.91c-2.93-5.45-7.08-14.38-12.45-26.79-5.37-12.41-9.73-25.53-13.06-39.37Z"/>
    <path class="cls-11" d="M1547.23,379.59c1.71-8.54,3.4-19.33,5.07-32.35,1.67-13.02,2.5-25.84,2.5-38.45s-1.02-22.95-3.05-31.98c-2.04-9.85-5.76-20.83-11.17-32.96-5.41-12.12-9.7-21.12-12.88-26.98l75.07-27.1c.32,3.5.73,9.48,1.22,17.94.49,8.46.73,17.99.73,28.56,0,20.1-1.14,36.62-3.42,49.56-2.04,11.88-5.03,22.95-8.97,33.2s-8.22,19.23-12.82,26.92c-4.6,7.69-9.08,14.24-13.43,19.65-4.35,5.41-8.65,10.15-12.88,14.22l37.6,1.95-4.52,49.56-43.58-4.52-11.96-47.97,16.48.73Z"/>
  </g>
  <g>
    <path class="cls-12" d="M506.62,316.36c-5.86-3.91-11.06-7.91-15.58-12.02-4.52-4.11-8.73-8.85-12.64-14.22-11.73-16.6-19.55-32.73-23.46-48.4-3.91-15.67-6.03-27.04-6.35-34.12,1.87,2.77,5.39,7.59,10.57,14.47,5.17,6.88,12.01,14.97,20.52,24.29,8.51,9.32,17.74,17.97,27.67,25.94,7.9,6.35,16.98,11.03,27.24,14.04,7.66-9.85,14.92-19.94,21.81-30.27,6.88-10.33,12.4-18.96,16.55-25.88,4.15-6.92,7.05-11.8,8.67-14.65-.41,2.61-1.28,7.35-2.63,14.22-1.34,6.88-3.42,15.87-6.23,26.98-2.81,11.11-6.17,22.16-10.08,33.14,4.56-.16,8.55-.57,11.97-1.22,3.42-.65,5.74-1.18,6.96-1.59l-28.46,50.05c-.9,0-4.4-1.1-10.51-3.3-4.56,7.98-9.57,15.14-15.03,21.48-6.84,8.14-15.27,16.07-25.29,23.8-10.02,7.73-18.67,13.84-25.96,18.31-7.29,4.48-12.56,7.61-15.82,9.4l-34.45-57.01c7.82-1.3,19.55-4.46,35.18-9.46,15.64-5,30.09-12.51,43.37-22.52.98-.65,1.63-1.14,1.96-1.46Z"/>
    <path class="cls-12" d="M646.69,214.8c-2.93-1.87-5.29-3.31-7.08-4.33-1.79-1.02-3.05-1.73-3.78-2.14,2.52,0,5.94.18,10.25.55,4.31.37,9.07,1.04,14.28,2.01,8.06-2.12,15.4-3.48,22.03-4.09,6.63-.61,12.47-.92,17.52-.92-1.38.41-3.97,1.45-7.75,3.11-3.79,1.67-7.71,3.85-11.78,6.53,12.37,3.66,23.68,8.95,33.94,15.87,10.25,6.92,18.74,16.5,25.45,28.75,6.71,12.25,10.07,27,10.07,44.25,0,29.3-8.87,51.49-26.61,66.59-17.74,15.1-35.54,24.7-53.41,28.81-17.86,4.11-31.19,6.29-39.98,6.53,1.95-.73,5.13-2.24,9.52-4.52,4.39-2.28,9.4-5.62,15.01-10.01-8.3-2.6-16.26-5.92-23.87-9.95s-15.06-9.58-22.34-16.66c-7.28-7.08-13.27-15.93-17.95-26.55s-7.14-22.89-7.38-36.8c0-16.44,3.01-30.54,9.03-42.3,6.02-11.76,13.77-21.16,23.25-28.2,9.48-7.04,20-12.55,31.56-16.54ZM663.42,228.83c-5.37,5.21-10.27,11.39-14.71,18.55-4.44,7.16-8.02,15.44-10.74,24.84-2.73,9.4-4.09,19.76-4.09,31.07.24,18.88,3.13,34.97,8.67,48.28,5.53,13.31,12.17,24.48,19.9,33.51,10.09-9.11,18.43-20.39,25.02-33.81s9.89-29.05,9.89-46.88c-.24-16.19-3.58-30.6-10.01-43.21-6.43-12.61-14.4-23.4-23.93-32.35Z"/>
    <path class="cls-12" d="M819.62,370.31c16.59-20.83,27.85-38.74,33.79-53.71,2.11-5.86,3.8-13.94,5.06-24.23,1.26-10.29,2.18-21.14,2.75-32.53.57-11.39.92-20.34,1.04-26.86.12-6.51.18-11.31.18-14.4l72.46,12.45c-1.14,5.54-3.29,14.45-6.47,26.73-3.17,12.29-7.75,26.25-13.72,41.87s-12.67,27.87-20.07,36.74c-10,12.13-21.21,22.85-33.61,32.17-12.4,9.32-23.87,16.72-34.4,22.22s-19.23,9.54-26.1,12.15c-6.87,2.61-11.65,4.31-14.33,5.13.41,0,6.06-5.98,16.96-17.94l-45.62,16.72c-1.14-5.45-2.56-14.34-4.27-26.67s-2.56-25.33-2.56-39c0-10.42.77-20.02,2.32-28.81,2.68-15.62,7.16-29.99,13.42-43.09,6.26-13.1,12.85-24.05,19.76-32.84,6.91-8.79,12.58-15.22,17.02-19.29,4.43-4.07,7.67-6.84,9.7-8.3-1.14,3.74-2.81,10.17-5,19.29-2.2,9.12-4.41,20.65-6.65,34.61-2.24,13.96-3.35,26.92-3.35,38.88,0,7.16.53,13.75,1.58,19.78,1.87,12.29,8.58,28.61,20.13,48.95Z"/>
    <path class="cls-12" d="M1061.12,357.37c-.33-7-.49-12.41-.49-16.24,0-10.17.73-19.78,2.2-28.81,2.77-15.71,7.28-30.09,13.55-43.15,6.27-13.06,12.86-23.99,19.78-32.78,6.92-8.79,12.59-15.22,17.03-19.29,4.44-4.07,7.67-6.84,9.71-8.3-1.14,3.74-2.81,10.17-5,19.29-2.2,9.12-4.42,20.65-6.65,34.61-2.24,13.96-3.36,26.92-3.36,38.88,0,6.92.49,13.51,1.46,19.78,1.54,8.54,4.8,18.11,9.77,28.69v-7.45c0-10.42.77-20.02,2.32-28.81,2.69-15.62,7.16-29.99,13.43-43.09,6.27-13.1,12.86-24.05,19.78-32.84,6.92-8.79,12.59-15.22,17.03-19.29,4.43-4.07,7.67-6.84,9.7-8.3-2.2,8.3-4.99,21.4-8.36,39.31-3.38,17.9-5.07,35.24-5.07,52,0,7.65.49,14.73,1.46,21.24,1.14,7.08,3.54,15.01,7.2,23.8s7.24,16.4,10.74,22.83c3.5,6.43,6.02,10.91,7.57,13.43l-68.97,25.39c-.33-1.46-.77-3.8-1.34-7.02-.57-3.21-1.3-8.12-2.2-14.71l-55.05,20.26c-.41,0-1.55-7.16-3.42-21.48l-57.98,21.48c-1.14-5.45-2.56-14.34-4.27-26.67s-2.56-25.33-2.56-39c0-10.42.77-20.02,2.32-28.81,2.69-15.62,7.16-29.99,13.43-43.09,6.27-13.1,12.86-24.05,19.78-32.84,6.92-8.79,12.59-15.22,17.03-19.29,4.44-4.07,7.67-6.84,9.71-8.3-1.14,3.74-2.81,10.17-5,19.29-2.2,9.12-4.42,20.65-6.65,34.61-2.24,13.96-3.36,26.92-3.36,38.88,0,7.16.53,13.75,1.59,19.78,1.46,9.6,5.86,21.61,13.18,36.01Z"/>
    <path class="cls-12" d="M1216.88,296.34c-2.12-10.17-5.86-21.24-11.23-33.2s-9.64-20.91-12.82-26.86l74.95-26.98c.16,1.55.43,4.86.79,9.95.37,5.09.67,10.85.92,17.27.24,6.43.37,12.86.37,19.29,0,20.18-1.18,36.7-3.54,49.56-3.5,20.35-9.36,37.94-17.58,52.8-8.22,14.85-15.79,25.92-22.71,33.2-6.92,7.28-12,12.11-15.26,14.47.65-2.93,1.65-8.04,2.99-15.32,1.34-7.28,2.69-16.66,4.03-28.14,1.34-11.47,2.01-22.83,2.01-34.06,0-12.61-.98-23.27-2.93-31.98Z"/>
    <path class="cls-12" d="M1387.78,341.87c-7.89-14.73-15.54-26-22.95-33.81-5.62-5.86-11.39-11.03-17.33-15.5-.16,2.04-.57,5.13-1.22,9.28-2.69,15.46-7.18,29.79-13.49,42.97-6.31,13.18-12.78,24.03-19.41,32.53-6.63,8.5-12.29,14.93-16.97,19.29-4.68,4.35-8.04,7.26-10.07,8.73,1.14-3.74,2.81-10.17,5-19.29,2.2-9.11,4.41-20.65,6.65-34.61,2.24-13.96,3.36-26.92,3.36-38.88,0-6.27-.53-12.86-1.59-19.78-.98-5.86-2.75-12.12-5.31-18.8-2.56-6.67-5.43-12.98-8.61-18.92-3.58-1.79-6.55-3.15-8.91-4.09-2.36-.93-3.99-1.57-4.88-1.89.65-.08,1.57-.14,2.75-.18,1.18-.04,3.68-.06,7.51-.06-1.79-3.25-3.64-6.47-5.55-9.64s-3.23-5.29-3.97-6.35l68.97-25.51c.32,1.55.87,4.42,1.65,8.61.77,4.19,1.59,9.81,2.44,16.85.86,7.04,1.48,14.14,1.89,21.3,17.9,3.26,32.1,8.5,42.6,15.75,3.74-11.64,8.71-22.28,14.89-31.92,6.18-9.64,11.64-17.03,16.36-22.16,4.72-5.13,8.14-8.58,10.25-10.38-1.55,5.7-3.48,15.01-5.8,27.95-2.32,12.94-3.48,26.61-3.48,41.02s1.83,27.79,5.49,38.45c7.65,11.64,13.79,22.54,18.43,32.71,5.04,7,9.46,12.84,13.25,17.52,3.78,4.68,6.57,8.04,8.36,10.07l-54.81,34.91c-2.93-5.45-7.08-14.38-12.45-26.79-5.37-12.41-9.73-25.53-13.06-39.37Z"/>
    <path class="cls-12" d="M1546.23,358.6c1.71-8.54,3.4-19.33,5.07-32.35,1.67-13.02,2.5-25.84,2.5-38.45s-1.02-22.95-3.05-31.98c-2.04-9.85-5.76-20.83-11.17-32.96-5.41-12.12-9.7-21.12-12.88-26.98l75.07-27.1c.32,3.5.73,9.48,1.22,17.94.49,8.46.73,17.99.73,28.56,0,20.1-1.14,36.62-3.42,49.56-2.04,11.88-5.03,22.95-8.97,33.2s-8.22,19.23-12.82,26.92c-4.6,7.69-9.08,14.24-13.43,19.65-4.35,5.41-8.65,10.15-12.88,14.22l37.6,1.95-4.52,49.56-43.58-4.52-11.96-47.97,16.48.73Z"/>
  </g>
</svg>