<?xml version="1.0" encoding="UTF-8"?>
<svg id="Calque_1" data-name="Calque 1" xmlns="http://www.w3.org/2000/svg" viewBox="0 0 456.7 340.85">
  <defs>
    <style>
      .cls-1 {
        fill: #c69c6d;
      }

      .cls-1, .cls-2, .cls-3 {
        stroke-width: .62px;
      }

      .cls-1, .cls-2, .cls-3, .cls-4, .cls-5, .cls-6 {
        stroke: #000;
        stroke-miterlimit: 10;
      }

      .cls-2, .cls-6 {
        fill: none;
      }

      .cls-3 {
        fill: #4d4d4d;
      }

      .cls-4 {
        fill: #000;
      }

      .cls-4, .cls-5, .cls-6 {
        stroke-width: 1.86px;
      }

      .cls-5 {
        fill: #1a1a1a;
      }

      .cls-7 {
        fill: #fff;
        stroke-width: 0px;
      }
    </style>
  </defs>
  <path class="cls-3" d="M262.53,195c-5.22,2.16-10.56,4.05-15.97,5.57H117.96v-67.74s53.77,59.21,144.57,62.17Z"/>
  <path class="cls-3" d="M337.47,144.25v56.33h-90.91c5.41-1.52,10.75-3.41,15.97-5.57,41.24-17.05,74.94-50.75,74.94-50.75Z"/>
  <path class="cls-1" d="M337.13,30.55c1.25,12.47.35,113.81.34,113.7,0,0-33.71,33.71-74.94,50.75-90.8-2.96-144.57-62.17-144.57-62.17v-63.96h206.52c-2.8-.21-5.16-7.01-5.4-26.76-.12-9.64.47-16.07,1.5-20.17,1.14-4.55,2.83-6.23,4.7-6.23,2.75,0,5.91,3.63,8.32,7.16,0,0,0,0,0,0,2.26,3.31,3.32,5.57,3.53,7.68Z"/>
  <path class="cls-1" d="M327.72,264.81c-.07-.08-.14-.15-.22-.22-.07-.07-.15-.14-.22-.21-.14-.14-.29-.27-.43-.39-.17-.14-.34-.27-.5-.39-.16-.12-.32-.22-.48-.31-.5-.28-.96-.42-1.39-.41-.13.01-.26.03-.39.07-.04.01-.09.02-.12.04-.04.02-.09.04-.13.06-.39.17-.75.5-1.11.98-.04.05-.08.11-.12.16-.27.4-.54.89-.79,1.5-.04.08-.07.17-.11.26-.04.09-.07.18-.11.28-.16.41-.3.86-.45,1.35-.05.19-.1.37-.15.57-.11.4-.21.83-.3,1.29-.03.13-.06.27-.09.41-.12.57-.22,1.18-.33,1.83-.05.28-.09.57-.14.87-.11.73-.21,1.52-.3,2.35-.04.35-.08.72-.12,1.09-.02.17-.04.35-.05.52-.04.42-.08.84-.11,1.29-.06.73-.12,1.49-.17,2.29-.02.32-.04.63-.06.96-.09,1.68-.17,3.5-.22,5.47-.03,1-.05,2.04-.06,3.12-.04,3.32,0,6.26.12,8.85l9.49-.5c.77.16,1.63.09,2.5-.2.22-.08.45-.17.68-.27,0,0,.01,0,.02,0,.09-.04.18-.09.27-.13,2.71-1.45,5.23-5.05,5.23-10.54,0-5.95-5.27-17.46-9.65-22.03ZM325.8,290.05l.02-.13c1.04-7.32,3.52-.42,3.52-.42l-3.53.55Z"/>
  <path class="cls-3" d="M337.47,200.57v86.26c0-5.96-5.34-17.48-9.75-22.02-.07-.08-.14-.15-.22-.22-.07-.07-.14-.14-.22-.21-.14-.14-.29-.27-.43-.39-.17-.14-.34-.27-.5-.39-.16-.12-.32-.22-.48-.31-.5-.28-.96-.42-1.39-.41H117.96v-62.32h219.51Z"/>
  <path class="cls-1" d="M337.47,286.84v13.41s-.71,2.35-1.86,4.91c-.57,1.29-1.25,2.62-2.01,3.73,0,0,0,0,0,0-2.41,3.52-5.57,7.16-8.32,7.16-1.87,0-3.56-1.68-4.7-6.23-.16-.65-.32-1.35-.45-2.12-.45-2.42-.76-5.45-.93-9.21l9.49-.5c.77.16,1.63.09,2.5-.2.22-.07.45-.16.68-.27,0,0,.01,0,.02,0,2.85-1.33,5.6-4.99,5.6-10.68Z"/>
  <path class="cls-1" d="M329.33,289.5l-3.53.55.02-.13c1.04-7.32,3.52-.42,3.52-.42Z"/>
  <g>
    <ellipse class="cls-7" cx="183.11" cy="114.57" rx="20.51" ry="23.79"/>
    <path class="cls-4" d="M137.71,86h79.08v8.19h-71.35c-4.26,0-7.73-3.46-7.73-7.73v-.47h0Z" transform="translate(18.61 -29.77) rotate(10.13)"/>
    <ellipse class="cls-4" cx="189.67" cy="109.03" rx="10.79" ry="13.41"/>
  </g>
  <path class="cls-1" d="M324.47,68.86c4.38.33,9.82-15.59,9.82-23.2,0-5.53-1.93-9.31-3.99-10.89-.57-.44-1.16-.71-1.72-.81-.38-.06-.75-.04-1.09.07-1.2.38-2.09,1.84-2.13,4.49,0,.45.01.93.06,1.44.04.54.09,1.03.15,1.48.01.1.03.2.04.3l3.53.55s-2.47,6.9-3.52-.42l-.02-.13-.26-.04"/>
  <path class="cls-1" d="M324.47,68.86H117.96s-1.9,0-1.9,0c-9.2-26.84-1.27-51.67,0-53.16.82-.98,203.07-.03,209.22,0-1.87,0-3.56,1.68-4.7,6.23-1.04,4.1-1.62,10.54-1.5,20.17.25,19.75,2.61,26.55,5.4,26.76Z"/>
  <line class="cls-2" x1="324.62" y1="68.86" x2="324.47" y2="68.86"/>
  <path class="cls-2" d="M325.42,15.71h-.14"/>
  <path class="cls-1" d="M325.27,316.05c-6.15.03-208.4.98-209.22,0-1.27-1.5-9.2-26.33,0-53.17h208.42c-.13.02-.26.04-.39.09-.04.01-.09.02-.12.04-.04.02-.09.04-.13.06-.39.17-.75.5-1.11.98-.04.05-.08.11-.12.16-.27.4-.54.89-.79,1.5-.04.08-.07.17-.11.26-.04.09-.07.18-.11.28-.16.41-.3.86-.45,1.35-.05.19-.1.37-.15.57-.11.4-.21.83-.3,1.29-.03.13-.06.27-.09.41-.12.57-.22,1.18-.33,1.83-.05.28-.09.57-.14.87-.11.73-.21,1.52-.3,2.35-.04.35-.08.72-.12,1.09-.02.17-.04.35-.05.52-.04.42-.08.84-.11,1.29-.06.73-.12,1.49-.17,2.29-.02.32-.04.63-.06.96-.09,1.68-.17,3.5-.22,5.47-.03,1-.05,2.04-.06,3.12-.04,3.32,0,6.26.12,8.85.17,3.75.48,6.78.93,9.21.14.76.29,1.47.45,2.12,1.14,4.55,2.83,6.23,4.7,6.23Z"/>
  <path class="cls-2" d="M328.68,298c-1.76-.35-3.09-1.9-3.13-4.74,0-.45.01-.93.06-1.44.04-.54.09-1.03.15-1.48.01-.1.03-.2.04-.3l-.26.04"/>
  <path class="cls-2" d="M325.42,316.05h-.14"/>
  <g>
    <ellipse class="cls-7" cx="275.29" cy="114.87" rx="20.51" ry="23.79"/>
    <path class="cls-4" d="M249.33,86.3h71.35v8.19h-79.08v-.47c0-4.26,3.46-7.73,7.73-7.73Z" transform="translate(573.81 129.94) rotate(169.87)"/>
    <ellipse class="cls-4" cx="268.73" cy="109.33" rx="10.79" ry="13.41"/>
  </g>
  <line class="cls-2" x1="327.03" y1="286.53" x2="319.13" y2="286.53"/>
  <line class="cls-2" x1="330.5" y1="297.91" x2="328.68" y2="298"/>
  <line class="cls-1" x1="319.18" y1="33.46" x2="328.69" y2="33.93"/>
  <line class="cls-1" x1="327.15" y1="45.23" x2="318.91" y2="44.62"/>
  <g>
    <rect class="cls-5" x="118.19" y="201.63" width="219.51" height="16.18"/>
    <path class="cls-6" d="M246.79,201.63c-6.22,1.75-12.52,3.01-18.84,3.63"/>
    <ellipse class="cls-5" cx="231.43" cy="208.8" rx="12.69" ry="9.41"/>
    <path class="cls-5" d="M220,204.71s-19.08,14.98-17.6,26.82c1.48,11.84,3.6,19.46,3.6,19.46h10.36s-7.82-21.36-1.06-27.92,31.84-7.19,31.84-7.19l-27.14-11.17Z"/>
    <path class="cls-5" d="M241.88,203.46s11.48,18.56,11.7,28.92c0,0-4.86,12.48-6.13,22.42l-6.56-3.81s1.93-23.11-11.46-33.68l12.45-13.85Z"/>
  </g>
</svg>