<?xml version="1.0" encoding="UTF-8"?>
<svg id="Calque_1" data-name="Calque 1" xmlns="http://www.w3.org/2000/svg" viewBox="0 0 684.1 539.72">
  <defs>
    <style>
      .cls-1 {
        fill: #fff;
      }

      .cls-1, .cls-2, .cls-3, .cls-4, .cls-5, .cls-6 {
        stroke: #000;
        stroke-miterlimit: 10;
      }

      .cls-1, .cls-5, .cls-6 {
        stroke-width: 2.54px;
      }

      .cls-2 {
        fill: #4d4d4d;
      }

      .cls-2, .cls-3, .cls-4 {
        stroke-width: .85px;
      }

      .cls-3 {
        fill: none;
      }

      .cls-4 {
        fill: #c69c6d;
      }

      .cls-5 {
        fill: #1a1a1a;
      }

      .cls-6 {
        fill: #000;
      }
    </style>
  </defs>
  <path class="cls-2" d="M393.48,307.92c-7.1,2.94-14.37,5.51-21.73,7.58h-174.99v-37.46l31.83,5.01-31.83-20.48v-39.25s73.16,80.58,196.72,84.6Z"/>
  <path class="cls-2" d="M495.46,238.86v76.64h-123.71c7.36-2.07,14.63-4.64,21.73-7.58,56.11-23.2,101.98-69.06,101.98-69.06Z"/>
  <path class="cls-4" d="M495.57,225.34l-144.39,36.56,144.3-25.17c0,1.38-.02,2.12-.02,2.12,0,0-45.87,45.87-101.98,69.06-123.56-4.02-196.72-84.6-196.72-84.6v-87.03h281.02c-3.8-.29-7.02-9.54-7.35-36.42-.16-13.11.63-21.87,2.05-27.45,1.56-6.19,3.85-8.48,6.4-8.48,3.74,0,8.04,4.95,11.32,9.74,0,0,0,0,0,0,3.08,4.51,4.51,7.58,4.8,10.46,1.37,13.69.84,106.12.57,141.19Z"/>
  <path class="cls-4" d="M482.75,403.53c-.19-.21-.38-.41-.57-.61-.1-.11-.19-.2-.3-.3-.09-.1-.19-.19-.3-.29-.19-.19-.39-.36-.58-.52-.24-.19-.46-.37-.68-.52-.22-.16-.44-.3-.66-.42-.68-.38-1.31-.57-1.89-.56-.18.02-.36.04-.53.1-.06.02-.12.03-.17.06-.06.03-.12.05-.18.08-.52.24-1.02.68-1.5,1.33-.06.07-.11.14-.16.22-.37.54-.74,1.22-1.07,2.04-.05.11-.1.24-.14.36-.05.13-.1.25-.14.38-.21.56-.41,1.17-.61,1.84-.07.25-.14.51-.2.78-.14.55-.28,1.13-.41,1.75-.04.18-.08.36-.12.56-.16.78-.3,1.61-.45,2.49-.07.38-.13.78-.19,1.18-.14,1-.28,2.06-.41,3.2-.06.48-.11.98-.16,1.49-.03.24-.05.47-.07.71-.06.57-.11,1.15-.15,1.75-.08.99-.16,2.03-.23,3.11-.03.43-.05.86-.08,1.3-.13,2.29-.23,4.77-.3,7.44-.04,1.36-.07,2.78-.08,4.25-.06,4.51,0,8.51.16,12.04l12.92-.68c1.05.22,2.21.12,3.4-.28.3-.11.61-.23.92-.37,0,0,.02,0,.03,0,.25-.11.48-.24.73-.38.23-.13.45-.27.67-.42,3.27-2.28,6.09-6.95,6.09-13.72,0-7.84-6.73-22.79-12.57-29.37ZM479.58,437.25l.03-.18c1.42-9.96,4.78-.57,4.78-.57l-4.81.74Z"/>
  <path class="cls-2" d="M495.46,315.5v43.37l-89.46,7.49,89.46,4.1v62.42c0-7.86-6.81-22.82-12.71-29.36-.19-.21-.38-.41-.57-.61-.1-.11-.19-.2-.3-.3-.09-.1-.19-.19-.3-.29-.19-.19-.39-.36-.58-.52-.24-.19-.46-.37-.68-.52-.22-.16-.44-.3-.66-.42-.68-.38-1.31-.57-1.89-.56l-281.02-.02v-84.79h298.7Z"/>
  <path class="cls-4" d="M484.39,436.51l-4.81.74.03-.18c1.42-9.96,4.78-.57,4.78-.57Z"/>
  <g>
    <ellipse class="cls-1" cx="285.42" cy="198.48" rx="27.92" ry="32.37"/>
    <path class="cls-6" d="M223.64,159.6h107.61v11.15h-96.46c-6.15,0-11.15-5-11.15-11.15h0Z" transform="translate(-30.59 68.35) rotate(-13.32)"/>
    <ellipse class="cls-6" cx="294.34" cy="190.94" rx="14.68" ry="18.24"/>
  </g>
  <path class="cls-4" d="M477.78,136.28c5.96.45,13.36-21.22,13.36-31.56,0-7.53-2.62-12.67-5.43-14.82-.78-.6-1.58-.97-2.34-1.1-.52-.09-1.02-.06-1.49.09-1.64.52-2.85,2.5-2.9,6.12,0,.61.02,1.26.08,1.95.06.74.13,1.4.2,2.01.02.14.04.27.06.41l4.81.74s-3.36,9.39-4.78-.57l-.03-.18-.36-.06"/>
  <path class="cls-4" d="M477.78,136.28H196.76s-2.59,0-2.59,0c-12.52-36.53-1.73-70.3,0-72.34.25-.3,13.81-.46,34.91-.54l-6.97,54.18,16.21-54.21c38.31-.09,95.14.03,143.97.19l-50.25,30.42,64.68-30.38c44.4.16,79.26.32,82.15.34-2.54,0-4.84,2.29-6.4,8.48-1.41,5.58-2.21,14.34-2.05,27.45.34,26.88,3.55,36.13,7.35,36.41Z"/>
  <line class="cls-3" x1="477.98" y1="136.28" x2="477.78" y2="136.28"/>
  <path class="cls-3" d="M479.06,63.95h-.19"/>
  <path class="cls-4" d="M478.87,472.64c-8.37.04-283.58,1.33-284.69,0-1.73-2.04-12.52-35.82,0-72.35h2.59l281.02.02c-.18.02-.36.04-.53.1-.06.02-.12.03-.17.06-.06.03-.12.05-.18.08-.52.24-1.02.68-1.5,1.33-.06.07-.11.14-.16.22-.37.54-.74,1.22-1.07,2.04-.05.11-.1.24-.14.36-.05.13-.1.25-.14.38-.21.56-.41,1.17-.61,1.84-.07.25-.14.51-.2.78-.14.55-.28,1.13-.41,1.75-.04.18-.08.36-.12.56-.16.78-.3,1.61-.45,2.49-.07.38-.13.78-.19,1.18-.14,1-.28,2.06-.41,3.2-.06.48-.11.98-.16,1.49-.03.24-.05.47-.07.71-.06.57-.11,1.15-.15,1.75-.08.99-.16,2.03-.23,3.11-.03.43-.05.86-.08,1.3-.13,2.29-.23,4.77-.3,7.44-.04,1.36-.07,2.78-.08,4.25-.06,4.51,0,8.51.16,12.04.03.78.08,1.53.12,2.26l-61.97,7.87,62.64-.67c.14,1.1.3,2.11.48,3.07.19,1.04.4,2,.62,2.88,1.56,6.19,3.85,8.48,6.4,8.48Z"/>
  <path class="cls-3" d="M483.5,448.08c-2.39-.48-4.2-2.59-4.26-6.45,0-.61.02-1.26.08-1.95.06-.74.13-1.4.2-2.01.02-.14.04-.27.06-.41l-.36.06"/>
  <path class="cls-3" d="M479.06,472.64h-.19"/>
  <g>
    <ellipse class="cls-1" cx="410.85" cy="198.89" rx="27.92" ry="32.37"/>
    <path class="cls-6" d="M376.17,160.01h96.46v11.15h-107.61c0-6.15,5-11.15,11.15-11.15Z" transform="translate(785.9 426.51) rotate(-166.16)"/>
    <ellipse class="cls-6" cx="401.92" cy="191.35" rx="14.68" ry="18.24"/>
  </g>
  <line class="cls-3" x1="481.26" y1="432.47" x2="470.51" y2="432.47"/>
  <line class="cls-3" x1="485.98" y1="447.95" x2="483.5" y2="448.08"/>
  <line class="cls-3" x1="470.57" y1="88.11" x2="483.51" y2="88.75"/>
  <line class="cls-3" x1="481.42" y1="104.12" x2="470.21" y2="103.29"/>
  <g>
    <rect class="cls-5" x="196.76" y="310.13" width="298.7" height="22.01" transform="translate(-15.51 17.57) rotate(-2.84)"/>
    <ellipse class="cls-5" cx="343.75" cy="326.4" rx="17.27" ry="12.81" transform="translate(-79.96 113.87) rotate(-16.88)"/>
    <path class="cls-5" d="M327.24,325.59s-18.93,27.05-12.33,41.88,12.37,23.91,12.37,23.91l13.49-4.09s-18.63-24.72-12.41-35.93,38.62-21.94,38.62-21.94l-39.75-3.83Z"/>
    <path class="cls-5" d="M355.24,315.32s22.29,19.63,26.65,33.04c0,0-1.4,18.17.87,31.61l-10.04-2.37s-6.62-30.85-28.23-39.33l10.75-22.95Z"/>
  </g>
  <path class="cls-4" d="M495.46,432.88v18.25s-.96,3.2-2.53,6.68c-.78,1.75-1.71,3.57-2.74,5.08,0,0,0,0,0,0-3.28,4.79-7.57,9.74-11.32,9.74-2.54,0-4.84-2.29-6.4-8.48-.22-.88-.43-1.84-.62-2.88-.18-.96-.34-1.97-.48-3.07l-62.64.67,61.97-7.87c-.04-.73-.08-1.48-.12-2.26l12.92-.68c1.05.22,2.21.12,3.4-.28.3-.1.61-.22.92-.37,0,0,.02,0,.03,0,.25-.11.48-.24.73-.38.23-.13.45-.27.67-.42,3.33-2.26,6.22-6.93,6.22-13.73Z"/>
</svg>