<?xml version="1.0" encoding="UTF-8"?>
<svg id="Calque_1" data-name="Calque 1" xmlns="http://www.w3.org/2000/svg" viewBox="0 0 456.7 340.85">
  <defs>
    <style>
      .cls-1 {
        fill: #ccc;
      }

      .cls-1, .cls-2, .cls-3, .cls-4, .cls-5, .cls-6 {
        stroke-width: 0px;
      }

      .cls-2 {
        fill: #1a1a1a;
      }

      .cls-3 {
        fill: #b3b3b3;
      }

      .cls-4 {
        fill: #e6e6e6;
      }

      .cls-5 {
        fill: #fff;
      }

      .cls-7 {
        fill: #000;
        stroke: #000;
        stroke-miterlimit: 10;
        stroke-width: 2.11px;
      }

      .cls-6 {
        fill: #777;
      }
    </style>
  </defs>
  <path class="cls-6" d="M390.24,297.47c.99,1.58-4.5,4.17-12.45,6.96-17.02,5.98-45.31,12.92-45.31,12.92,0,0-130.43,0-135.4-3.27-1.82-1.2-19.54-1.91-41.61-2.58l43.34-2.51,122.14-8.27,48.29-16.25,19.45-6.54c.69,1.01,1.27,1.75,1.68,2.15,4.46,4.35-3.22,12.42-.12,17.39Z"/>
  <path class="cls-6" d="M388.68,277.93l-19.45,6.54-22.77-53.12v-28.04l-30.56-27.98,14.14.81c.35.02.7.02,1.04,0,13.44,9.65,24.99,17.6,24.99,17.6,0,0,17.39,24.23,11.8,31.06-4.81,5.87,11.99,39.34,19.62,51.34.42.66.82,1.27,1.18,1.79Z"/>
  <path class="cls-3" d="M346.47,231.35v-28.04l-30.56-27.98-9.35-.53,1.32,4.24c1.39,4.43-1.1,9.19-5.53,10.59l-9.21,2.88c3.26,4.4,5.18,9.78,5.18,15.58,0,14.89-12.61,26.96-28.15,26.96s-28.12-12.04-28.16-26.89c-3.65.06-7.07-2.27-8.21-5.91l-1.34-4.3c-1.39-4.43,1.1-9.2,5.53-10.59l44.51-13.94-165.83-9.51h-.04c-8.42,3.13-16.41,7.4-21.4,13.18-14.91,17.27-29.2,67.03-29.2,67.03,0,0,18.64,14.22,13.67,16.08-2.13.8-5.74,4.1-9.17,7.62l1,24.27,13.59,16.94c16.86.96,40.12,1.59,61.09,2.2,3.15.08,6.26.18,9.28.27l43.34-2.51,122.14-8.27,48.29-16.25-22.77-53.12ZM208.37,195.74l-1.35,4.29c-1.15,3.67-4.62,6.02-8.31,5.92.06.7.09,1.41.09,2.13,0,14.89-12.61,26.96-28.15,26.96s-28.16-12.07-28.16-26.96c0-6.6,2.48-12.66,6.61-17.34l-10.64-3.33c-4.43-1.39-6.92-6.15-5.53-10.58l1.34-4.3c1.39-4.43,6.15-6.93,10.59-5.54l57.97,18.16c4.43,1.39,6.93,6.15,5.54,10.59Z"/>
  <path class="cls-6" d="M85.1,309.03c-4.48-.25-8.51-.53-11.92-.84-6.17-.56-10.33-1.22-11.52-2.02-7.45-4.97,0-28.57,0-28.57,0,0,4.27-5.07,8.85-9.78l1,24.27,13.59,16.94Z"/>
  <path class="cls-3" d="M208.37,195.74l-1.35,4.29c-1.15,3.67-4.62,6.02-8.31,5.92.06.7.09,1.41.09,2.13,0,14.89-12.61,26.96-28.15,26.96s-28.16-12.07-28.16-26.96c0-6.6,2.48-12.66,6.61-17.34l-10.64-3.33c-4.43-1.39-6.92-6.15-5.53-10.58l1.34-4.3c1.39-4.43,6.15-6.93,10.59-5.54l57.97,18.16c4.43,1.39,6.93,6.15,5.54,10.59Z"/>
  <path class="cls-3" d="M331.09,176.13c-.34.03-.69.03-1.04,0l-14.14-.81-9.35-.53,1.32,4.24c1.39,4.43-1.1,9.19-5.53,10.59l-9.21,2.88c3.26,4.4,5.18,9.78,5.18,15.58,0,14.89-12.61,26.96-28.15,26.96s-28.12-12.04-28.16-26.89c-3.65.06-7.07-2.27-8.21-5.91l-1.34-4.3c-1.39-4.43,1.1-9.2,5.53-10.59l44.51-13.94-165.83-9.51c16.72-6.22,35.08-7.9,35.08-7.9,0,0,14.31-5.29,28.93-11.23,13.15-5.34,26.54-11.18,30.03-14.21h0c.3-.26.52-.49.67-.71.96-1.41,4.51-2.77,9.61-4h.04c14.7-3.55,42.21-6.12,57.43-6.4,0,0,2.22,4.56,4.88,9.97,2.4,4.89,5.15,10.49,6.92,14.04,1.15,2.32,7.91,8.03,16.69,14.81,7.33,5.65,16.08,12.06,24.16,17.85Z"/>
  <polygon class="cls-4" points="122.05 163.91 135.57 199 321.16 223.75 131.03 205.06 122.05 163.91"/>
  <g>
    <path class="cls-2" d="M340.51,141.17l-1.55,27.03c-.25,4.29-3.69,7.67-7.88,7.94-.34.03-.69.03-1.04,0l-14.14-.81-9.35-.53-24.07-1.38h0l-165.83-9.51h-.04l-5.96-.34c-4.64-.27-8.21-4.28-7.95-8.92l1.56-27.03c.26-4.63,4.27-8.21,8.91-7.95l107.81,6.19h.04l62.31,3.58,23.61,1.35,1.87.11h0l9.33.53,3.42.2,11.02.63c2.2.13,4.17,1.1,5.6,2.58,1.57,1.63,2.49,3.89,2.35,6.33Z"/>
    <rect class="cls-1" x="180.61" y="131.32" width="85.41" height="31.06" rx="12" ry="12" transform="translate(8.77 -12.54) rotate(3.28)"/>
    <path class="cls-2" d="M303.49,137.22s28.16-35.61,43.89-35.61,59.63-11.18,62.94-16.98,13.25-20,13.25-20c0,0-4.14,23.32-14.08,34.5-9.94,11.18-44.72,7.45-64.18,17.39-19.46,9.94-38.51,26.96-38.51,26.96l-3.31-6.26Z"/>
    <path class="cls-2" d="M318.13,131.42s49.96-6.63,63.62-4.97c13.66,1.66,36.44,13.25,49.69,12.42s25.26.04,25.26.04c0,0-29.81,11.76-45.14,7.93-15.32-3.83-15.32-11.7-31.88-13.77s-58.39,3.82-58.39,3.82l-3.17-2.7v-2.78Z"/>
  </g>
  <g>
    <path class="cls-5" d="M198.8,208.08c0,14.89-12.61,26.96-28.15,26.96s-28.16-12.07-28.16-26.96c0-6.6,2.48-12.66,6.61-17.34,5.16-5.88,12.9-9.61,21.55-9.61,14.8,0,26.93,10.93,28.06,24.82.06.7.09,1.41.09,2.13Z"/>
    <path class="cls-5" d="M298.31,208.08c0,14.89-12.61,26.96-28.15,26.96s-28.12-12.04-28.16-26.89v-.07c0-14.89,12.61-26.95,28.16-26.95,9.48,0,17.87,4.49,22.97,11.37,3.26,4.4,5.18,9.78,5.18,15.58Z"/>
    <path class="cls-7" d="M208.37,195.74l-1.35,4.29c-1.15,3.67-4.62,6.02-8.31,5.92-.76-.01-1.53-.14-2.28-.38l-.94-.3-33.52-10.49-12.88-4.04-10.64-3.33c-4.43-1.39-6.92-6.15-5.53-10.58l1.34-4.3c1.39-4.43,6.15-6.93,10.59-5.54l57.97,18.16c4.43,1.39,6.93,6.15,5.54,10.59Z"/>
    <path class="cls-7" d="M302.34,189.62l-9.21,2.88-12.26,3.84-34.24,10.72-2.27.71c-.79.25-1.58.37-2.37.38-3.65.06-7.07-2.27-8.21-5.91l-1.34-4.3c-1.39-4.43,1.1-9.2,5.53-10.59l44.51-13.94h0l13.46-4.22c4.43-1.39,9.2,1.1,10.59,5.53l.02.06,1.32,4.24c1.39,4.43-1.1,9.19-5.53,10.59Z"/>
    <circle class="cls-7" cx="177.35" cy="204.45" r="18.17"/>
    <circle class="cls-7" cx="264.62" cy="204.45" r="18.17"/>
  </g>
  <polygon class="cls-4" points="344.49 254.35 311.37 268.94 202.76 301.5 312.35 273.93 344.49 254.35"/>
  <polygon class="cls-4" points="84.09 255.79 95.95 262.97 170.64 277.93 84.09 255.79"/>
  <polygon class="cls-4" points="80.13 261.41 72.98 266.68 74.92 280.69 80.13 261.41"/>
  <polygon class="cls-4" points="114.28 171.68 95.95 181.13 71.51 241.05 75.1 244.28 114.28 171.68"/>
</svg>