<?xml version="1.0" encoding="UTF-8"?>
<svg id="Calque_1" data-name="Calque 1" xmlns="http://www.w3.org/2000/svg" viewBox="0 0 684.1 539.72">
  <defs>
    <style>
      .cls-1 {
        fill: #ccc;
      }

      .cls-1, .cls-2, .cls-3, .cls-4, .cls-5 {
        stroke-width: 0px;
      }

      .cls-6 {
        fill: #fff;
      }

      .cls-6, .cls-7, .cls-8 {
        stroke: #000;
        stroke-miterlimit: 10;
        stroke-width: 3px;
      }

      .cls-2 {
        fill: #1a1a1a;
      }

      .cls-3 {
        fill: #b3b3b3;
      }

      .cls-7 {
        fill: #28113f;
      }

      .cls-4 {
        fill: #e6e6e6;
      }

      .cls-8 {
        fill: #000;
      }

      .cls-5 {
        fill: #777;
      }
    </style>
  </defs>
  <path class="cls-5" d="M605.94,405.6c1.4,2.25-6.4,5.92-17.69,9.89-24.18,8.5-64.38,18.35-64.38,18.35,0,0-185.31,0-192.37-4.64-2.59-1.7-27.76-2.72-59.11-3.67l61.57-3.57,173.53-11.75,68.61-23.08,27.63-9.29c.98,1.44,1.8,2.48,2.38,3.05,6.34,6.18-4.58,17.65-.17,24.71Z"/>
  <path class="cls-5" d="M603.73,377.84l-27.63,9.29-32.35-75.47v-39.83l-43.42-39.75,20.09,1.15c.5.03.99.03,1.48-.01,19.1,13.71,35.51,25.01,35.51,25.01,0,0,24.71,34.42,16.76,44.13-6.83,8.34,17.04,55.89,27.88,72.94.6.94,1.16,1.8,1.68,2.54Z"/>
  <path class="cls-3" d="M543.75,311.66v-39.83l-43.42-39.75-13.29-.76,1.88,6.02c1.98,6.3-1.56,13.06-7.86,15.04l-13.08,4.09c4.63,6.25,7.36,13.9,7.36,22.14,0,21.15-17.91,38.3-40,38.3s-39.95-17.1-40.01-38.2c-5.18.09-10.05-3.23-11.67-8.4l-1.91-6.11c-1.98-6.3,1.56-13.07,7.86-15.04l63.23-19.8-235.6-13.51h-.05c-11.96,4.44-23.31,10.52-30.41,18.73-21.18,24.54-41.48,95.23-41.48,95.23,0,0,26.48,20.2,19.42,22.85-3.02,1.13-8.15,5.83-13.03,10.82l1.42,34.48,19.31,24.07c23.96,1.37,57,2.26,86.79,3.12,4.48.12,8.89.25,13.18.38l61.57-3.57,173.53-11.75,68.61-23.08-32.35-75.47ZM347.55,261.07l-1.92,6.1c-1.63,5.22-6.57,8.55-11.8,8.41.09,1,.13,2.01.13,3.03,0,21.15-17.91,38.3-40,38.3s-40.01-17.15-40.01-38.3c0-9.38,3.53-17.98,9.39-24.64l-15.11-4.73c-6.3-1.97-9.83-8.74-7.86-15.03l1.91-6.11c1.97-6.3,8.74-9.84,15.04-7.87l82.36,25.8c6.3,1.97,9.84,8.74,7.87,15.04Z"/>
  <path class="cls-5" d="M172.42,422.03c-6.36-.36-12.09-.76-16.94-1.2-8.76-.8-14.67-1.74-16.36-2.87-10.58-7.06,0-40.59,0-40.59,0,0,6.06-7.21,12.57-13.89l1.42,34.48,19.31,24.07Z"/>
  <path class="cls-3" d="M347.55,261.07l-1.92,6.1c-1.63,5.22-6.57,8.55-11.8,8.41.09,1,.13,2.01.13,3.03,0,21.15-17.91,38.3-40,38.3s-40.01-17.15-40.01-38.3c0-9.38,3.53-17.98,9.39-24.64l-15.11-4.73c-6.3-1.97-9.83-8.74-7.86-15.03l1.91-6.11c1.97-6.3,8.74-9.84,15.04-7.87l82.36,25.8c6.3,1.97,9.84,8.74,7.87,15.04Z"/>
  <path class="cls-3" d="M521.9,233.22c-.49.04-.98.04-1.48.01l-20.09-1.15-13.29-.76,1.88,6.02c1.98,6.3-1.56,13.06-7.86,15.04l-13.08,4.09c4.63,6.25,7.36,13.9,7.36,22.14,0,21.15-17.91,38.3-40,38.3s-39.95-17.1-40.01-38.2c-5.18.09-10.05-3.23-11.67-8.4l-1.91-6.11c-1.98-6.3,1.56-13.07,7.86-15.04l63.23-19.8-235.6-13.51c23.75-8.83,49.84-11.23,49.84-11.23,0,0,20.33-7.51,41.1-15.95,18.68-7.58,37.71-15.89,42.66-20.19h.01c.42-.37.74-.7.95-1.01,1.36-2.01,6.41-3.94,13.66-5.68h.05c20.89-5.05,59.97-8.7,81.59-9.09,0,0,3.16,6.48,6.94,14.17,3.41,6.95,7.31,14.9,9.83,19.95,1.64,3.3,11.24,11.41,23.71,21.04,10.42,8.03,22.85,17.13,34.32,25.36Z"/>
  <polygon class="cls-4" points="224.91 215.85 244.13 265.7 507.79 300.86 237.68 274.31 224.91 215.85"/>
  <polygon class="cls-4" points="213.88 226.89 187.83 240.32 153.11 325.44 158.22 330.04 213.88 226.89"/>
  <g>
    <path class="cls-2" d="M160.64,235.36l-5.99-37.99c-.95-6.03,2.81-11.75,8.54-13.4.47-.14.95-.25,1.44-.32l19.88-3.14,13.15-2.08,33.83-5.33h0s233.11-36.76,233.11-36.76h.05s8.38-1.33,8.38-1.33c6.52-1.03,12.69,3.47,13.73,9.99l5.98,38c1.03,6.51-3.46,12.69-9.98,13.72l-151.55,23.89h-.05s-87.59,13.82-87.59,13.82l-33.18,5.24-2.62.42h0s-13.11,2.07-13.11,2.07l-4.81.76-15.48,2.44c-3.1.49-6.12-.27-8.55-1.9-2.67-1.79-4.63-4.65-5.17-8.08Z"/>
    <rect class="cls-1" x="260.99" y="170.11" width="121.34" height="44.12" rx="12" ry="12" transform="translate(669.31 331.9) rotate(171.04)"/>
    <path class="cls-2" d="M213.23,229.69s-28.37,57.93-50.21,62.67c-21.85,4.74-79.42,33.49-82.27,42.53-2.85,9.05-12.37,31.76-12.37,31.76,0,0-1.27-33.62,9.16-52.14,10.43-18.52,59.85-23.82,83.87-43.48,24.03-19.66,45.35-49.04,45.35-49.04l6.48,7.69Z"/>
    <path class="cls-2" d="M194.65,242.14s-67.37,24.25-86.84,26.07c-19.47,1.82-54.59-7.42-72.73-2.28-18.15,5.14-35.08,7.55-35.08,7.55,0,0,37.85-25.31,60.28-24.61s24.8,11.63,48.42,9.51c23.62-2.12,79.91-22.9,79.91-22.9l5.21,2.79.84,3.86Z"/>
  </g>
  <g>
    <ellipse class="cls-7" cx="285.06" cy="283.78" rx="54.53" ry="48.98"/>
    <path class="cls-6" d="M333.96,271.51c0,17.23-17.91,31.2-40,31.2s-40.01-13.97-40.01-31.2c0-7.64,3.53-14.65,9.39-20.07,7.33-6.8,18.33-11.12,30.62-11.12,21.03,0,38.26,12.65,39.87,28.72.09.81.13,1.64.13,2.47Z"/>
    <path class="cls-6" d="M475.34,278.61c0,21.15-17.91,38.3-40,38.3s-39.95-17.1-40.01-38.2v-.1c0-21.15,17.91-38.29,40.01-38.29,13.47,0,25.39,6.38,32.64,16.15,4.63,6.25,7.36,13.9,7.36,22.14Z"/>
    <path class="cls-8" d="M509.38,264.2l-1.92,6.1c-1.63,5.22-6.57,8.55-11.8,8.41-1.08-.02-2.17-.2-3.24-.54l-1.33-.42-47.62-14.91-18.3-5.74-15.11-4.73c-6.3-1.97-9.83-8.74-7.86-15.03l1.91-6.11c1.97-6.3,8.74-9.84,15.04-7.87l82.36,25.8c6.3,1.97,9.84,8.74,7.87,15.04Z"/>
    <path class="cls-8" d="M323.93,252.38l-13.08,4.09-17.42,5.46-48.64,15.23-3.22,1.01c-1.12.35-2.25.53-3.37.54-5.18.09-10.05-3.23-11.67-8.4l-1.91-6.11c-1.98-6.3,1.56-13.07,7.86-15.04l63.23-19.8h.01l19.12-5.99c6.3-1.98,13.07,1.56,15.04,7.86l.03.09,1.88,6.02c1.98,6.3-1.56,13.06-7.86,15.04Z"/>
    <ellipse class="cls-8" cx="306.53" cy="270.74" rx="25.81" ry="23.11"/>
    <circle class="cls-8" cx="427.47" cy="273.45" r="25.81"/>
  </g>
  <polygon class="cls-4" points="540.94 344.35 493.89 365.07 339.59 411.33 495.28 372.16 540.94 344.35"/>
  <polygon class="cls-4" points="170.98 346.38 187.83 356.59 293.96 377.84 170.98 346.38"/>
  <polygon class="cls-4" points="165.36 354.37 155.21 361.85 157.96 381.77 165.36 354.37"/>
</svg>