<?xml version="1.0" encoding="UTF-8"?>
<svg id="Calque_1" data-name="Calque 1" xmlns="http://www.w3.org/2000/svg" viewBox="0 0 456.7 340.85">
  <defs>
    <style>
      .cls-1 {
        fill: #ccc;
      }

      .cls-1, .cls-2, .cls-3, .cls-4, .cls-5, .cls-6 {
        stroke-width: 0px;
      }

      .cls-2 {
        fill: #000;
      }

      .cls-3 {
        fill: #b3b3b3;
      }

      .cls-4 {
        fill: #890000;
      }

      .cls-5 {
        fill: #999;
      }

      .cls-6 {
        fill: #fff;
      }
    </style>
  </defs>
  <g>
    <path class="cls-5" d="M260.74,87.5l-25.16-7.29-18.48,35.33s-8.22,39.84-6.98,65.31c1.23,25.47,6.98,119.53,6.98,119.53,0,0,0,11.09,9.04,16.43,0,0,16.54-184.12,17.66-192.34,2.16-15.71,31.51-21.88,31.51-21.88"/>
    <circle class="cls-6" cx="265.03" cy="67.06" r="36.97"/>
    <circle class="cls-2" cx="251.65" cy="53.38" r="17.64"/>
    <path class="cls-6" d="M230.21,38.51c.95,3.02,3.77,4.96,6.78,4.96.69,0,1.4-.1,2.1-.32l59.98-18.78c8.29-1.49,13.57,29.79,13.57,29.79,0,0,1.46-4.02,0-25.39-1.02-14.95-9.33-17.75-14.23-18.08-1.88-.13-3.27.11-3.53.16-.03,0-.04,0-.04,0l-59.98,18.78c-3.72,1.16-5.81,5.16-4.64,8.88Z"/>
  </g>
  <g>
    <path class="cls-3" d="M242.97,120.87l-13.08,196.34h-2.66c-.05,0-.1-.01-.16-.03-.1-13.34-.57-71.76-.93-107.07-.23-22.81-6.26-36.52-11.41-44.11-1.11-21.94-1.98-38.58-2.55-42.67-2.06-14.79-28.4-19.7-28.4-19.7,0,0,25.53-14.8,33.84-12.95,8.31,1.85,25.37,30.19,25.37,30.19Z"/>
    <circle class="cls-6" cx="189.16" cy="67.06" r="36.97"/>
    <circle class="cls-2" cx="203.21" cy="53.38" r="17.64"/>
    <path class="cls-6" d="M217.52,37.73c-.95,3.02-3.77,4.96-6.78,4.96-.69,0-1.4-.1-2.1-.32l-59.98-18.78c-8.29-1.49-13.57,29.79-13.57,29.79,0,0-1.46-4.02,0-25.39,1.02-14.95,9.33-17.75,14.23-18.08,1.88-.13,3.27.11,3.53.16.03,0,.04,0,.04,0l59.98,18.78c3.72,1.16,5.81,5.16,4.64,8.88Z"/>
    <path class="cls-1" d="M227.06,317.18c-4.99-1.94-9.47-94.34-12.35-151.18,5.15,7.58,11.18,21.3,11.41,44.11.36,35.31.83,93.73.93,107.07Z"/>
  </g>
  <circle class="cls-4" cx="228.07" cy="137.38" r="9.11"/>
  <path class="cls-6" d="M292.76,273.27s-3.7-1.54-6.16-35.43c-2.47-33.89,4.62-109.36-58.53-110.9-63.15,1.54-56.07,77.01-58.53,110.9-2.47,33.89-6.16,35.43-6.16,35.43,0,0,1.23-93.66,3.39-121.07,2.16-27.42,61.31-35.74,61.31-35.74,0,0,59.15,8.32,61.31,35.74,2.16,27.42,3.39,121.07,3.39,121.07Z"/>
  <path class="cls-6" d="M152.86,10.06c-.26-.05-1.65-.29-3.53-.16.48-.11.97-.16,1.46-.16.68,0,1.38.1,2.07.32Z"/>
  <path class="cls-6" d="M294.87,10.84c.26-.05,1.65-.29,3.53-.16-.48-.11-.97-.16-1.46-.16-.68,0-1.38.1-2.07.32Z"/>
</svg>