<?xml version="1.0" encoding="UTF-8"?>
<svg id="Calque_1" data-name="Calque 1" xmlns="http://www.w3.org/2000/svg" viewBox="0 0 684.1 539.72">
  <defs>
    <style>
      .cls-1 {
        fill: #ccc;
      }

      .cls-1, .cls-2, .cls-3, .cls-4, .cls-5, .cls-6 {
        stroke-width: 0px;
      }

      .cls-2 {
        fill: #000;
      }

      .cls-3 {
        fill: #b3b3b3;
      }

      .cls-4 {
        fill: #890000;
      }

      .cls-5 {
        fill: #999;
      }

      .cls-6 {
        fill: #fff;
      }
    </style>
  </defs>
  <g>
    <path class="cls-5" d="M237.8,217.29l-10.22,35.27,49.53,25.92s45.84,33.2,81.55,31.47c35.71-1.73,73.08-10.93,73.08-10.93,0,0,110.42,35.86,117.9,23.19,0,0-248.48-79.58-260-81.16-22.03-3.02-30.68-44.18-30.68-44.18"/>
    <circle class="cls-6" cx="209.15" cy="211.26" r="51.83"/>
    <circle class="cls-2" cx="189.97" cy="230.03" r="24.73"/>
    <path class="cls-6" d="M169.11,260.09c4.23-1.33,6.96-5.28,6.96-9.51,0-.97-.14-1.96-.45-2.94l-26.33-84.09c-2.09-11.62,41.76-19.02,41.76-19.02,0,0-5.64-2.04-35.6,0-20.96,1.43-24.89,13.08-25.35,19.95-.18,2.64.15,4.58.22,4.95.01.04.01.06.01.06l26.33,84.09c1.63,5.21,7.24,8.14,12.45,6.51Z"/>
  </g>
  <g>
    <path class="cls-3" d="M284.59,242.2l126.14,18.69,53.45,1.06,86.72,18.89,4.4.97c0,.07-1.06,4.06-1.08,4.14-11.82.09-49.61-9.78-86.3-12.79-21.35-1.75-40.51,2.53-58.72,2.72-31.98.33-50.71-1.29-61.34,5.94-30.76,1.56-54.09,2.78-59.82,3.58-20.73,2.88-27.62,39.82-27.62,39.82,0,0-20.76-35.79-18.16-47.44,2.59-11.65,42.33-35.57,42.33-35.57Z"/>
    <circle class="cls-6" cx="209.15" cy="317.64" r="51.83"/>
    <circle class="cls-2" cx="235.73" cy="316.15" r="24.73"/>
    <path class="cls-6" d="M151.09,287.15c4.22-1.36,8.73.29,11.17,3.75.56.79,1.02,1.68,1.33,2.66l27.05,83.86c5,10.69,45.08-8.58,45.08-8.58,0,0-3.43,4.92-29.07,20.55-17.94,10.93-27.87,3.69-32.22-1.65-1.67-2.05-2.52-3.83-2.68-4.17-.01-.04-.03-.05-.03-.05l-27.05-83.86c-1.68-5.19,1.21-10.83,6.41-12.5Z"/>
    <path class="cls-1" d="M554.23,285.95c-1.46,3.75-77.62-8.17-77.62-8.17,0,0-91.77,2.16-128.74,4.03,10.63-7.22,29.86-15.68,61.84-16,22.18-.23,62.31,3.8,62.31,3.8,0,0,71.89,16.42,82.21,16.34Z"/>
  </g>
  <circle class="cls-4" cx="307.74" cy="263.1" r="12.78"/>
  <path class="cls-6" d="M517.75,240.27s-3.81,4.12-49.61-8.98c-45.8-13.11-141.73-58.85-174.23,23.54-28.45,83.88,74.33,110.97,117.75,130.57,43.42,19.6,43.67,25.21,43.67,25.21,0,0-122.69-46.81-157.75-62.88-35.05-16.07-17.46-97.95-17.46-97.95,0,0,39.49-73.85,76.62-63.46,37.13,10.39,161.02,53.96,161.02,53.96Z"/>
  <path class="cls-6" d="M129.23,368.54c-.07.37-.4,2.31-.22,4.95-.16-.67-.23-1.36-.23-2.05,0-.96.14-1.94.45-2.9Z"/>
  <path class="cls-6" d="M130.32,169.43c-.07-.37-.4-2.31-.22-4.95-.16.67-.23,1.36-.23,2.05,0,.96.14,1.94.45,2.9Z"/>
</svg>